<?xml version="1.0" encoding="UTF-8" standalone="no"?>
<!-- Created with Inkscape (http://www.inkscape.org/) -->

<svg
   version="1.1"
   id="svg2"
   width="800"
   height="800"
   viewBox="0 0 800 800"
   sodipodi:docname="axe-vector-image-pdv.svg"
   inkscape:version="1.2 (dc2aedaf03, 2022-05-15)"
   xmlns:inkscape="http://www.inkscape.org/namespaces/inkscape"
   xmlns:sodipodi="http://sodipodi.sourceforge.net/DTD/sodipodi-0.dtd"
   xmlns="http://www.w3.org/2000/svg"
   xmlns:svg="http://www.w3.org/2000/svg">
  <defs
     id="defs6">
    <clipPath
       clipPathUnits="userSpaceOnUse"
       id="clipPath18">
      <path
         d="M 0,600 H 600 V 0 H 0 Z"
         id="path16" />
    </clipPath>
  </defs>
  <sodipodi:namedview
     id="namedview4"
     pagecolor="#ffffff"
     bordercolor="#000000"
     borderopacity="0.25"
     inkscape:showpageshadow="2"
     inkscape:pageopacity="0.0"
     inkscape:pagecheckerboard="0"
     inkscape:deskcolor="#d1d1d1"
     showgrid="false"
     inkscape:zoom="1.04625"
     inkscape:cx="400"
     inkscape:cy="400.4779"
     inkscape:window-width="1920"
     inkscape:window-height="1017"
     inkscape:window-x="-8"
     inkscape:window-y="-8"
     inkscape:window-maximized="1"
     inkscape:current-layer="g10">
    <inkscape:page
       x="0"
       y="0"
       id="page8"
       width="800"
       height="800" />
  </sodipodi:namedview>
  <g
     id="g10"
     inkscape:groupmode="layer"
     inkscape:label="Page 1"
     transform="matrix(1.3333333,0,0,-1.3333333,0,800)">
    <g
       id="g12">
      <g
         id="g14"
         clip-path="url(#clipPath18)">
        <g
           id="g20"
           transform="translate(424.2695,245.8203)">
          <path
             d="m 0,0 c -2.292,0.062 -4.162,-0.016 -5.561,0.031 7.931,-0.91 15.787,-1.517 23.405,-1.517 h 0.011 c 8.682,0 17.112,0.756 25.248,1.92 C 26.549,-1.783 11.408,-1.118 0,0"
             style="fill:#666666;fill-opacity:1;fill-rule:nonzero;stroke:none"
             id="path22" />
        </g>
        <g
           id="g24"
           transform="translate(393.002,379.0615)">
          <path
             d="M 0,0 0.234,-3.069 C 3.118,-8.949 5.385,-14.8 6.778,-20.466 8.784,-27.202 9.845,-33.75 9.59,-39.873 9.198,-49.302 5.7,-57.091 -0.812,-63.058 l 6.432,-19.108 2.905,-1.515 -0.838,-4.627 14.935,-44.375 c 0.444,-0.057 0.888,-0.107 1.332,-0.161 0.372,0.03 0.817,0.064 1.351,0.106 0.264,0.017 0.557,0.039 0.861,0.061 -0.571,0.072 -1.135,0.142 -1.68,0.214 l -3.963,10.085 c -0.025,0.003 -0.156,0.007 -0.181,0.01 l -1.988,4.972 v 0.004 l -3.817,10.362 c 2.684,0.297 5.503,0.611 8.335,0.949 L 9.225,-65.37 c 5.629,6.902 8.785,15.478 9.184,25.069 0.845,20.329 -23.716,85.74 -48.967,100.253 l 25.868,46.622 73.299,-72.596 1.497,-0.76 c 2.34,-1.19 49.53,-25.108 89.372,-39.918 0.219,3.014 0.344,6.113 0.342,9.319 l 0.22,-0.067 c -21.095,8 -44.21,18.472 -61.15,26.485 -1.487,-0.966 -2.412,-1.206 -2.412,-1.206 l -1.293,2.966 C 82.688,36.758 74.349,40.983 74.114,41.104 l -0.264,0.131 -0.21,0.207 -78.416,77.672 -48.865,-49.822 c 5.606,-5.779 26.94,-28.406 43.301,-54.282 3.069,-4.574 5.921,-9.236 8.428,-13.903 z"
             style="fill:#666666;fill-opacity:1;fill-rule:nonzero;stroke:none"
             id="path26" />
        </g>
        <g
           id="g28"
           transform="translate(575.5127,356.918)">
          <path
             d="M 0,0 C -0.214,-7.358 -1.176,-16.473 -3.79,-26.361 -1.463,-17.853 -0.186,-9.021 0,0"
             style="fill:#666666;fill-opacity:1;fill-rule:nonzero;stroke:none"
             id="path30" />
        </g>
        <g
           id="g32"
           transform="translate(461.916,375.8047)">
          <path
             d="M 0,0 C -2.217,0 -4.014,1.797 -4.014,4.014 -4.014,6.23 -2.217,8.027 0,8.027 2.216,8.027 4.013,6.23 4.013,4.014 4.013,1.797 2.216,0 0,0 m -14.137,-78.909 c -1.673,0 -3.029,1.356 -3.029,3.029 0,1.673 1.356,3.028 3.029,3.028 1.673,0 3.03,-1.355 3.03,-3.028 0,-1.673 -1.357,-3.029 -3.03,-3.029 m -7.825,108.798 c -0.837,0 -1.515,0.677 -1.515,1.513 0,0.837 0.678,1.516 1.515,1.516 0.837,0 1.515,-0.679 1.515,-1.516 0,-0.836 -0.678,-1.513 -1.515,-1.513 m -9.845,-68.157 c -0.838,0 -1.514,0.678 -1.514,1.515 0,0.836 0.676,1.515 1.514,1.515 0.836,0 1.515,-0.679 1.515,-1.515 0,-0.837 -0.679,-1.515 -1.515,-1.515 M -63.361,73.561 c -1.255,0 -2.272,1.015 -2.272,2.27 0,1.255 1.017,2.273 2.272,2.273 1.256,0 2.272,-1.018 2.272,-2.273 0,-1.255 -1.016,-2.27 -2.272,-2.27 M -72.7,41.248 c -0.837,0 -1.515,0.678 -1.515,1.516 0,0.836 0.678,1.513 1.515,1.513 0.836,0 1.514,-0.677 1.514,-1.513 0,-0.838 -0.678,-1.516 -1.514,-1.516 M 74.467,-12.016 c 1.255,0 2.271,-1.016 2.271,-2.271 0,-1.254 -1.016,-2.272 -2.271,-2.272 -1.255,0 -2.273,1.018 -2.273,2.272 0,1.255 1.018,2.271 2.273,2.271 m 16.096,8.573 C 50.722,11.367 3.533,35.285 1.193,36.475 L -0.303,37.232 -73.6,109.831 -99.466,63.209 c 25.251,-14.516 49.82,-79.923 48.975,-100.253 -0.399,-9.59 -3.542,-18.167 -9.171,-25.069 l 13.672,-40.711 c 53.461,6.391 130.883,21.649 136.553,99.381"
             style="fill:#808080;fill-opacity:1;fill-rule:nonzero;stroke:none"
             id="path34" />
        </g>
        <g
           id="g36"
           transform="translate(413.4492,256.6934)">
          <path
             d="M 0,0 C 0.023,-0.003 0.051,-0.007 0.076,-0.01 L -1.883,4.974 Z"
             style="fill:#999999;fill-opacity:1;fill-rule:nonzero;stroke:none"
             id="path38" />
        </g>
        <g
           id="g40"
           transform="translate(552.4795,372.3613)">
          <path
             d="m 0,0 c -5.671,-77.731 -83.093,-92.989 -136.554,-99.381 -2.832,-0.338 -5.599,-0.652 -8.282,-0.949 l 3.922,-10.361 c 71.47,3.25 150.057,27.133 150.06,117.31 L 0.562,9.252 0.343,9.318 C 0.345,6.113 0.221,3.016 0,0"
             style="fill:#999999;fill-opacity:1;fill-rule:nonzero;stroke:none"
             id="path42" />
        </g>
        <g
           id="g44"
           transform="translate(566.2959,377.5469)">
          <path
             d="M 0,0 -0.38,0.117 0.002,-0.008 C 0.001,-0.006 0,0 0,0"
             style="fill:#999999;fill-opacity:1;fill-rule:nonzero;stroke:none"
             id="path46" />
        </g>
        <g
           id="g48"
           transform="translate(411.3555,261.6699)">
          <path
             d="M 0,0 V 0 -0.003 L 2.064,-4.986 6.08,-15.071 c 0.546,-0.072 1.135,-0.143 1.706,-0.214 1.626,0.12 3.802,0.288 6.447,0.453 3.142,0.142 6.949,0.603 11.302,1.016 4.362,0.345 9.242,1.099 14.564,1.798 2.668,0.296 5.406,0.896 8.253,1.387 1.421,0.249 2.87,0.504 4.337,0.762 1.472,0.238 2.935,0.635 4.435,0.95 5.999,1.263 12.237,2.94 18.593,4.905 1.578,0.525 3.171,1.053 4.774,1.585 0.797,0.278 1.615,0.509 2.402,0.825 0.79,0.315 1.581,0.63 2.374,0.947 1.587,0.632 3.182,1.267 4.787,1.906 1.602,0.639 3.147,1.424 4.735,2.133 0.789,0.363 1.581,0.727 2.373,1.092 l 1.19,0.547 1.154,0.621 c 1.537,0.83 3.079,1.662 4.624,2.497 l 1.159,0.625 c 0.382,0.215 0.746,0.462 1.119,0.691 l 2.233,1.402 2.233,1.402 c 0.37,0.237 0.75,0.46 1.112,0.709 l 1.068,0.771 4.292,3.056 c 1.402,1.052 2.721,2.206 4.086,3.301 0.669,0.561 1.367,1.09 2.011,1.675 l 1.903,1.791 1.897,1.782 c 0.314,0.299 0.638,0.588 0.943,0.894 l 0.881,0.949 c 4.854,4.918 9.014,10.34 12.577,15.881 3.533,5.561 6.522,11.241 8.799,16.877 0.631,1.386 1.107,2.81 1.631,4.194 0.258,0.692 0.513,1.381 0.767,2.063 0.241,0.689 0.454,1.379 0.682,2.059 0.434,1.367 0.918,2.695 1.29,4.031 0.375,1.336 0.744,2.646 1.105,3.931 0.638,2.592 1.268,5.077 1.735,7.47 0.533,2.385 0.918,4.67 1.293,6.819 0.676,4.308 1.196,8.09 1.513,11.217 0.336,3.126 0.56,5.589 0.698,7.275 0.144,1.684 0.22,2.582 0.22,2.582 0,0 0.029,-0.9 0.083,-2.59 0.029,-0.846 0.038,-1.887 0.055,-3.113 0.029,-1.229 0.02,-2.638 -0.009,-4.218 -0.035,-3.161 -0.178,-7.003 -0.558,-11.404 -0.376,-4.402 -1.025,-9.359 -2.078,-14.72 -1.068,-5.357 -2.598,-11.107 -4.752,-17.023 -2.113,-5.929 -4.926,-12.006 -8.517,-17.903 -0.443,-0.741 -0.889,-1.484 -1.335,-2.231 -0.466,-0.735 -0.98,-1.443 -1.47,-2.17 -0.497,-0.724 -0.994,-1.45 -1.495,-2.179 l -0.752,-1.094 c -0.262,-0.359 -0.545,-0.702 -0.817,-1.053 -1.099,-1.4 -2.206,-2.808 -3.318,-4.224 -1.212,-1.331 -2.431,-2.669 -3.652,-4.012 l -0.922,-1.006 c -0.318,-0.326 -0.654,-0.632 -0.981,-0.951 l -1.979,-1.892 -1.988,-1.899 c -0.672,-0.621 -1.398,-1.184 -2.096,-1.781 -1.42,-1.162 -2.801,-2.386 -4.264,-3.502 L 116.059,9.376 114.936,8.573 C 114.554,8.316 114.155,8.085 113.766,7.84 L 111.417,6.393 109.07,4.948 C 108.678,4.712 108.294,4.459 107.895,4.237 L 106.681,3.595 C 105.063,2.739 103.449,1.886 101.84,1.034 L 100.633,0.4 99.392,-0.158 C 98.567,-0.53 97.743,-0.902 96.92,-1.272 96.098,-1.643 95.276,-2.012 94.457,-2.38 93.634,-2.737 92.832,-3.147 91.988,-3.439 90.313,-4.057 88.647,-4.671 86.991,-5.282 86.162,-5.587 85.337,-5.891 84.515,-6.194 83.693,-6.499 82.847,-6.716 82.018,-6.98 c -1.663,-0.504 -3.314,-1.006 -4.952,-1.503 -6.571,-1.893 -13.029,-3.298 -19.188,-4.321 -1.54,-0.255 -3.045,-0.592 -4.55,-0.771 -1.503,-0.191 -2.983,-0.378 -4.438,-0.563 -2.915,-0.325 -5.716,-0.763 -8.432,-0.903 -2.708,-0.196 -5.303,-0.385 -7.77,-0.563 -0.617,-0.041 -1.226,-0.08 -1.827,-0.12 -0.601,-0.013 -1.195,-0.028 -1.78,-0.042 -1.171,-0.026 -2.308,-0.05 -3.409,-0.075 -2.2,-0.043 -4.26,-0.085 -6.164,-0.122 -1.903,-0.061 -3.654,0.055 -5.232,0.077 -0.47,0.012 -0.921,0.024 -1.362,0.036 11.408,-1.118 26.549,-1.629 43.103,0.587 23.815,3.188 50.552,12.019 73.301,32.819 17.749,16.227 26.695,34.852 31.049,51.331 2.614,9.888 3.576,19.004 3.79,26.361 0.318,10.897 -1,17.943 -1,17.943 l -8.215,2.678 -0.516,0.125 -4.426,1.399 v -0.082 C 150,27.134 72,3.25 0,0"
             style="fill:#b3b3b3;fill-opacity:1;fill-rule:nonzero;stroke:none"
             id="path50" />
        </g>
        <g
           id="g52"
           transform="translate(269.5625,368.7744)">
          <path
             d="M 0,0 C 0.662,0 1.199,-0.536 1.199,-1.198 1.199,-1.86 0.662,-2.397 0,-2.397 c -0.662,0 -1.199,0.537 -1.199,1.199 C -1.199,-0.536 -0.662,0 0,0 m 68.347,38.244 c 1.149,0 2.082,-0.933 2.082,-2.083 0,-1.149 -0.933,-2.082 -2.082,-2.082 -1.151,0 -2.083,0.933 -2.083,2.082 0,1.15 0.932,2.083 2.083,2.083 M -202.576,-169.19 c -1.046,0 -1.893,0.846 -1.893,1.892 0,1.046 0.847,1.894 1.893,1.894 1.047,0 1.893,-0.848 1.893,-1.894 0,-1.046 -0.846,-1.892 -1.893,-1.892 m -12.867,-20.468 c 7.197,5.79 14.64,11.775 20.197,19.762 2.973,3.718 6.014,7.521 7.498,10.473 3.924,10.614 11.144,17.614 18.811,23.803 1.769,1.429 3.562,2.813 5.342,4.189 1.116,0.862 2.232,1.724 3.339,2.593 5.889,4.866 11.686,9.678 17.42,14.44 28.158,23.38 54.756,45.465 85.59,68.12 4.723,3.673 9.136,7.486 13.401,11.173 8.156,7.045 15.86,13.704 25.291,19.165 15.202,8.534 30.653,16.3 45.593,23.814 1.432,0.719 2.858,1.437 4.277,2.15 0.184,0.093 0.366,0.185 0.548,0.277 1.219,0.614 2.436,1.225 3.647,1.839 0.556,0.28 1.11,0.56 1.666,0.841 0.853,0.432 1.709,0.864 2.558,1.295 0.531,0.269 1.056,0.537 1.584,0.806 0.864,0.438 1.728,0.878 2.586,1.317 0.588,0.3 1.172,0.601 1.758,0.902 0.798,0.409 1.598,0.817 2.392,1.227 0.621,0.321 1.237,0.641 1.856,0.961 0.754,0.392 1.51,0.781 2.261,1.173 0.633,0.33 1.262,0.662 1.893,0.993 0.737,0.386 1.475,0.772 2.208,1.158 0.631,0.334 1.259,0.67 1.888,1.004 0.729,0.388 1.458,0.775 2.184,1.162 0.632,0.34 1.259,0.682 1.89,1.023 0.721,0.39 1.444,0.776 2.162,1.169 0.628,0.344 1.253,0.689 1.88,1.034 0.715,0.394 1.431,0.784 2.144,1.181 0.634,0.351 1.264,0.708 1.896,1.062 0.703,0.394 1.405,0.785 2.104,1.182 0.635,0.359 1.264,0.724 1.897,1.086 0.696,0.398 1.391,0.795 2.085,1.197 0.631,0.365 1.26,0.736 1.889,1.106 0.69,0.404 1.38,0.805 2.066,1.212 0.634,0.375 1.264,0.758 1.896,1.138 0.682,0.407 1.363,0.817 2.045,1.23 0.625,0.38 1.249,0.768 1.874,1.153 0.682,0.42 1.365,0.839 2.046,1.265 0.621,0.386 1.239,0.781 1.858,1.171 0.561,0.356 1.12,0.709 1.68,1.068 -2.296,2.747 -4.674,5.237 -7.081,7.414 -85.824,-37.799 -261.139,-166.201 -333.813,-253.348 0.341,-0.052 0.697,-0.104 1.068,-0.161 0.376,-0.058 0.765,-0.117 1.172,-0.18 0.402,-0.069 0.804,-0.188 1.227,-0.286 0.421,-0.103 0.855,-0.211 1.3,-0.321 0.443,-0.118 0.881,-0.283 1.338,-0.43 0.455,-0.152 0.923,-0.308 1.401,-0.468 0.462,-0.191 0.933,-0.385 1.417,-0.584 1.875,-0.754 3.791,-1.759 5.764,-2.875 5.242,7.252 12.218,12.865 19.007,18.325"
             style="fill:#42210b;fill-opacity:1;fill-rule:nonzero;stroke:none"
             id="path54" />
        </g>
        <g
           id="g56"
           transform="translate(33.1538,157.8545)">
          <path
             d="m 0,0 c -1.804,0.889 -3.54,1.678 -5.189,2.236 -0.447,0.157 -0.885,0.312 -1.312,0.462 -0.433,0.119 -0.856,0.236 -1.269,0.349 -0.412,0.106 -0.811,0.236 -1.203,0.317 -0.392,0.074 -0.773,0.147 -1.143,0.216 -0.369,0.064 -0.724,0.153 -1.069,0.192 -0.344,0.034 -0.675,0.065 -0.994,0.095 -0.317,0.032 -0.622,0.063 -0.913,0.091 -0.29,0.018 -0.563,0 -0.824,0.003 -0.52,-0.01 -0.986,0.007 -1.384,-0.016 -0.1,-0.012 -0.185,-0.023 -0.277,-0.035 -1.544,-6.295 1.858,-16.784 8.751,-26.836 0.004,0.148 0.018,0.289 0.022,0.436 0.022,0.699 0.055,1.391 0.105,2.076 0.019,0.264 0.043,0.525 0.067,0.786 0.061,0.698 0.132,1.392 0.224,2.076 0.029,0.216 0.064,0.429 0.096,0.643 0.093,0.625 0.197,1.243 0.315,1.857 0.039,0.206 0.077,0.413 0.119,0.618 0.14,0.674 0.298,1.34 0.468,2 0.052,0.2 0.1,0.399 0.154,0.597 0.186,0.678 0.39,1.349 0.609,2.015 0.065,0.199 0.131,0.398 0.199,0.595 0.229,0.666 0.475,1.326 0.738,1.978 0.073,0.183 0.149,0.363 0.226,0.545 0.279,0.665 0.572,1.327 0.887,1.98 0.07,0.146 0.144,0.289 0.216,0.434 0.32,0.646 0.655,1.288 1.011,1.924 0.031,0.054 0.056,0.111 0.087,0.166 0.408,0.752 0.84,1.481 1.283,2.2"
             style="fill:#42210b;fill-opacity:1;fill-rule:nonzero;stroke:none"
             id="path58" />
        </g>
        <g
           id="g60"
           transform="translate(295.3105,345.8672)">
          <path
             d="m 0,0 c -0.767,0 -1.389,0.621 -1.389,1.389 0,0.765 0.622,1.386 1.389,1.386 0.768,0 1.39,-0.621 1.39,-1.386 C 1.39,0.621 0.768,0 0,0 m -212.041,-206.278 c 1.672,0 3.028,-1.357 3.028,-3.03 0,-1.672 -1.356,-3.029 -3.028,-3.029 -1.673,0 -3.029,1.357 -3.029,3.029 0,1.673 1.356,3.03 3.029,3.03 m 57.933,95.209 c 1.463,0 2.651,-1.188 2.651,-2.651 0,-1.464 -1.188,-2.65 -2.651,-2.65 -1.464,0 -2.652,1.186 -2.652,2.65 0,1.463 1.188,2.651 2.652,2.651 m 83.68,77.937 c 0.661,0 1.2,-0.537 1.2,-1.199 0,-0.662 -0.539,-1.198 -1.2,-1.198 -0.662,0 -1.199,0.536 -1.199,1.198 0,0.662 0.537,1.199 1.199,1.199 m 34.078,23.539 c 1.395,0 2.524,-1.13 2.524,-2.524 0,-1.394 -1.129,-2.526 -2.524,-2.526 -1.394,0 -2.525,1.132 -2.525,2.526 0,1.394 1.131,2.524 2.525,2.524 m 82.924,35.405 c 2.196,0 3.976,-1.781 3.976,-3.977 0,-2.194 -1.78,-3.976 -3.976,-3.976 -2.195,0 -3.975,1.782 -3.975,3.976 0,2.196 1.78,3.977 3.975,3.977 m 24.045,26.777 c -0.386,-0.321 -0.772,-0.644 -1.162,-0.96 -0.409,-0.333 -0.821,-0.661 -1.232,-0.988 -0.39,-0.312 -0.778,-0.623 -1.17,-0.93 -0.418,-0.328 -0.839,-0.65 -1.26,-0.975 -0.393,-0.3 -0.782,-0.603 -1.177,-0.901 -0.427,-0.321 -0.858,-0.642 -1.289,-0.961 -0.391,-0.29 -0.783,-0.582 -1.179,-0.87 -0.438,-0.32 -0.881,-0.637 -1.325,-0.953 -0.39,-0.279 -0.78,-0.561 -1.174,-0.838 -0.447,-0.316 -0.898,-0.626 -1.347,-0.938 -0.396,-0.272 -0.789,-0.546 -1.187,-0.816 -0.455,-0.311 -0.914,-0.616 -1.373,-0.924 -0.393,-0.263 -0.788,-0.528 -1.183,-0.789 -0.465,-0.307 -0.935,-0.609 -1.404,-0.913 -0.394,-0.256 -0.789,-0.513 -1.185,-0.767 -0.474,-0.3 -0.95,-0.6 -1.427,-0.899 C 50.15,37.92 49.757,37.671 49.36,37.425 48.877,37.126 48.39,36.83 47.903,36.534 47.51,36.295 47.116,36.053 46.722,35.814 46.23,35.522 45.735,35.229 45.241,34.938 44.849,34.704 44.456,34.471 44.062,34.239 43.563,33.948 43.06,33.66 42.558,33.371 42.163,33.145 41.771,32.917 41.376,32.691 40.869,32.404 40.359,32.12 39.852,31.836 39.459,31.616 39.067,31.395 38.675,31.177 38.157,30.891 37.638,30.607 37.119,30.325 36.73,30.113 36.342,29.898 35.951,29.687 35.43,29.407 34.905,29.129 34.382,28.852 33.99,28.643 33.601,28.434 33.209,28.227 32.685,27.95 32.158,27.678 31.633,27.404 c -0.395,-0.205 -0.788,-0.412 -1.184,-0.616 -0.528,-0.27 -1.058,-0.54 -1.588,-0.809 -0.394,-0.202 -0.789,-0.404 -1.183,-0.603 -0.529,-0.267 -1.061,-0.53 -1.59,-0.794 -0.401,-0.2 -0.801,-0.4 -1.201,-0.6 -0.533,-0.261 -1.07,-0.523 -1.606,-0.785 -0.394,-0.193 -0.791,-0.386 -1.186,-0.58 -0.544,-0.263 -1.089,-0.524 -1.634,-0.785 -0.394,-0.189 -0.785,-0.379 -1.18,-0.566 C 18.748,21.012 18.213,20.76 17.679,20.508 17.272,20.314 16.865,20.123 16.459,19.934 15.932,19.686 15.403,19.439 14.876,19.195 14.461,19.003 14.048,18.811 13.633,18.618 13.101,18.372 12.568,18.129 12.036,17.886 11.625,17.695 11.213,17.507 10.8,17.318 10.281,17.083 9.762,16.85 9.242,16.613 8.814,16.419 8.385,16.225 7.955,16.029 7.426,15.792 6.896,15.555 6.364,15.318 5.951,15.133 5.538,14.947 5.126,14.764 4.578,14.52 4.032,14.277 3.485,14.036 3.082,13.855 2.679,13.677 2.274,13.498 1.763,13.272 1.252,13.049 0.74,12.823 0.303,12.631 -0.135,12.438 -0.573,12.245 -1.101,12.014 -1.629,11.783 -2.157,11.553 -2.576,11.37 -2.994,11.188 -3.412,11.005 -3.828,10.823 -4.244,10.643 -4.662,10.461 -7.084,9.407 -9.506,8.357 -11.918,7.312 -18.873,4.305 -26.064,1.191 -33.008,-1.952 -56.893,-13.191 -75.47,-27.068 -90.736,-45.183 c -2.18,-2.587 -4.294,-5.261 -6.346,-8.026 -4.57,-6.284 -10.67,-10.34 -17.129,-14.633 -2.149,-1.429 -4.373,-2.907 -6.51,-4.461 -29.015,-20.223 -46.837,-39.168 -59.602,-63.353 -5.999,-11.999 -15.376,-21.161 -25.304,-30.861 -5.035,-4.919 -10.244,-10.008 -14.928,-15.473 -6.787,-7.833 -12.017,-15.859 -15.829,-24.264 1.515,-1.888 2.962,-3.784 4.269,-5.689 1.45,-2.046 2.713,-4.121 3.869,-6.106 1.125,-2.005 2.121,-3.939 2.901,-5.788 0.196,-0.461 0.387,-0.914 0.573,-1.355 0.174,-0.448 0.322,-0.894 0.48,-1.323 0.329,-0.852 0.553,-1.692 0.774,-2.476 0.43,-1.572 0.639,-2.983 0.73,-4.147 0.066,-0.58 0.007,-1.108 0.018,-1.559 0.017,-0.456 -0.058,-0.832 -0.106,-1.14 l -0.146,-0.943 c 0,0 0.033,0.331 0.095,0.949 0.033,0.31 0.086,0.691 0.045,1.142 -0.035,0.448 -0.005,0.962 -0.1,1.534 -0.152,1.144 -0.432,2.52 -0.938,4.046 -0.26,0.76 -0.523,1.572 -0.893,2.395 -0.177,0.414 -0.347,0.844 -0.54,1.275 -0.207,0.425 -0.419,0.861 -0.635,1.305 -0.865,1.777 -1.948,3.627 -3.159,5.54 -1.245,1.892 -2.592,3.866 -4.127,5.8 -1.216,1.584 -2.538,3.155 -3.916,4.716 -1.8,-4.222 -3.25,-8.541 -4.36,-12.983 -0.984,-3.277 -2.212,-8.05 -2.284,-12.472 7.59,-3.876 15.391,-5.738 23.282,-5.525 10.962,5.237 19.244,21.388 30.687,43.707 12.843,25.047 28.824,56.219 56.724,89.585 33.092,39.574 74.381,71.913 126.229,98.866 9.578,5.088 20.192,6.157 27.409,6.157 4.225,0 7.21,-0.362 8.115,-0.487 4.04,2.513 47.449,29.503 55.836,33.942 -1.015,3.961 -4.578,12.933 -10.623,22.599 -0.28,-0.247 -0.565,-0.485 -0.847,-0.728 -0.384,-0.332 -0.768,-0.663 -1.155,-0.99 -0.399,-0.338 -0.801,-0.671 -1.204,-1.004"
             style="fill:#8c6239;fill-opacity:1;fill-rule:nonzero;stroke:none"
             id="path62" />
        </g>
        <g
           id="g64"
           transform="translate(51.6333,144.4795)">
          <path
             d="m 0,0 c -0.938,0.918 -1.941,1.767 -2.908,2.643 -0.993,0.847 -1.984,1.69 -2.989,2.494 -1.018,0.788 -2.007,1.596 -3.038,2.32 -0.509,0.369 -1.016,0.735 -1.519,1.1 -0.514,0.344 -1.025,0.686 -1.532,1.026 -1,0.699 -2.043,1.286 -3.034,1.907 -0.711,0.414 -1.416,0.803 -2.114,1.183 -0.45,-0.728 -0.889,-1.467 -1.303,-2.232 -3.746,-6.628 -5.498,-13.858 -5.359,-22.108 6.06,-8.188 13.845,-15.115 22.046,-19.636 0.206,4.366 1.428,8.897 2.368,12.032 1.186,4.742 2.765,9.347 4.735,13.846 C 3.64,-3.578 1.873,-1.733 0,0"
             style="fill:#754c24;fill-opacity:1;fill-rule:nonzero;stroke:none"
             id="path66" />
        </g>
        <g
           id="g68"
           transform="translate(59.0356,162.4766)">
          <path
             d="M 0,0 C -2.3,0 -4.166,1.864 -4.166,4.165 -4.166,6.465 -2.3,8.33 0,8.33 2.3,8.33 4.165,6.465 4.165,4.165 4.165,1.864 2.3,0 0,0 m 43.166,49.981 c 0.835,0 1.514,-0.678 1.514,-1.514 0,-0.837 -0.679,-1.515 -1.514,-1.515 -0.836,0 -1.515,0.678 -1.515,1.515 0,0.836 0.679,1.514 1.515,1.514 m 68.156,71.185 c 0.836,0 1.513,-0.678 1.513,-1.515 0,-0.836 -0.677,-1.514 -1.513,-1.514 -0.837,0 -1.515,0.678 -1.515,1.514 0,0.837 0.678,1.515 1.515,1.515 m 140.857,88.036 c -0.662,0 -1.199,0.536 -1.199,1.198 0,0.662 0.537,1.2 1.199,1.2 0.661,0 1.198,-0.538 1.198,-1.2 0,-0.662 -0.537,-1.198 -1.198,-1.198 M 29.589,17.957 c 9.834,9.607 19.123,18.684 25.016,30.47 12.893,24.428 30.855,43.533 60.07,63.894 2.151,1.565 4.388,3.052 6.551,4.49 6.341,4.215 12.332,8.197 16.746,14.267 16.572,22.337 37.117,38.776 64.66,51.734 6.965,3.156 14.162,6.27 21.121,9.284 30.021,12.99 61.058,26.422 85.526,47.898 -1.928,2.988 -3.951,5.802 -6.026,8.377 -20.735,-13.294 -42.245,-24.109 -65.006,-35.553 -13.06,-6.566 -26.51,-13.328 -39.826,-20.619 -1.903,-1.042 -3.802,-2.094 -5.698,-3.158 -2.325,-1.346 -4.547,-2.77 -6.698,-4.255 -6.455,-4.459 -12.277,-9.49 -18.354,-14.74 -3.209,-2.775 -6.502,-5.618 -9.961,-8.435 -1.151,-0.937 -2.322,-1.872 -3.515,-2.799 C 123.378,136.171 96.798,114.1 68.658,90.734 62.921,85.972 57.126,81.159 51.221,76.281 50.096,75.396 48.978,74.533 47.859,73.669 38.518,66.453 28.858,58.991 24.187,46.313 L 24.153,46.234 C 22.603,43.134 19.498,39.252 16.494,35.498 11.196,27.88 4.248,22.081 -2.6,16.561 -3.056,16.192 -3.512,15.826 -3.967,15.46 -10.935,9.856 -17.588,4.505 -22.631,-2.466 c 0.652,-0.401 1.307,-0.812 1.964,-1.243 1.004,-0.706 2.061,-1.381 3.062,-2.162 0.507,-0.381 1.019,-0.765 1.534,-1.152 0.5,-0.404 1.004,-0.811 1.51,-1.221 1.025,-0.806 2,-1.692 3.003,-2.558 0.989,-0.883 1.958,-1.801 2.929,-2.722 0.942,-0.952 1.92,-1.871 2.829,-2.862 1.61,-1.66 3.128,-3.402 4.595,-5.149 3.854,8.276 9.08,16.196 15.778,23.924 4.726,5.512 9.958,10.625 15.016,15.568"
             style="fill:#754c24;fill-opacity:1;fill-rule:nonzero;stroke:none"
             id="path70" />
        </g>
        <g
           id="g72"
           transform="translate(341.8848,363.7266)">
          <path
             d="M 0,0 C 2.195,0 3.976,1.78 3.976,3.977 3.976,6.172 2.195,7.952 0,7.952 -2.196,7.952 -3.976,6.172 -3.976,3.977 -3.976,1.78 -2.196,0 0,0"
             style="fill:#c69c6d;fill-opacity:1;fill-rule:nonzero;stroke:none"
             id="path74" />
        </g>
        <g
           id="g76"
           transform="translate(295.3105,348.6436)">
          <path
             d="m 0,0 c -0.767,0 -1.389,-0.621 -1.389,-1.388 0,-0.767 0.622,-1.388 1.389,-1.388 0.768,0 1.39,0.621 1.39,1.388 C 1.39,-0.621 0.768,0 0,0"
             style="fill:#c69c6d;fill-opacity:1;fill-rule:nonzero;stroke:none"
             id="path78" />
        </g>
        <g
           id="g80"
           transform="translate(258.9609,331.2256)">
          <path
             d="M 0,0 C 1.395,0 2.523,1.131 2.523,2.524 2.523,3.919 1.395,5.049 0,5.049 -1.395,5.049 -2.523,3.919 -2.523,2.524 -2.523,1.131 -1.395,0 0,0"
             style="fill:#c69c6d;fill-opacity:1;fill-rule:nonzero;stroke:none"
             id="path82" />
        </g>
        <g
           id="g84"
           transform="translate(337.9082,402.8535)">
          <path
             d="M 0,0 C 1.15,0 2.083,0.934 2.083,2.082 2.083,3.232 1.15,4.165 0,4.165 -1.149,4.165 -2.083,3.232 -2.083,2.082 -2.083,0.934 -1.149,0 0,0"
             style="fill:#c69c6d;fill-opacity:1;fill-rule:nonzero;stroke:none"
             id="path86" />
        </g>
        <g
           id="g88"
           transform="translate(311.2148,374.0762)">
          <path
             d="m 0,0 c -0.662,0 -1.199,-0.537 -1.199,-1.199 0,-0.662 0.537,-1.198 1.199,-1.198 0.661,0 1.198,0.536 1.198,1.198 C 1.198,-0.537 0.661,0 0,0"
             style="fill:#c69c6d;fill-opacity:1;fill-rule:nonzero;stroke:none"
             id="path90" />
        </g>
        <g
           id="g92"
           transform="translate(224.8828,310.3379)">
          <path
             d="M 0,0 C 0.662,0 1.199,0.536 1.199,1.198 1.199,1.859 0.662,2.397 0,2.397 -0.662,2.397 -1.199,1.859 -1.199,1.198 -1.199,0.536 -0.662,0 0,0"
             style="fill:#c69c6d;fill-opacity:1;fill-rule:nonzero;stroke:none"
             id="path94" />
        </g>
        <g
           id="g96"
           transform="translate(269.5625,366.377)">
          <path
             d="M 0,0 C 0.662,0 1.199,0.537 1.199,1.199 1.199,1.861 0.662,2.396 0,2.396 -0.662,2.396 -1.199,1.861 -1.199,1.199 -1.199,0.537 -0.662,0 0,0"
             style="fill:#c69c6d;fill-opacity:1;fill-rule:nonzero;stroke:none"
             id="path98" />
        </g>
        <g
           id="g100"
           transform="translate(59.0356,170.8066)">
          <path
             d="m 0,0 c -2.3,0 -4.166,-1.865 -4.166,-4.165 0,-2.301 1.866,-4.165 4.166,-4.165 2.3,0 4.165,1.864 4.165,4.165 C 4.165,-1.865 2.3,0 0,0"
             style="fill:#c69c6d;fill-opacity:1;fill-rule:nonzero;stroke:none"
             id="path102" />
        </g>
        <g
           id="g104"
           transform="translate(83.269,133.5303)">
          <path
             d="m 0,0 c 1.672,0 3.029,1.356 3.029,3.029 0,1.673 -1.357,3.03 -3.029,3.03 -1.673,0 -3.029,-1.357 -3.029,-3.03 C -3.029,1.356 -1.673,0 0,0"
             style="fill:#c69c6d;fill-opacity:1;fill-rule:nonzero;stroke:none"
             id="path106" />
        </g>
        <g
           id="g108"
           transform="translate(102.2012,209.4287)">
          <path
             d="M 0,0 C 0.836,0 1.516,0.678 1.516,1.515 1.516,2.351 0.836,3.029 0,3.029 -0.836,3.029 -1.516,2.351 -1.516,1.515 -1.516,0.678 -0.836,0 0,0"
             style="fill:#c69c6d;fill-opacity:1;fill-rule:nonzero;stroke:none"
             id="path110" />
        </g>
        <g
           id="g112"
           transform="translate(170.3574,280.6133)">
          <path
             d="M 0,0 C 0.836,0 1.516,0.679 1.516,1.515 1.516,2.352 0.836,3.029 0,3.029 -0.836,3.029 -1.516,2.352 -1.516,1.515 -1.516,0.679 -0.836,0 0,0"
             style="fill:#c69c6d;fill-opacity:1;fill-rule:nonzero;stroke:none"
             id="path114" />
        </g>
        <g
           id="g116"
           transform="translate(141.2012,229.4971)">
          <path
             d="M 0,0 C 1.465,0 2.651,1.186 2.651,2.65 2.651,4.113 1.465,5.301 0,5.301 -1.463,5.301 -2.649,4.113 -2.649,2.65 -2.649,1.186 -1.463,0 0,0"
             style="fill:#c69c6d;fill-opacity:1;fill-rule:nonzero;stroke:none"
             id="path118" />
        </g>
        <g
           id="g120"
           transform="translate(66.9868,203.3701)">
          <path
             d="m 0,0 c -1.045,0 -1.893,-0.848 -1.893,-1.894 0,-1.045 0.848,-1.892 1.893,-1.892 1.046,0 1.894,0.847 1.894,1.892 C 1.894,-0.848 1.046,0 0,0"
             style="fill:#c69c6d;fill-opacity:1;fill-rule:nonzero;stroke:none"
             id="path122" />
        </g>
        <g
           id="g124"
           transform="translate(398.5547,453.9082)">
          <path
             d="m 0,0 c -1.255,0 -2.271,-1.018 -2.271,-2.272 0,-1.255 1.016,-2.272 2.271,-2.272 1.256,0 2.272,1.017 2.272,2.272 C 2.272,-1.018 1.256,0 0,0"
             style="fill:#333333;fill-opacity:1;fill-rule:nonzero;stroke:none"
             id="path126" />
        </g>
        <g
           id="g128"
           transform="translate(536.3828,359.2461)">
          <path
             d="M 0,0 C 1.255,0 2.27,1.018 2.27,2.272 2.27,3.525 1.255,4.544 0,4.544 -1.255,4.544 -2.272,3.525 -2.272,2.272 -2.272,1.018 -1.255,0 0,0"
             style="fill:#333333;fill-opacity:1;fill-rule:nonzero;stroke:none"
             id="path130" />
        </g>
        <g
           id="g132"
           transform="translate(389.2158,420.082)">
          <path
             d="m 0,0 c -0.837,0 -1.515,-0.68 -1.515,-1.516 0,-0.836 0.678,-1.513 1.515,-1.513 0.836,0 1.515,0.677 1.515,1.513 C 1.515,-0.68 0.836,0 0,0"
             style="fill:#333333;fill-opacity:1;fill-rule:nonzero;stroke:none"
             id="path134" />
        </g>
        <g
           id="g136"
           transform="translate(439.9541,408.7227)">
          <path
             d="m 0,0 c -0.837,0 -1.515,-0.679 -1.515,-1.516 0,-0.836 0.678,-1.513 1.515,-1.513 0.837,0 1.515,0.677 1.515,1.513 C 1.515,-0.679 0.837,0 0,0"
             style="fill:#333333;fill-opacity:1;fill-rule:nonzero;stroke:none"
             id="path138" />
        </g>
        <g
           id="g140"
           transform="translate(430.1094,340.5664)">
          <path
             d="m 0,0 c -0.837,0 -1.515,-0.68 -1.515,-1.516 0,-0.836 0.678,-1.513 1.515,-1.513 0.836,0 1.515,0.677 1.515,1.513 C 1.515,-0.68 0.836,0 0,0"
             style="fill:#333333;fill-opacity:1;fill-rule:nonzero;stroke:none"
             id="path142" />
        </g>
        <g
           id="g144"
           transform="translate(461.916,383.832)">
          <path
             d="m 0,0 c -2.217,0 -4.014,-1.797 -4.014,-4.014 0,-2.216 1.797,-4.013 4.014,-4.013 2.216,0 4.013,1.797 4.013,4.013 C 4.013,-1.797 2.216,0 0,0"
             style="fill:#333333;fill-opacity:1;fill-rule:nonzero;stroke:none"
             id="path146" />
        </g>
        <g
           id="g148"
           transform="translate(447.7793,302.9541)">
          <path
             d="m 0,0 c -1.673,0 -3.029,-1.356 -3.029,-3.029 0,-1.673 1.356,-3.03 3.029,-3.03 1.673,0 3.029,1.357 3.029,3.03 C 3.029,-1.356 1.673,0 0,0"
             style="fill:#333333;fill-opacity:1;fill-rule:nonzero;stroke:none"
             id="path150" />
        </g>
        <g
           id="g152"
           transform="translate(425.6318,245.7842)">
          <path
             d="m 0,0 c 1.578,-0.022 3.329,-0.139 5.232,-0.077 1.904,0.037 3.963,0.079 6.165,0.122 1.1,0.024 2.237,0.049 3.408,0.075 0.585,0.014 1.178,0.028 1.78,0.042 0.602,0.039 1.21,0.079 1.826,0.119 2.468,0.179 5.063,0.367 7.771,0.564 2.716,0.139 5.516,0.578 8.431,0.903 1.455,0.185 2.936,0.372 4.439,0.563 1.505,0.178 3.011,0.515 4.55,0.771 6.159,1.023 12.617,2.428 19.188,4.32 1.638,0.497 3.289,0.999 4.952,1.503 0.828,0.265 1.675,0.482 2.496,0.786 0.824,0.304 1.648,0.608 2.477,0.914 1.655,0.61 3.322,1.224 4.997,1.841 0.844,0.292 1.646,0.702 2.469,1.06 0.819,0.368 1.64,0.737 2.463,1.107 0.823,0.37 1.647,0.742 2.472,1.114 l 1.241,0.559 1.207,0.634 c 1.609,0.85 3.223,1.705 4.84,2.56 l 1.214,0.643 c 0.4,0.222 0.783,0.475 1.176,0.711 l 2.347,1.444 2.348,1.448 c 0.39,0.245 0.788,0.475 1.17,0.733 l 1.124,0.803 4.473,3.245 c 1.463,1.116 2.844,2.34 4.265,3.502 0.697,0.596 1.422,1.16 2.095,1.781 l 1.988,1.898 1.979,1.893 c 0.326,0.318 0.663,0.625 0.981,0.95 l 0.921,1.007 c 1.222,1.343 2.441,2.681 3.653,4.012 1.112,1.416 2.219,2.824 3.318,4.223 0.272,0.352 0.555,0.695 0.817,1.053 l 0.752,1.095 c 0.5,0.728 0.998,1.455 1.496,2.179 0.489,0.726 1.002,1.435 1.468,2.17 0.448,0.747 0.893,1.49 1.336,2.231 3.591,5.896 6.404,11.975 8.517,17.902 2.154,5.916 3.683,11.666 4.752,17.024 1.052,5.361 1.702,10.318 2.078,14.718 0.38,4.403 0.522,8.245 0.557,11.406 0.03,1.58 0.04,2.989 0.009,4.218 -0.016,1.226 -0.025,2.268 -0.054,3.113 -0.054,1.687 -0.083,2.59 -0.083,2.59 0,0 -0.076,-0.899 -0.22,-2.582 -0.139,-1.685 -0.362,-4.149 -0.698,-7.276 -0.318,-3.129 -0.837,-6.908 -1.513,-11.217 -0.375,-2.148 -0.761,-4.433 -1.293,-6.817 -0.468,-2.393 -1.098,-4.88 -1.735,-7.472 -0.362,-1.284 -0.731,-2.593 -1.106,-3.929 -0.371,-1.337 -0.855,-2.664 -1.289,-4.034 -0.228,-0.678 -0.441,-1.371 -0.682,-2.057 -0.253,-0.683 -0.509,-1.371 -0.767,-2.066 -0.525,-1.38 -1,-2.805 -1.631,-4.19 -2.277,-5.638 -5.267,-11.317 -8.8,-16.878 -3.562,-5.541 -7.721,-10.963 -12.576,-15.881 l -0.882,-0.949 c -0.305,-0.307 -0.629,-0.596 -0.942,-0.894 l -1.898,-1.783 -1.902,-1.79 c -0.644,-0.586 -1.343,-1.114 -2.012,-1.676 -1.364,-1.094 -2.683,-2.249 -4.086,-3.3 l -4.292,-3.056 -1.067,-0.77 c -0.362,-0.25 -0.742,-0.473 -1.112,-0.71 l -2.234,-1.402 -2.232,-1.402 c -0.373,-0.23 -0.736,-0.476 -1.119,-0.692 L 89.854,24.024 C 88.309,23.189 86.767,22.357 85.23,21.527 l -1.155,-0.62 -1.189,-0.548 C 82.094,19.995 81.302,19.631 80.513,19.268 78.925,18.559 77.38,17.773 75.777,17.135 74.173,16.496 72.577,15.86 70.99,15.23 70.197,14.912 69.406,14.597 68.617,14.282 67.83,13.966 67.012,13.734 66.215,13.457 64.611,12.925 63.021,12.395 61.441,11.872 55.084,9.907 48.847,8.23 42.848,6.967 41.349,6.651 39.886,6.255 38.414,6.017 36.945,5.759 35.499,5.504 34.077,5.255 31.23,4.764 28.495,4.164 25.826,3.868 20.504,3.169 15.626,2.415 11.265,2.069 6.91,1.656 3.112,1.195 -0.03,1.054 -2.675,0.889 -4.838,0.721 -6.464,0.601 -6.767,0.578 -7.06,0.557 -7.325,0.539 -7.858,0.497 -8.304,0.463 -8.676,0.434 -9.479,0.37 -9.911,0.337 -9.911,0.337 c 0,0 0.9,-0.036 2.588,-0.103 C -7.198,0.23 -7.059,0.225 -6.925,0.221 -5.524,0.175 -3.654,0.1 -1.362,0.036 -0.921,0.023 -0.471,0.012 0,0"
             style="fill:#f2f2f2;fill-opacity:1;fill-rule:nonzero;stroke:none"
             id="path154" />
        </g>
        <g
           id="g156"
           transform="translate(575.5205,356.918)">
          <path
             d="m 0,0 c -0.187,-9.021 -1.467,-17.853 -3.794,-26.361 -4.354,-16.479 -13.301,-35.104 -31.05,-51.331 -22.75,-20.8 -49.488,-29.785 -73.304,-32.972 -8.135,-1.164 -16.566,-1.92 -25.249,-1.92 h -0.01 c -7.618,0 -15.474,0.607 -23.407,1.518 -0.134,0.003 -0.273,0.086 -0.398,0.089 -1.687,0.067 -2.588,0.141 -2.588,0.141 0,0 0.431,0.053 1.236,0.116 -0.445,0.054 -0.888,0.113 -1.333,0.171 l -14.935,44.38 0.839,4.63 -2.905,1.516 -6.432,19.11 c 6.512,5.966 10.01,13.754 10.401,23.183 0.255,6.122 -0.805,12.671 -2.811,19.408 -1.394,5.666 -3.66,11.515 -6.544,17.395 l -0.234,3.072 -1.913,1.105 c -2.506,4.668 -5.358,9.329 -8.427,13.902 -16.362,25.877 -37.696,48.504 -43.302,54.283 l 48.865,49.823 78.416,-77.671 0.21,-0.207 0.265,-0.133 c 0.234,-0.119 8.573,-4.347 21.071,-10.308 l 1.292,-2.964 c 0,0 0.926,0.24 2.412,1.207 16.94,-8.014 39.921,-18.487 61.017,-26.487 l 8.447,-2.633 v 0.083 l 4.426,-1.399 0.446,-0.117 c 0,0 0.036,-0.006 0.037,-0.008 l 8.232,-2.678 c 0,0 1.341,-7.046 1.024,-17.943 m -555.458,-195.104 c 0.291,-0.03 0.595,-0.06 0.913,-0.092 0.318,-0.031 0.649,-0.062 0.994,-0.095 0.344,-0.039 0.699,-0.128 1.069,-0.192 0.369,-0.07 0.75,-0.142 1.143,-0.216 0.392,-0.081 0.79,-0.211 1.203,-0.318 0.412,-0.113 0.835,-0.229 1.268,-0.348 0.428,-0.151 0.865,-0.455 1.312,-0.612 1.613,-0.546 3.309,-0.866 5.07,-2.294 -0.399,-0.655 -0.792,-1.312 -1.16,-1.993 -0.032,-0.055 -0.06,-0.11 -0.091,-0.166 -0.356,-0.636 -0.69,-1.277 -1.011,-1.924 -0.071,-0.144 -0.146,-0.288 -0.216,-0.433 -0.315,-0.654 -0.608,-1.316 -0.887,-1.981 -0.076,-0.181 -0.152,-0.362 -0.226,-0.544 -0.263,-0.653 -0.508,-1.312 -0.737,-1.978 -0.069,-0.197 -0.135,-0.397 -0.2,-0.596 -0.218,-0.666 -0.423,-1.337 -0.609,-2.014 -0.053,-0.199 -0.102,-0.398 -0.153,-0.597 -0.17,-0.66 -0.329,-1.326 -0.469,-2 -0.042,-0.205 -0.079,-0.412 -0.119,-0.618 -0.117,-0.614 -0.222,-1.233 -0.315,-1.858 -0.031,-0.214 -0.067,-0.426 -0.095,-0.642 -0.092,-0.685 -0.163,-1.378 -0.225,-2.076 -0.023,-0.261 -0.048,-0.523 -0.066,-0.787 -0.05,-0.684 -0.083,-1.376 -0.105,-2.076 -0.005,-0.146 -0.019,-0.288 -0.022,-0.435 -6.894,10.052 -10.296,20.541 -8.752,26.836 0.092,0.011 0.177,0.022 0.277,0.035 0.398,0.022 0.865,0.006 1.384,0.015 0.261,-0.001 0.534,0.015 0.825,-0.001 m 334.175,257.629 c 2.408,-2.175 4.785,-4.666 7.081,-7.414 -0.559,-0.357 -1.118,-0.711 -1.679,-1.065 -0.619,-0.392 -1.237,-0.786 -1.858,-1.174 -0.681,-0.425 -1.365,-0.845 -2.046,-1.265 -0.625,-0.382 -1.249,-0.771 -1.875,-1.152 -0.68,-0.413 -1.363,-0.821 -2.044,-1.228 -0.631,-0.381 -1.261,-0.763 -1.895,-1.138 -0.687,-0.407 -1.377,-0.81 -2.066,-1.214 -0.63,-0.369 -1.258,-0.74 -1.889,-1.105 -0.694,-0.403 -1.39,-0.799 -2.086,-1.198 -0.633,-0.362 -1.263,-0.726 -1.897,-1.086 -0.699,-0.396 -1.402,-0.788 -2.104,-1.181 -0.632,-0.355 -1.263,-0.711 -1.897,-1.063 -0.712,-0.396 -1.428,-0.788 -2.143,-1.179 -0.627,-0.346 -1.252,-0.693 -1.88,-1.036 -0.719,-0.39 -1.441,-0.78 -2.162,-1.17 -0.631,-0.34 -1.258,-0.681 -1.891,-1.02 -0.725,-0.389 -1.455,-0.774 -2.183,-1.162 -0.629,-0.335 -1.256,-0.671 -1.888,-1.004 -0.733,-0.388 -1.471,-0.774 -2.208,-1.159 -0.631,-0.33 -1.261,-0.662 -1.894,-0.992 -0.751,-0.393 -1.506,-0.784 -2.26,-1.172 -0.619,-0.323 -1.236,-0.644 -1.856,-0.963 -0.795,-0.41 -1.594,-0.819 -2.391,-1.228 -0.587,-0.302 -1.171,-0.6 -1.758,-0.901 -0.86,-0.44 -1.724,-0.878 -2.587,-1.319 -0.528,-0.267 -1.053,-0.537 -1.583,-0.804 -0.851,-0.432 -1.706,-0.863 -2.56,-1.295 -0.555,-0.281 -1.108,-0.563 -1.665,-0.843 -1.212,-0.611 -2.428,-1.223 -3.646,-1.838 -0.183,-0.093 -0.365,-0.182 -0.549,-0.276 -1.42,-0.714 -2.846,-1.432 -4.276,-2.151 -14.94,-7.512 -30.392,-15.28 -45.595,-23.815 -9.431,-5.46 -17.135,-12.117 -25.291,-19.164 -4.265,-3.687 -8.675,-7.499 -13.399,-11.173 -30.836,-22.654 -57.433,-44.739 -85.591,-68.12 -5.735,-4.762 -11.53,-9.573 -17.42,-14.44 -1.107,-0.869 -2.223,-1.731 -3.338,-2.592 -1.781,-1.376 -3.574,-2.761 -5.344,-4.19 -0.958,-0.773 -1.91,-1.559 -2.848,-2.364 -6.571,-5.631 -12.529,-12.151 -15.961,-21.438 -1.485,-2.953 -4.526,-6.755 -7.499,-10.472 -5.557,-7.988 -13,-13.974 -20.197,-19.764 -6.789,-5.46 -13.766,-11.073 -19.007,-18.325 -1.974,1.116 -3.89,2.121 -5.764,2.875 -0.483,0.199 -0.956,0.394 -1.418,0.584 -0.478,0.16 -0.944,0.316 -1.399,0.469 -0.458,0.146 -0.895,0.311 -1.338,0.429 -0.447,0.111 -0.881,0.218 -1.301,0.322 -0.423,0.097 -0.825,0.216 -1.227,0.286 -0.406,0.062 -0.797,0.122 -1.173,0.18 -0.371,0.056 -0.726,0.109 -1.066,0.161 72.672,87.146 247.988,215.55 333.811,253.346 m -157.23,-125.888 c -4.414,-6.071 -10.404,-10.052 -16.746,-14.268 -2.163,-1.437 -4.4,-2.925 -6.551,-4.489 -29.214,-20.362 -47.177,-39.466 -60.07,-63.895 -5.893,-11.786 -15.182,-20.862 -25.016,-30.469 -5.058,-4.944 -10.29,-10.056 -15.016,-15.569 -6.698,-7.727 -11.923,-15.647 -15.777,-23.924 -1.468,1.748 -2.986,3.49 -4.596,5.15 -0.909,0.989 -1.886,1.91 -2.829,2.861 -0.97,0.922 -1.94,1.84 -2.929,2.723 -1.003,0.866 -1.978,1.752 -3.002,2.557 -0.507,0.411 -1.011,0.818 -1.511,1.221 -0.515,0.388 -1.027,0.772 -1.534,1.153 -1.001,0.781 -2.058,1.455 -3.061,2.162 -0.658,0.43 -1.313,0.841 -1.965,1.243 5.043,6.97 11.696,12.322 18.664,17.925 0.455,0.367 0.911,0.733 1.368,1.101 6.847,5.521 13.795,11.319 19.093,18.938 3.004,3.754 6.109,7.635 7.659,10.736 l 0.034,0.077 c 4.671,12.68 14.33,20.142 23.672,27.359 1.119,0.863 2.236,1.726 3.361,2.611 5.907,4.878 11.703,9.69 17.438,14.453 28.14,23.366 54.723,45.436 85.537,68.077 1.193,0.928 2.363,1.862 3.517,2.801 3.458,2.813 6.75,5.659 9.961,8.433 6.075,5.25 11.897,10.283 18.352,14.742 2.15,1.485 4.374,2.908 6.697,4.254 1.897,1.064 3.795,2.116 5.699,3.158 13.316,7.291 26.766,14.052 39.826,20.619 22.76,11.443 44.271,22.26 65.007,35.553 2.074,-2.576 4.097,-5.388 6.025,-8.377 -24.468,-21.477 -55.504,-34.908 -85.524,-47.901 -6.96,-3.011 -14.158,-6.127 -21.123,-9.28 -27.543,-12.961 -48.087,-29.397 -64.66,-51.735 m -169.171,-160.741 c -0.138,8.25 1.614,15.479 5.36,22.107 0.403,0.745 0.83,1.463 1.268,2.172 0.012,-0.006 0.023,-0.01 0.035,-0.016 0.698,-0.38 1.402,-0.731 2.114,-1.145 0.99,-0.621 2.033,-1.189 3.033,-1.888 0.508,-0.34 1.019,-0.673 1.533,-1.018 0.503,-0.364 1.009,-0.725 1.519,-1.094 1.03,-0.724 2.02,-1.53 3.038,-2.318 1.005,-0.803 1.995,-1.645 2.989,-2.492 0.966,-0.877 1.97,-1.724 2.908,-2.643 1.872,-1.734 3.64,-3.578 5.352,-5.424 -1.969,-4.499 -3.548,-9.105 -4.734,-13.847 -0.94,-3.135 -2.163,-7.666 -2.369,-12.031 -8.2,4.52 -15.985,11.448 -22.046,19.637 m 287.971,212.31 c -7.217,0 -17.83,-1.069 -27.409,-6.158 -51.848,-26.952 -93.137,-59.291 -126.229,-98.864 -27.899,-33.367 -43.882,-64.538 -56.724,-89.585 -11.443,-22.32 -19.725,-38.471 -30.687,-43.707 -7.891,-0.214 -15.691,1.648 -23.282,5.524 0.072,4.422 1.3,9.195 2.283,12.473 1.111,4.441 2.561,8.76 4.361,12.982 1.377,-1.56 2.699,-3.132 3.915,-4.716 1.536,-1.935 2.883,-3.908 4.128,-5.8 1.21,-1.913 2.294,-3.763 3.158,-5.54 0.217,-0.444 0.428,-0.879 0.635,-1.305 0.195,-0.431 0.364,-0.861 0.541,-1.275 0.37,-0.823 0.633,-1.634 0.892,-2.395 0.506,-1.526 0.787,-2.902 0.938,-4.046 0.097,-0.571 0.065,-1.086 0.1,-1.534 0.042,-0.45 -0.011,-0.832 -0.044,-1.142 -0.062,-0.618 -0.095,-0.949 -0.095,-0.949 l 0.146,0.943 c 0.048,0.308 0.122,0.684 0.105,1.14 -0.01,0.451 0.049,0.979 -0.018,1.561 -0.09,1.163 -0.299,2.573 -0.73,4.145 -0.22,0.784 -0.445,1.624 -0.774,2.477 -0.156,0.428 -0.305,0.875 -0.479,1.322 -0.186,0.441 -0.377,0.894 -0.572,1.355 -0.781,1.849 -1.778,3.784 -2.902,5.788 -1.157,1.985 -2.419,4.06 -3.87,6.106 -1.307,1.905 -2.753,3.802 -4.269,5.689 3.812,8.406 9.043,16.431 15.831,24.264 4.684,5.465 9.891,10.553 14.928,15.474 9.927,9.699 19.303,18.861 25.303,30.86 12.765,24.187 30.586,43.13 59.602,63.354 2.138,1.553 4.361,3.032 6.511,4.46 6.458,4.293 12.558,8.349 17.128,14.633 2.052,2.765 4.165,5.44 6.346,8.027 15.267,18.114 33.843,31.99 57.728,43.23 6.944,3.145 14.135,6.256 21.089,9.267 2.414,1.045 4.834,2.091 7.257,3.146 0.417,0.182 0.834,0.362 1.251,0.544 0.417,0.183 0.835,0.364 1.253,0.548 0.528,0.23 1.057,0.461 1.584,0.691 0.437,0.194 0.877,0.387 1.315,0.579 0.511,0.226 1.022,0.451 1.533,0.675 0.404,0.179 0.808,0.36 1.211,0.537 0.547,0.245 1.094,0.485 1.64,0.728 0.413,0.185 0.826,0.37 1.24,0.555 0.53,0.237 1.06,0.474 1.591,0.712 0.429,0.194 0.857,0.389 1.287,0.583 0.519,0.236 1.038,0.47 1.557,0.708 0.413,0.186 0.824,0.377 1.236,0.565 0.532,0.243 1.065,0.486 1.596,0.731 0.415,0.193 0.829,0.386 1.244,0.579 0.528,0.246 1.056,0.49 1.583,0.737 0.407,0.19 0.812,0.384 1.219,0.575 0.535,0.252 1.07,0.504 1.604,0.758 0.393,0.187 0.786,0.377 1.179,0.566 0.545,0.261 1.09,0.522 1.633,0.785 0.397,0.193 0.792,0.387 1.188,0.581 0.535,0.261 1.071,0.522 1.605,0.787 0.401,0.197 0.8,0.397 1.2,0.597 0.531,0.264 1.061,0.528 1.591,0.794 0.395,0.198 0.789,0.402 1.183,0.603 0.53,0.269 1.06,0.538 1.588,0.808 0.396,0.205 0.789,0.412 1.184,0.618 0.525,0.273 1.052,0.544 1.575,0.821 0.392,0.207 0.782,0.416 1.173,0.625 0.524,0.278 1.049,0.555 1.571,0.839 0.39,0.211 0.778,0.423 1.167,0.634 0.519,0.286 1.038,0.567 1.555,0.853 0.394,0.218 0.785,0.438 1.178,0.659 0.508,0.283 1.017,0.569 1.524,0.857 0.395,0.224 0.788,0.452 1.181,0.678 0.503,0.289 1.005,0.577 1.505,0.867 0.394,0.232 0.786,0.465 1.179,0.7 0.494,0.291 0.989,0.584 1.48,0.879 0.396,0.236 0.789,0.478 1.182,0.716 0.487,0.297 0.974,0.593 1.457,0.892 0.397,0.246 0.79,0.495 1.184,0.742 0.477,0.299 0.954,0.598 1.427,0.9 0.397,0.254 0.792,0.509 1.186,0.766 0.469,0.304 0.938,0.607 1.404,0.913 0.396,0.261 0.789,0.526 1.183,0.789 0.459,0.308 0.918,0.614 1.374,0.924 0.397,0.27 0.79,0.544 1.185,0.817 0.45,0.311 0.901,0.623 1.347,0.937 0.395,0.277 0.785,0.559 1.176,0.838 0.443,0.316 0.886,0.633 1.324,0.953 0.396,0.288 0.787,0.58 1.179,0.87 0.431,0.319 0.863,0.639 1.289,0.961 0.394,0.298 0.785,0.601 1.177,0.901 0.421,0.324 0.842,0.647 1.26,0.975 0.392,0.307 0.78,0.617 1.17,0.929 0.411,0.328 0.823,0.656 1.232,0.989 0.39,0.319 0.774,0.639 1.162,0.96 0.402,0.333 0.805,0.666 1.204,1.004 0.387,0.327 0.771,0.658 1.155,0.99 0.282,0.243 0.567,0.482 0.847,0.727 6.045,-9.665 9.608,-18.637 10.623,-22.598 -8.387,-4.438 -51.796,-31.429 -55.835,-33.942 -0.906,0.125 -3.892,0.487 -8.116,0.487 M 2.621,19.001 2.45,20.208 1.281,20.553 C -38.19,32.173 -101.8,64.148 -106.426,66.484 l -1.587,1.573 -28.689,41.744 -8.52,-4.888 -42.112,41.713 -54.138,-55.198 0.242,-0.244 -1.494,-18.68 c 0,0 4.047,-2.753 9.967,-7.763 -41.415,-19.803 -102.997,-59.026 -164.025,-104.656 -71.753,-53.648 -132.275,-108.159 -166.049,-149.56 l -0.526,-0.643 -0.333,-0.762 c -3.515,-8.063 -0.548,-20.434 7.935,-33.386 10.291,-15.709 29.819,-32.318 53.77,-32.318 h 0.005 c 0.525,0 1.057,-0.17 1.585,-0.154 l 1.249,-0.056 1.132,0.489 c 13.145,6.153 21.894,23.196 34.003,46.814 25.59,49.908 64.26,125.32 180.08,185.527 8.346,4.435 17.776,5.361 24.218,5.361 4.388,0 7.32,-0.447 7.336,-0.449 l 2.229,-0.352 1.917,1.191 c 12.858,8.003 46.052,28.531 54.689,33.326 7.908,-17.763 10.849,-38.55 1.558,-60.747 1.246,-1.746 13.939,-29.46 22.46,-48.177 l 6.791,-20.177 1.166,0.09 c 9.542,-1.288 19.015,-1.686 28.16,-1.686 h 0.01 c 45.557,0 84.555,15.758 109.803,44.826 21.598,24.867 30.907,56.58 26.215,89.759"
             style="fill:#000000;fill-opacity:1;fill-rule:nonzero;stroke:none"
             id="path158" />
        </g>
      </g>
    </g>
  </g>
</svg>
