<?xml version="1.0" encoding="UTF-8" standalone="no"?>
<!-- Created with Inkscape (http://www.inkscape.org/) -->

<svg
   version="1.1"
   id="svg2"
   width="800"
   height="800"
   viewBox="0 0 800 800"
   sodipodi:docname="bald-head-publicdomainvectors.org.svg"
   inkscape:version="1.2 (dc2aedaf03, 2022-05-15)"
   xmlns:inkscape="http://www.inkscape.org/namespaces/inkscape"
   xmlns:sodipodi="http://sodipodi.sourceforge.net/DTD/sodipodi-0.dtd"
   xmlns="http://www.w3.org/2000/svg"
   xmlns:svg="http://www.w3.org/2000/svg">
  <defs
     id="defs6">
    <clipPath
       clipPathUnits="userSpaceOnUse"
       id="clipPath18">
      <path
         d="M 0,600 H 600 V 0 H 0 Z"
         id="path16" />
    </clipPath>
  </defs>
  <sodipodi:namedview
     id="namedview4"
     pagecolor="#ffffff"
     bordercolor="#000000"
     borderopacity="0.25"
     inkscape:showpageshadow="2"
     inkscape:pageopacity="0.0"
     inkscape:pagecheckerboard="0"
     inkscape:deskcolor="#d1d1d1"
     showgrid="false"
     inkscape:zoom="1.04625"
     inkscape:cx="400"
     inkscape:cy="400.4779"
     inkscape:window-width="1920"
     inkscape:window-height="1017"
     inkscape:window-x="-8"
     inkscape:window-y="-8"
     inkscape:window-maximized="1"
     inkscape:current-layer="g10">
    <inkscape:page
       x="0"
       y="0"
       id="page8"
       width="800"
       height="800" />
  </sodipodi:namedview>
  <g
     id="g10"
     inkscape:groupmode="layer"
     inkscape:label="Page 1"
     transform="matrix(1.3333333,0,0,-1.3333333,0,800)">
    <g
       id="g12">
      <g
         id="g14"
         clip-path="url(#clipPath18)">
        <g
           id="g20"
           transform="translate(233.0332,151.5762)">
          <path
             d="m 0,0 c -0.663,2.158 -1.309,4.159 -2.057,6.195 l -2.102,6.073 c -1.359,4.053 -2.693,8.124 -3.861,12.242 -0.114,0.4 -0.223,0.801 -0.335,1.202 -3.861,3.682 -12.497,10.117 -18.805,14.826 4.83,-19.799 9.723,-55.143 9.87,-62.55 0.067,-3.411 11.349,-11.845 19.585,-18.004 6.769,-5.062 13.225,-9.876 18.625,-15.021 -0.913,1.952 -1.854,3.891 -2.837,5.807 -2.344,4.599 -4.948,9.072 -7.976,13.247 -1.513,2.085 -3.151,4.085 -4.968,5.917 -1.806,1.843 -3.819,3.5 -6.09,4.803 4.346,-1.776 8.015,-4.905 11.248,-8.331 C 6.805,-21.128 3.96,-9.311 0.543,3.08 0.471,2.049 0.229,0.99 0,0"
             style="fill:#b18a73;fill-opacity:1;fill-rule:nonzero;stroke:none"
             id="path22" />
        </g>
        <g
           id="g24"
           transform="translate(184.9932,231.3828)">
          <path
             d="M 0,0 C 1.257,5.656 6.928,8.364 12.707,7.919 8.615,12.33 5.952,17.071 5.882,21.761 5.855,23.555 6.007,25.198 6.3,26.712 0.614,35.163 -5.726,49.336 -1,59.083 -5.766,64.989 -6.934,70.774 -3.067,79.869 l -0.012,-0.001 c 0.164,0.808 0.6,2.26 1.09,3.638 -0.987,6.251 -3.713,12.566 -5.021,17.146 h 0.002 c -27.018,76.666 -26.869,141.675 0.941,193.03 -3.881,-5.417 -7.243,-11.212 -10.01,-17.398 -18.127,-40.522 -20.214,-78.177 -18.773,-102.63 1.557,-26.396 7.657,-45.711 9.702,-49.76 7.336,-14.52 12.825,-58.749 16.788,-95.657 C -8.168,26.443 -8,24.872 -7.855,23.561 -7.777,22.846 -7.7,22.089 -7.62,21.292 -6.943,14.58 -5.957,4.972 -0.467,-6.655 -0.635,-4.48 -0.498,-2.242 0,0"
             style="fill:#b18a73;fill-opacity:1;fill-rule:nonzero;stroke:none"
             id="path26" />
        </g>
        <g
           id="g28"
           transform="translate(363.7012,148.6563)">
          <path
             d="M 0,0 C -0.095,-0.244 -0.239,-0.517 -0.44,-0.779 -0.53,-0.909 -0.662,-1.04 -0.782,-1.161 L -0.939,-1.316 -1.463,-1.837 -2.506,-2.898 -4.595,-5.049 C -5.98,-6.498 -7.352,-7.972 -8.717,-9.454 l -8.169,-8.957 c -2.725,-2.992 -5.469,-5.976 -8.249,-8.943 -2.785,-2.982 -5.559,-5.911 -8.612,-8.842 -0.802,-0.747 -1.513,-1.446 -2.627,-2.291 -0.758,-0.545 -1.249,-0.79 -1.833,-1.116 -0.561,-0.28 -1.127,-0.556 -1.682,-0.779 -2.234,-0.934 -4.419,-1.498 -6.61,-1.927 -4.375,-0.808 -8.724,-1.035 -13.065,-0.782 -4.338,0.232 -8.665,0.966 -12.915,2.273 -4.22,1.349 -8.441,3.281 -12.091,6.385 -5.94,4.968 -12.621,9.589 -19.144,14.382 -3.283,2.393 -6.558,4.819 -9.785,7.422 -1.605,1.33 -3.194,2.656 -4.76,4.238 -0.783,0.831 -1.556,1.563 -2.352,2.982 -0.22,0.392 -0.307,0.687 -0.43,1.018 -0.102,0.332 -0.199,0.664 -0.264,1.001 -0.133,0.67 -0.196,1.346 -0.179,1.985 0.074,2.577 0.916,4.599 1.666,6.548 0.794,1.937 1.625,3.791 2.493,5.63 1.737,3.671 3.423,7.345 5.104,11.066 -0.344,-2.013 -0.787,-4.003 -1.231,-5.997 -0.476,-1.984 -0.984,-3.962 -1.495,-5.932 -0.509,-1.968 -1.084,-3.913 -1.524,-5.832 -0.447,-1.898 -0.765,-3.835 -0.59,-5.327 0.037,-0.374 0.125,-0.706 0.232,-1.018 0.05,-0.157 0.122,-0.302 0.186,-0.449 0.077,-0.133 0.162,-0.317 0.218,-0.351 0.239,-0.329 0.952,-1.017 1.638,-1.565 1.417,-1.161 3.066,-2.275 4.707,-3.362 3.297,-2.195 6.734,-4.302 10.156,-6.452 3.427,-2.145 6.878,-4.293 10.294,-6.548 3.428,-2.242 6.825,-4.566 10.168,-7.187 2.659,-2.005 5.95,-3.492 9.455,-4.5 3.503,-1.039 7.226,-1.61 10.965,-1.883 3.739,-0.229 7.538,-0.168 11.148,0.381 1.79,0.276 3.575,0.628 5.109,1.186 0.394,0.131 0.745,0.285 1.1,0.433 0.311,0.147 0.729,0.355 0.795,0.401 0.524,0.346 1.317,1.011 2.019,1.616 2.919,2.539 5.841,5.37 8.774,8.12 l 8.811,8.353 c 2.939,2.794 5.94,5.535 8.966,8.264 1.513,1.365 3.037,2.722 4.584,4.064 l 2.347,1.998 1.213,0.971 0.615,0.481 0.075,0.058 c 0.028,0.121 0.053,0.28 0.058,0.447 0.018,0.376 -0.003,0.811 -0.052,1.259 -0.097,0.902 -0.283,1.854 -0.502,2.806 -0.454,1.907 -1.007,3.84 -1.576,5.775 -1.142,3.867 -2.517,7.722 -3.392,11.711 0.832,-1.856 1.763,-3.652 2.698,-5.456 C -5.32,16.5 -4.414,14.681 -3.52,12.843 -2.622,11.004 -1.759,9.141 -1.025,7.175 -0.656,6.19 -0.312,5.186 -0.04,4.097 0.094,3.55 0.207,2.979 0.268,2.344 0.306,1.698 0.37,1.001 0,0 m -35.676,-69.294 c -3.279,-2.82 -7.966,-5.131 -10.565,-5.319 -7.535,-0.545 -19.5,-1.051 -26.663,3.189 -3.385,2.004 -9.355,7.914 -11.196,11.563 -1.609,3.194 -0.63,4.408 2.87,3.664 15.816,-3.365 33.342,-6.271 49.852,0.239 6.054,2.388 1.723,-8.159 -4.298,-13.336 m -66.402,103.45 c 1.277,1.597 2.691,3.083 4.178,4.484 1.489,1.395 3.036,2.732 4.625,4.015 1.05,0.845 2.009,1.661 3.304,2.375 0.235,0.16 0.471,0.314 0.741,0.423 0.489,0.267 1.019,0.447 1.559,0.577 0.013,0.005 0.024,0.01 0.039,0.014 l -0.005,-0.006 c 0.375,0.088 0.756,0.157 1.133,0.197 1.885,0.134 3.699,-0.399 5.195,-1.307 1.493,-0.914 2.804,-2.133 3.61,-3.632 -1.039,1.336 -2.489,2.268 -3.989,2.873 -1.49,0.635 -3.13,0.842 -4.591,0.525 -1.43,-0.347 -2.765,-1.228 -3.586,-2.353 -0.844,-1.201 -1.427,-2.702 -1.835,-4.23 -0.85,-3.052 -1.146,-6.325 -0.814,-9.399 0.199,-1.523 0.526,-3.004 1.096,-4.254 0.165,-0.29 0.302,-0.604 0.473,-0.877 l 0.556,-0.745 0.746,-0.753 0.853,-0.729 c 4.897,-3.807 11.431,-6.778 16.46,-12.414 1.232,-1.439 2.337,-3.058 3.148,-4.881 l 0.432,-0.857 c 0.162,-0.215 0.279,-0.454 0.478,-0.653 0.34,-0.43 0.806,-0.804 1.313,-1.154 2.098,-1.397 5.17,-2.002 8.162,-2.067 3,-0.075 6.181,0.324 8.774,1.369 0.625,0.264 1.232,0.56 1.675,0.882 0.45,0.313 0.722,0.654 0.761,0.75 l 0.63,1.299 c 0.232,0.445 0.474,0.821 0.712,1.234 0.474,0.81 0.99,1.521 1.504,2.256 2.082,2.853 4.3,5.476 6.609,8.034 2.316,2.557 4.704,5.01 7.405,7.297 l 1.03,0.855 1.116,0.831 c 0.368,0.276 0.858,0.549 1.284,0.814 0.215,0.134 0.631,0.289 0.946,0.408 l 0.465,0.163 c 0.011,0.014 0.023,0.022 0.036,0.024 0.13,0.018 0.624,0.335 0.959,0.868 0.373,0.486 0.687,1.118 0.963,1.764 1.062,2.68 0.985,5.892 -0.011,8.776 -0.546,1.43 -1.239,2.848 -2.22,4.099 -0.452,0.683 -0.92,1.069 -1.528,1.51 -0.632,0.351 -1.311,0.699 -2.071,0.865 -1.499,0.399 -3.158,0.397 -4.728,0.027 -0.791,-0.167 -1.567,-0.448 -2.249,-0.885 -0.676,-0.426 -1.311,-1.037 -1.49,-1.884 0.031,0.867 0.582,1.648 1.229,2.222 0.652,0.594 1.432,1.035 2.25,1.361 1.642,0.647 3.445,0.912 5.266,0.701 0.914,-0.073 1.823,-0.356 2.703,-0.741 0.414,-0.246 0.864,-0.455 1.242,-0.777 0.17,-0.137 0.336,-0.28 0.495,-0.423 l 0.005,-10e-4 c 1.155,-1.049 1.004,-0.836 1.63,-1.469 1.442,-1.16 2.94,-2.286 4.429,-3.437 1.487,-1.153 2.978,-2.322 4.363,-3.624 1.346,-1.298 2.733,-2.773 3.192,-4.623 -0.689,1.767 -2.181,2.981 -3.645,4.081 -1.498,1.09 -3.095,2.046 -4.704,2.996 -0.509,0.301 -1.024,0.601 -1.537,0.9 1.469,-3.309 1.952,-7.156 0.893,-10.849 -0.208,-0.649 -0.441,-1.3 -0.757,-1.939 0.124,-4.746 -3.775,-11.099 -6.507,-13.223 -10.809,-8.406 -10.467,-15.931 -16.084,-23.848 -8.904,-12.551 -22.988,-7.863 -28.593,3.501 -7.771,15.752 -26.233,20.821 -22.92,31.732 -0.616,1.761 -0.866,3.524 -0.918,5.247 -0.047,3.661 0.591,7.19 1.88,10.533 0.083,0.205 0.176,0.408 0.265,0.612 -0.995,-0.666 -1.979,-1.348 -2.944,-2.058 -1.602,-1.191 -3.137,-2.468 -4.556,-3.87 -1.399,-1.402 -2.725,-2.969 -3.328,-4.912 0.37,2.006 1.543,3.792 2.798,5.38 M 62.876,93.463 C 58.33,97.36 52.607,97.71 47.131,96.438 39.57,87.582 29.51,79.301 21.546,75.139 6.749,67.406 -29.939,79.571 -40.766,89.551 l -0.149,-4.247 -0.306,-7.129 -0.204,-3.597 c -0.028,-0.324 -0.034,-0.583 -0.082,-0.959 -0.047,-0.408 -0.124,-0.732 -0.197,-1.068 -0.161,-0.636 -0.337,-1.238 -0.526,-1.821 -1.537,-4.613 -3.308,-8.953 -4.795,-13.446 -0.747,-2.237 -1.444,-4.491 -1.976,-6.782 -0.261,-1.146 -0.483,-2.301 -0.606,-3.469 -0.117,-1.165 -0.154,-2.355 0.138,-3.51 -0.423,1.115 -0.526,2.334 -0.544,3.528 -0.01,1.199 0.081,2.397 0.213,3.588 0.275,2.379 0.718,4.734 1.211,7.07 0.975,4.663 2.269,9.303 3.222,13.837 0.116,0.564 0.208,1.116 0.278,1.642 0.024,0.248 0.053,0.507 0.047,0.691 l -0.002,0.816 -0.088,3.512 -0.275,7.089 -2.19,12.709 c -0.505,0.849 -0.915,1.636 -1.241,2.352 -2.746,2.633 -5.214,5.275 -6.882,6.612 -1.935,1.552 -4.352,4.536 -5.721,6.248 -0.088,-0.14 -0.176,-0.278 -0.263,-0.413 -1.15,-1.655 -6.126,-9.277 -9.15,-13.362 -0.854,-4.593 -2.3,-10.65 -2.565,-14.063 -0.17,-2.201 -0.319,-4.402 -0.418,-6.593 -0.05,-1.095 -0.083,-2.187 -0.087,-3.263 0.002,-1.052 0.015,-2.201 0.19,-2.951 1.212,-4.212 2.483,-8.579 3.349,-12.957 0.899,-4.384 1.473,-8.838 1.56,-13.283 -0.545,4.414 -1.566,8.731 -2.891,12.941 -1.307,4.236 -2.948,8.269 -4.634,12.448 -0.466,1.381 -0.535,2.478 -0.681,3.633 -0.121,1.141 -0.209,2.269 -0.282,3.394 -0.143,2.249 -0.234,4.487 -0.307,6.724 -0.028,0.914 -0.041,1.825 -0.064,2.737 -9.643,-5.975 -35.851,-18.413 -47.107,-18.43 -9.784,-0.015 -30.457,9.277 -41.21,20.867 -5.779,0.444 -11.45,-2.263 -12.707,-7.919 -0.498,-2.242 -0.635,-4.481 -0.467,-6.656 1.033,-2.188 2.209,-4.441 3.591,-6.768 1.866,-3.142 11.73,-10.569 19.656,-16.537 6.041,-4.549 10.412,-7.77 13.552,-10.389 -0.683,3.423 -1.23,6.889 -1.649,10.447 0.722,-0.863 1.314,-1.818 1.896,-2.758 0.588,-0.941 1.121,-1.906 1.64,-2.873 1.035,-1.939 1.967,-3.915 2.837,-5.915 1.722,-4.005 3.192,-8.099 4.394,-12.282 1.197,-4.184 2.179,-8.437 2.76,-12.799 0.275,-2.184 0.499,-4.377 0.514,-6.61 0.032,-1.104 -0.019,-2.235 -0.12,-3.352 -0.003,-0.078 -0.016,-0.157 -0.021,-0.235 3.417,-12.391 6.262,-24.208 9.754,-36.674 0.4,-0.424 0.797,-0.85 1.183,-1.282 3.536,-3.954 6.525,-8.343 9.329,-12.818 5.484,-9.036 10.015,-18.599 13.916,-28.381 1.968,-4.887 3.808,-9.825 5.45,-14.828 l 1.225,-3.754 c 0.424,-1.336 0.733,-2.314 1.213,-3.257 0.95,-1.883 2.137,-2.961 3.987,-3.586 1.853,-0.622 4.255,-0.81 6.716,-0.829 2.475,-0.018 5.049,0.11 7.644,0.235 2.476,0.126 4.974,0.254 7.481,0.355 1.7,4.773 6.879,12.742 6.879,12.742 4.736,0.536 8.417,-8.122 10.441,-12.77 2.299,-0.106 4.594,-0.249 6.887,-0.452 2.643,-0.23 5.281,-0.514 7.911,-0.851 2.042,-0.231 3.446,0.088 4.764,1.305 1.339,1.227 2.45,3.333 3.352,5.561 0.91,2.247 1.651,4.684 2.36,7.147 1.381,4.951 2.736,10.034 4.242,15.083 2.963,10.117 6.871,20.086 12.138,29.278 2.556,4.421 5.419,8.655 8.562,12.65 C 8.017,-18.109 8.113,-6.439 8.116,5.253 7.744,4.607 7.377,3.96 6.975,3.322 c 0.032,4.293 0.621,8.426 1.38,12.509 0.782,4.076 1.783,8.09 2.982,12.045 0.904,2.99 1.923,5.948 3.064,8.867 v 0.002 c 0,0 10e-4,0 10e-4,0.001 0.368,0.942 0.748,1.878 1.143,2.811 1.641,3.817 3.463,7.595 5.891,11.137 -0.125,-2.57 -0.419,-5.07 -0.8,-7.541 2.557,2.088 5.53,4.084 9.346,6.652 11.589,7.797 25.644,17.258 37.163,35.349 -0.28,3.341 -1.433,6.284 -4.269,8.309"
             style="fill:#cca58e;fill-opacity:1;fill-rule:nonzero;stroke:none"
             id="path30" />
        </g>
        <g
           id="g32"
           transform="translate(449.1211,471.0757)">
          <path
             d="M 0,0 C -4.385,19.126 -16.459,42.65 -36.706,62.62 -15.87,30.937 -5.101,-8.63 -4.655,-55.439 c 0.397,-41.76 -8.538,-82.859 -12.371,-97.191 1.341,-13.138 -4.15,-18.642 -6.439,-20.906 4.363,-9.834 6.65,-26.778 -4.407,-35.028 -1.451,-5.363 -5.38,-11.518 -10.417,-17.418 5.476,1.273 11.199,0.922 15.745,-2.974 2.836,-2.025 3.989,-4.969 4.271,-8.31 1.707,2.683 3.36,5.551 4.94,8.636 4.117,8.036 3.666,37.574 3.368,57.12 -0.244,16.025 -0.322,24.555 0.757,28.177 C -5.238,-130.003 13.858,-60.451 0,0"
             style="fill:#b18a73;fill-opacity:1;fill-rule:nonzero;stroke:none"
             id="path34" />
        </g>
        <g
           id="g36"
           transform="translate(380.0957,131.4629)">
          <path
             d="m 0,0 c -6.765,-7.98 -12.506,-16.698 -16.928,-26.014 -0.89,-1.844 -1.714,-3.715 -2.502,-5.599 4.338,4.98 9.402,9.734 14.493,14.525 9.269,8.725 18.024,16.964 19.508,23.709 1.215,5.518 1.614,13.006 2.075,21.678 0.549,10.308 0.599,19.705 2.625,32.169 -0.297,-0.199 -0.594,-0.4 -0.887,-0.597 C 12.69,56.04 4.958,49.542 0.834,45.102 0.674,44.546 0.52,43.988 0.352,43.435 -0.835,39.486 -2.205,35.592 -3.778,31.756 -5.092,28.6 -6.534,25.479 -8.278,22.446 -8.281,10.754 -8.378,-0.916 -11.085,-11.933 -7.713,-7.646 -4.017,-3.638 0,0"
             style="fill:#b18a73;fill-opacity:1;fill-rule:nonzero;stroke:none"
             id="path38" />
        </g>
        <g
           id="g40"
           transform="translate(162.9634,301.4912)">
          <path
             d="m 0,0 c -0.159,0.182 -0.323,0.367 -0.493,0.561 -1.463,1.657 -3.284,3.72 -5.536,7.057 -1.118,1.657 -1.788,3.482 -2.136,5.373 -0.001,0.002 -0.002,0.004 -0.004,0.006 -7.512,7.728 -14.79,29.026 -14.604,39.86 -7.209,9.05 -15.022,16.693 -19.525,18.998 3.719,-5.387 8.131,-12.673 8.594,-24.034 0.364,-8.932 2.544,-16.029 5.385,-22.343 1.991,-2.395 4.425,-4.878 6.923,-7.426 6.09,-6.209 12.388,-12.628 14.119,-19.548 1.601,-6.397 0.194,-11.889 -1.168,-17.2 -0.805,-3.143 -1.619,-6.346 -1.843,-9.817 1.277,-12.683 3.341,-15.567 15.572,-15.717 -0.051,0.463 -0.102,0.942 -0.156,1.442 C 4.108,-33.281 2.33,-16.73 0,0"
             style="fill:#976e57;fill-opacity:1;fill-rule:nonzero;stroke:none"
             id="path42" />
        </g>
        <g
           id="g44"
           transform="translate(151.7886,283.5283)">
          <path
             d="m 0,0 c 1.329,5.187 2.58,10.091 1.156,15.78 -1.545,6.175 -7.569,12.317 -13.394,18.256 -0.059,0.06 -0.117,0.118 -0.176,0.178 0.411,-0.735 0.822,-1.469 1.233,-2.2 C -6.265,23.27 -1.182,14.227 -0.131,1.61 -0.085,1.061 -0.043,0.531 0,0"
             style="fill:#976e57;fill-opacity:1;fill-rule:nonzero;stroke:none"
             id="path46" />
        </g>
        <g
           id="g48"
           transform="translate(360.1299,150.2246)">
          <path
             d="M 0,0 C 0.015,-0.031 0.047,0.038 0.078,0.159 0.071,0.149 0.06,0.136 0.054,0.129 0.011,0.064 -0.001,0.011 0,0"
             style="fill:#c0935c;fill-opacity:1;fill-rule:nonzero;stroke:none"
             id="path50" />
        </g>
        <g
           id="g52"
           transform="translate(456.9766,281.917)">
          <path
             d="m 0,0 c -0.733,-4.982 0.861,-9.594 2.684,-14.046 -0.001,0.025 -0.001,0.048 -0.001,0.073 -0.203,12.658 3.962,22.158 7.99,31.347 0.337,0.768 0.674,1.539 1.01,2.312 C 11.63,19.621 11.577,19.556 11.524,19.49 6.314,13.004 0.928,6.297 0,0"
             style="fill:#976e57;fill-opacity:1;fill-rule:nonzero;stroke:none"
             id="path54" />
        </g>
        <g
           id="g56"
           transform="translate(475.6035,334.0186)">
          <path
             d="M 0,0 C -0.663,11.349 3.007,19.034 6.176,24.763 1.916,22.017 -5.123,13.608 -11.411,3.865 c 0.893,-11.162 -6.936,-35.965 -10.515,-38.85 -0.001,10e-4 -0.002,0.002 -0.003,0.002 0.11,-2.67 -0.326,-5.331 -1.636,-7.76 -1.589,-2.944 -2.964,-4.977 -4.126,-6.611 0.102,-20.418 -0.526,-36.428 -3.785,-44.582 13.428,1.457 15.513,4.647 15.597,20.014 -0.561,1.614 -1.237,3.24 -1.928,4.891 -2.243,5.364 -4.563,10.91 -3.616,17.342 1.039,7.056 6.671,14.067 12.116,20.848 2.237,2.783 4.414,5.496 6.159,8.075 C -0.945,-16.202 0.522,-8.925 0,0"
             style="fill:#976e57;fill-opacity:1;fill-rule:nonzero;stroke:none"
             id="path58" />
        </g>
        <g
           id="g60"
           transform="translate(183.1938,329.9746)">
          <path
             d="m 0,0 -0.001,-0.002 c 1.129,-2.467 2.301,-5.869 3.187,-9.709 0.209,0.194 0.419,0.385 0.632,0.568 1.884,1.59 3.936,2.78 6.051,3.743 4.245,1.888 8.772,2.842 13.305,2.996 4.536,0.16 9.068,-0.561 13.32,-2.055 4.265,-1.568 7.996,-3.803 11.666,-6.08 7.295,-4.609 14.157,-9.695 21.282,-14.378 3.561,-2.335 7.177,-4.597 10.989,-6.475 1.908,-0.924 3.869,-1.76 5.917,-2.311 2.03,-0.532 4.23,-0.822 6.273,-0.112 -2.002,-0.827 -4.265,-0.662 -6.354,-0.234 -2.112,0.445 -4.146,1.182 -6.131,2.011 -3.961,1.686 -7.731,3.766 -11.441,5.913 -7.414,4.305 -14.576,9.019 -21.983,13.14 -3.694,2.028 -7.481,3.983 -11.328,5.151 C 31.505,-6.707 27.417,-6.287 23.42,-6.65 19.426,-7 15.493,-8.078 12.014,-9.865 10.287,-10.767 8.673,-11.847 7.355,-13.094 6.073,-14.297 4.692,-16.742 3.767,-18.057 -0.361,-26.431 0.69,-30.803 3.739,-35.032 c 1.797,1.877 3.996,3.212 6.228,4.08 4.614,1.772 9.304,2.051 13.826,1.934 4.537,-0.156 8.975,-0.799 13.335,-1.74 l 0.817,-0.181 c 0.263,-0.06 0.541,-0.124 0.885,-0.217 0.627,-0.181 1.188,-0.394 1.733,-0.616 1.08,-0.454 2.089,-0.951 3.083,-1.461 1.982,-1.026 3.895,-2.108 5.799,-3.194 7.594,-4.357 15.074,-8.807 22.957,-12.477 3.939,-1.818 7.973,-3.466 12.174,-4.545 2.097,-0.534 4.242,-0.909 6.408,-0.981 2.157,-0.055 4.369,0.222 6.349,1.168 -1.925,-1.054 -4.155,-1.465 -6.349,-1.526 -2.204,-0.05 -4.406,0.213 -6.567,0.639 -4.324,0.861 -8.501,2.308 -12.584,3.925 -8.162,3.27 -15.96,7.349 -23.746,11.266 -1.945,0.974 -3.893,1.938 -5.843,2.813 -0.973,0.436 -1.952,0.85 -2.907,1.189 -0.976,0.359 -1.742,0.495 -2.88,0.675 -4.22,0.68 -8.493,1.066 -12.693,0.988 -4.175,-0.095 -8.375,-0.651 -11.868,-2.233 -1.738,-0.785 -3.233,-1.855 -4.33,-3.165 -1.09,-1.314 -3.05,-5.089 -3.404,-9.361 0.037,-6.185 2.76,-13.246 5.796,-18.619 4.7,8.373 15.982,9.983 27.209,6.713 11.293,-3.292 45,-15.798 62.103,-17.91 0.083,0.03 0.168,0.057 0.251,0.088 2.098,0.792 4.172,1.762 6.189,2.849 2.018,1.089 3.984,2.296 5.848,3.626 1.852,1.331 3.65,2.787 5.061,4.432 0.679,0.813 1.281,1.714 1.369,2.45 l 0.368,3.524 0.669,7.085 1.267,14.187 0.085,-14.247 0.006,-7.129 -0.027,-3.03 c 2.5,-2.421 12.087,-11.387 20.785,-15.575 12.374,-0.321 30.696,6.804 39.846,10.623 11.591,4.838 49.138,17.84 56.401,9.687 4.281,6.707 3.706,15.915 2.152,21.918 -3.165,2.535 -7.837,4.687 -10.95,5.612 -3.398,1.006 -6.957,1.462 -10.543,1.522 -3.589,0.051 -7.214,-0.346 -10.798,-1.084 -3.582,-0.763 -7.119,-1.852 -10.597,-3.146 -6.97,-2.583 -13.664,-6.019 -20.402,-9.404 -3.378,-1.678 -6.779,-3.358 -10.34,-4.681 -1.774,-0.667 -3.611,-1.216 -5.497,-1.477 -1.868,-0.267 -3.864,-0.223 -5.578,0.62 1.763,-0.73 3.71,-0.645 5.519,-0.271 1.826,0.37 3.588,1.017 5.292,1.784 3.418,1.517 6.677,3.389 9.933,5.269 6.498,3.787 13.011,7.673 20.004,10.778 3.492,1.552 7.095,2.919 10.831,3.961 3.739,1.018 7.612,1.698 11.551,1.89 3.934,0.184 7.943,-0.075 11.841,-0.968 3.094,-0.708 6.099,-1.763 8.995,-3.063 0.188,0.201 0.388,0.405 0.608,0.623 1.861,1.841 5.712,5.675 5.386,15.008 -1.028,1.8 -3.619,6.362 -5.037,7.081 -1.603,0.824 -3.426,1.451 -5.31,1.931 -3.784,0.954 -7.811,1.366 -11.837,1.444 -4.033,0.072 -8.097,-0.209 -12.1,-0.842 -3.999,-0.641 -7.957,-1.625 -11.685,-3.136 -1.864,-0.752 -3.659,-1.653 -5.328,-2.727 -0.831,-0.541 -1.627,-1.129 -2.372,-1.77 -0.721,-0.619 -1.461,-1.384 -2.229,-2.109 -3.05,-2.897 -6.283,-5.593 -9.702,-8.027 -3.424,-2.422 -7.028,-4.619 -10.891,-6.271 -1.93,-0.818 -3.933,-1.496 -6.007,-1.851 -2.047,-0.332 -4.284,-0.354 -6.135,0.663 1.904,-0.909 4.081,-0.755 6.069,-0.323 2.011,0.46 3.936,1.234 5.785,2.142 3.697,1.832 7.117,4.184 10.344,6.747 3.221,2.575 6.242,5.395 9.063,8.39 0.705,0.742 1.369,1.516 2.179,2.302 0.79,0.763 1.633,1.464 2.51,2.11 1.76,1.28 3.641,2.36 5.585,3.278 3.89,1.843 7.997,3.112 12.163,4.027 4.171,0.908 8.418,1.45 12.701,1.62 4.284,0.159 8.61,-0.018 12.958,-0.846 2.172,-0.426 4.354,-1.016 6.514,-1.971 1.162,-0.524 2.352,-1.164 3.469,-2.015 6.886,25.582 33.749,143.5 -31.175,221.12 -22.699,17.029 -52.842,29.259 -90.859,29.913 C 76.792,247.258 38.391,235.498 12.504,213.334 -27.944,159.555 -32.149,88.105 0,0"
             style="fill:#cca58e;fill-opacity:1;fill-rule:nonzero;stroke:none"
             id="path62" />
        </g>
        <g
           id="g64"
           transform="translate(330.8779,290.5127)">
          <path
             d="m 0,0 -52.925,2.198 c 0,0 -9.122,32.344 -10.303,35.258 -2.511,6.195 -5.296,8.893 -8.261,10.945 -4.178,2.894 -23.595,9.864 -30.242,12.309 l -0.381,0.139 c -6.846,2.403 -13.963,3.623 -21.155,3.623 -0.735,0 -1.472,-0.014 -2.208,-0.039 -0.598,-0.02 -1.194,-0.049 -1.789,-0.084 -10.945,34.205 -15.667,65.443 -14.047,93.048 1.72,29.312 10.295,54.354 26.193,76.449 20.305,16.193 50.139,24.733 86.534,24.733 1.293,0 2.6,-0.011 3.907,-0.033 27.572,-0.473 51.891,-8.065 72.325,-22.57 C 89.583,183.31 84.037,107.901 76.865,67.175 75.862,67.167 74.861,67.144 73.862,67.106 67.933,66.871 62.068,66.123 56.355,64.881 49.668,63.413 43.778,61.442 38.295,58.847 34.722,57.158 31.359,55.175 28.312,52.958 l -0.134,-0.1 C 26.279,51.461 24.493,49.955 22.871,48.385 21.73,47.276 20.852,46.319 20.27,45.686 L 19.872,45.254 C 17.785,43.04 0,0 0,0"
             style="fill:#d8b6a2;fill-opacity:1;fill-rule:nonzero;stroke:none"
             id="path66" />
        </g>
        <g
           id="g68"
           transform="translate(118.355,376.8457)">
          <path
             d="m 0,0 c 8.094,0.647 32.776,-28.297 39.299,-45.701 0.089,0.207 0.179,0.414 0.266,0.613 -1.775,8.553 -3.703,15.61 -5.741,19.646 -1.277,2.526 -3.372,8.362 -5.388,16.811 C 23.46,-0.103 11.263,9.664 3.296,10.776 0.034,11.23 -1.139,10.072 -1.739,9.162 -3.699,6.184 -2.974,4.203 -0.11,-0.018 -0.073,-0.013 -0.038,-0.002 0,0"
             style="fill:#976e57;fill-opacity:1;fill-rule:nonzero;stroke:none"
             id="path70" />
        </g>
        <g
           id="g72"
           transform="translate(449.5498,292.6172)">
          <path
             d="M 0,0 C 2.853,5.286 0.555,12.281 -1.936,17.306 -1.91,13.983 -1.856,10.461 -1.805,7.079 -1.753,3.661 -1.707,0.331 -1.676,-2.904 -1.145,-2.043 -0.589,-1.091 0,0"
             style="fill:#976e57;fill-opacity:1;fill-rule:nonzero;stroke:none"
             id="path74" />
        </g>
        <g
           id="g76"
           transform="translate(159.2773,310.6914)">
          <path
             d="M 0,0 C 1.079,-1.599 2.058,-2.895 2.943,-3.991 1.937,2.884 0.841,9.66 -0.331,15.875 -2.021,10.826 -3.042,4.506 0,0"
             style="fill:#976e57;fill-opacity:1;fill-rule:nonzero;stroke:none"
             id="path78" />
        </g>
        <g
           id="g80"
           transform="translate(484.5576,371.7813)">
          <path
             d="m 0,0 c -0.337,0.416 -1.367,1.681 -4.779,0.854 -7.695,-1.864 -19.283,-12.251 -25.142,-21.395 -2.67,-12.616 -5.273,-21.859 -6.49,-25.948 -0.373,-1.251 -0.516,-4.892 -0.544,-9.556 0.462,-0.728 0.991,-1.609 1.541,-2.603 4.771,17.96 26.501,49.185 34.588,49.361 0.039,0 0.074,-0.006 0.112,-0.006 C 1.718,-4.812 2.244,-2.769 0,0"
             style="fill:#976e57;fill-opacity:1;fill-rule:nonzero;stroke:none"
             id="path82" />
        </g>
        <g
           id="g84"
           transform="translate(328.0254,79.3623)">
          <path
             d="m 0,0 c -3.279,-2.82 -7.966,-5.131 -10.565,-5.319 -7.536,-0.545 -19.499,-1.051 -26.663,3.189 -3.385,2.004 -9.355,7.914 -11.195,11.563 -1.611,3.194 -0.632,4.408 2.868,3.664 C -29.738,9.732 -12.212,6.826 4.298,13.336 10.352,15.724 6.021,5.177 0,0 m -65.872,102.982 c -1.399,-1.402 -2.726,-2.969 -3.328,-4.912 0.369,2.006 1.543,3.792 2.798,5.38 1.277,1.597 2.691,3.083 4.175,4.484 1.493,1.395 3.039,2.732 4.627,4.015 1.052,0.845 2.011,1.661 3.305,2.375 0.232,0.16 0.471,0.314 0.74,0.423 0.491,0.267 1.019,0.447 1.559,0.577 0.014,0.005 0.025,0.01 0.039,0.014 l -0.003,-0.006 c 0.375,0.088 0.755,0.157 1.132,0.197 1.885,0.134 3.7,-0.399 5.196,-1.307 1.491,-0.914 2.803,-2.133 3.609,-3.632 -1.04,1.336 -2.489,2.268 -3.989,2.873 -1.49,0.635 -3.131,0.842 -4.591,0.525 -1.431,-0.347 -2.765,-1.228 -3.586,-2.353 -0.844,-1.201 -1.427,-2.702 -1.834,-4.23 -0.851,-3.053 -1.146,-6.325 -0.815,-9.399 0.199,-1.523 0.525,-3.004 1.096,-4.254 0.164,-0.29 0.303,-0.606 0.471,-0.877 l 0.559,-0.745 0.746,-0.753 0.852,-0.731 c 4.898,-3.805 11.43,-6.776 16.46,-12.412 1.232,-1.439 2.338,-3.058 3.148,-4.881 l 0.432,-0.857 c 0.162,-0.215 0.279,-0.454 0.478,-0.653 0.34,-0.43 0.806,-0.804 1.313,-1.156 2.097,-1.395 5.17,-2 8.162,-2.065 3,-0.075 6.181,0.324 8.773,1.369 0.626,0.264 1.233,0.56 1.676,0.882 0.449,0.313 0.722,0.654 0.761,0.75 l 0.63,1.299 c 0.232,0.445 0.473,0.821 0.712,1.234 0.475,0.81 0.99,1.521 1.504,2.256 2.082,2.853 4.3,5.476 6.609,8.034 2.315,2.557 4.704,5.01 7.405,7.297 l 1.03,0.855 1.116,0.831 c 0.368,0.276 0.858,0.549 1.284,0.814 0.215,0.134 0.631,0.289 0.946,0.408 l 0.465,0.161 c 0.011,0.016 0.023,0.024 0.036,0.026 0.13,0.018 0.624,0.335 0.959,0.868 0.373,0.486 0.687,1.118 0.963,1.764 1.062,2.68 0.984,5.892 -0.011,8.776 -0.548,1.43 -1.239,2.848 -2.22,4.099 -0.453,0.683 -0.92,1.069 -1.529,1.509 -0.633,0.352 -1.31,0.7 -2.07,0.866 -1.499,0.399 -3.158,0.397 -4.729,0.027 -0.791,-0.167 -1.566,-0.448 -2.25,-0.885 -0.674,-0.426 -1.309,-1.037 -1.488,-1.885 0.029,0.868 0.582,1.649 1.229,2.223 0.652,0.593 1.432,1.035 2.25,1.361 1.643,0.647 3.445,0.912 5.265,0.701 0.915,-0.075 1.823,-0.356 2.703,-0.742 0.415,-0.245 0.865,-0.454 1.243,-0.776 0.169,-0.14 0.336,-0.28 0.495,-0.423 l 0.005,-0.001 c 1.155,-1.05 1.004,-0.836 1.63,-1.469 1.442,-1.16 2.94,-2.286 4.429,-3.437 1.486,-1.153 2.978,-2.322 4.361,-3.624 1.348,-1.298 2.735,-2.773 3.194,-4.623 -0.691,1.767 -2.181,2.981 -3.646,4.081 -1.497,1.09 -3.094,2.046 -4.702,2.996 -0.511,0.301 -1.025,0.601 -1.538,0.9 1.469,-3.309 1.952,-7.156 0.893,-10.849 -0.208,-0.65 -0.441,-1.3 -0.757,-1.939 C 14.629,89.61 10.729,83.257 7.998,81.133 -2.813,72.727 -2.469,65.202 -8.086,57.285 -16.99,44.734 -31.074,49.422 -36.68,60.786 c -7.771,15.752 -26.232,20.818 -22.92,31.732 -0.615,1.761 -0.865,3.524 -0.918,5.247 -0.046,3.661 0.592,7.19 1.881,10.533 0.082,0.205 0.177,0.408 0.265,0.612 -0.995,-0.666 -1.98,-1.348 -2.944,-2.058 -1.602,-1.191 -3.138,-2.468 -4.556,-3.87 m 97.975,-32.12 c 0,0.011 0.012,0.065 0.055,0.129 0.006,0.007 0.018,0.021 0.025,0.029 -0.032,-0.12 -0.064,-0.189 -0.08,-0.158 m 3.533,2.529 c -0.272,1.087 -0.616,2.093 -0.986,3.078 -0.733,1.966 -1.596,3.829 -2.493,5.668 -0.895,1.838 -1.803,3.657 -2.733,5.461 -0.936,1.804 -1.866,3.6 -2.698,5.456 0.875,-3.991 2.25,-7.844 3.392,-11.711 0.568,-1.935 1.122,-3.868 1.575,-5.775 0.22,-0.952 0.406,-1.904 0.504,-2.806 0.048,-0.45 0.069,-0.883 0.051,-1.259 -0.005,-0.167 -0.03,-0.326 -0.059,-0.447 L 32.115,70.998 31.5,70.517 30.287,69.546 27.939,67.548 C 26.393,66.206 24.869,64.849 23.354,63.484 20.33,60.755 17.329,58.014 14.39,55.22 L 5.579,46.867 c -2.933,-2.75 -5.855,-5.581 -8.774,-8.12 -0.702,-0.605 -1.495,-1.27 -2.019,-1.616 -0.066,-0.046 -0.484,-0.254 -0.795,-0.402 -0.355,-0.147 -0.706,-0.301 -1.1,-0.432 -1.536,-0.558 -3.318,-0.91 -5.109,-1.186 -3.61,-0.55 -7.409,-0.61 -11.148,-0.382 -3.739,0.274 -7.462,0.845 -10.965,1.884 -3.504,1.008 -6.795,2.495 -9.456,4.5 -3.342,2.621 -6.738,4.945 -10.168,7.187 -3.415,2.255 -6.866,4.403 -10.294,6.548 -3.42,2.15 -6.858,4.255 -10.155,6.452 -1.641,1.087 -3.289,2.201 -4.707,3.362 -0.686,0.548 -1.399,1.236 -1.639,1.565 -0.055,0.034 -0.141,0.218 -0.217,0.351 -0.064,0.147 -0.137,0.292 -0.185,0.449 -0.108,0.312 -0.196,0.644 -0.233,1.018 -0.176,1.492 0.142,3.429 0.59,5.327 0.44,1.919 1.015,3.864 1.524,5.832 0.511,1.97 1.019,3.948 1.496,5.932 0.443,1.994 0.886,3.984 1.23,5.997 -1.682,-3.721 -3.367,-7.395 -5.103,-11.066 -0.87,-1.84 -1.702,-3.693 -2.495,-5.63 -0.75,-1.949 -1.591,-3.971 -1.666,-6.548 -0.016,-0.639 0.047,-1.315 0.181,-1.985 0.064,-0.337 0.161,-0.669 0.263,-1.001 0.123,-0.331 0.21,-0.626 0.429,-1.018 0.795,-1.419 1.57,-2.151 2.353,-2.982 1.563,-1.582 3.155,-2.908 4.76,-4.238 3.227,-2.603 6.502,-5.029 9.784,-7.422 6.521,-4.793 13.205,-9.414 19.144,-14.382 3.651,-3.104 7.872,-5.036 12.092,-6.385 4.25,-1.307 8.576,-2.041 12.915,-2.273 4.341,-0.253 8.69,-0.026 13.065,0.782 2.191,0.429 4.376,0.992 6.61,1.927 0.555,0.223 1.121,0.499 1.682,0.779 0.584,0.326 1.075,0.571 1.833,1.116 1.114,0.845 1.825,1.544 2.627,2.291 3.051,2.931 5.827,5.86 8.612,8.842 2.781,2.967 5.523,5.951 8.249,8.943 l 8.169,8.957 c 1.365,1.482 2.737,2.956 4.122,4.405 l 2.089,2.15 1.043,1.062 0.524,0.521 0.156,0.155 c 0.121,0.121 0.253,0.252 0.343,0.382 0.2,0.262 0.345,0.535 0.44,0.779 0.37,1.001 0.304,1.698 0.267,2.344 -0.06,0.633 -0.173,1.206 -0.307,1.753 m 120.182,209.735 c -0.038,0 -0.073,0.007 -0.112,0.006 -8.087,-0.177 -29.816,-31.401 -34.588,-49.362 -0.55,0.995 -1.079,1.875 -1.541,2.604 0.027,4.665 0.171,8.304 0.544,9.557 1.217,4.088 3.82,13.331 6.49,25.948 5.858,9.141 17.448,19.531 25.142,21.395 3.412,0.825 4.442,-0.439 4.779,-0.855 2.244,-2.77 1.718,-4.813 -0.714,-9.293 m -36.23,-52.565 c 2.491,-5.025 4.789,-12.019 1.935,-17.306 -0.588,-1.091 -1.144,-2.043 -1.674,-2.905 -0.032,3.236 -0.078,6.567 -0.129,9.984 -0.052,3.382 -0.106,6.904 -0.132,10.227 M -21.363,497.085 c 38.016,-0.653 68.16,-12.883 90.858,-29.913 64.925,-77.62 38.062,-195.538 31.176,-221.12 -1.117,0.851 -2.308,1.491 -3.47,2.015 -2.16,0.953 -4.342,1.545 -6.513,1.971 -4.348,0.829 -8.674,1.005 -12.96,0.846 -4.282,-0.171 -8.529,-0.712 -12.7,-1.619 -4.166,-0.914 -8.272,-2.185 -12.163,-4.028 -1.943,-0.918 -3.825,-1.998 -5.585,-3.279 -0.877,-0.647 -1.72,-1.346 -2.509,-2.107 -0.81,-0.79 -1.474,-1.562 -2.179,-2.305 -2.821,-2.994 -5.843,-5.814 -9.064,-8.389 -3.226,-2.563 -6.646,-4.915 -10.343,-6.747 -1.85,-0.908 -3.775,-1.682 -5.787,-2.141 -1.987,-0.434 -4.164,-0.586 -6.068,0.322 1.852,-1.017 4.088,-0.994 6.136,-0.662 2.073,0.354 4.076,1.032 6.007,1.85 3.862,1.653 7.466,3.848 10.89,6.271 3.419,2.434 6.653,5.131 9.701,8.028 0.769,0.725 1.509,1.487 2.231,2.108 0.744,0.641 1.54,1.229 2.371,1.77 1.67,1.074 3.465,1.977 5.328,2.729 3.729,1.509 7.687,2.494 11.686,3.132 4.003,0.635 8.066,0.916 12.099,0.845 4.027,-0.079 8.053,-0.491 11.837,-1.445 1.884,-0.48 3.707,-1.107 5.311,-1.931 1.418,-0.719 4.008,-5.282 5.037,-7.081 0.325,-9.333 -3.526,-13.167 -5.387,-15.008 -0.22,-0.219 -0.42,-0.422 -0.607,-0.623 -2.897,1.3 -5.902,2.356 -8.995,3.064 -3.899,0.892 -7.908,1.151 -11.841,0.966 -3.94,-0.191 -7.813,-0.871 -11.552,-1.889 -3.735,-1.042 -7.339,-2.408 -10.83,-3.961 -6.993,-3.105 -13.507,-6.99 -20.005,-10.777 -3.256,-1.88 -6.515,-3.752 -9.933,-5.27 -1.704,-0.766 -3.465,-1.414 -5.292,-1.785 -1.808,-0.372 -3.755,-0.459 -5.518,0.271 1.714,-0.841 3.71,-0.885 5.577,-0.619 1.887,0.261 3.724,0.81 5.497,1.477 3.562,1.323 6.962,3.004 10.34,4.682 6.738,3.384 13.433,6.821 20.402,9.404 3.479,1.294 7.016,2.383 10.597,3.145 3.584,0.738 7.209,1.135 10.799,1.084 3.586,-0.059 7.144,-0.515 10.543,-1.522 3.112,-0.925 7.785,-3.076 10.949,-5.611 1.555,-6.005 2.13,-15.211 -2.151,-21.918 -7.264,8.153 -44.811,-4.85 -56.402,-9.688 -9.15,-3.818 -27.471,-10.943 -39.845,-10.624 -8.699,4.19 -18.286,13.155 -20.786,15.576 l 0.028,3.03 -0.006,7.129 -0.086,14.247 -1.267,-14.187 -0.67,-7.086 -0.367,-3.524 c -0.088,-0.735 -0.689,-1.635 -1.37,-2.449 -1.409,-1.645 -3.209,-3.1 -5.059,-4.431 -1.866,-1.331 -3.83,-2.538 -5.848,-3.626 -2.018,-1.087 -4.092,-2.058 -6.19,-2.85 -0.084,-0.031 -0.167,-0.058 -0.252,-0.088 -17.102,2.112 -50.809,14.617 -62.102,17.909 -11.226,3.272 -22.508,1.662 -27.208,-6.711 -3.037,5.373 -5.76,12.433 -5.796,18.619 0.354,4.271 2.314,8.047 3.404,9.359 1.097,1.312 2.591,2.381 4.329,3.166 3.493,1.581 7.694,2.139 11.869,2.232 4.2,0.079 8.473,-0.306 12.692,-0.987 1.138,-0.18 1.904,-0.315 2.881,-0.675 0.955,-0.339 1.933,-0.753 2.907,-1.188 1.948,-0.876 3.898,-1.841 5.843,-2.814 7.785,-3.917 15.583,-7.996 23.746,-11.265 4.082,-1.619 8.259,-3.065 12.584,-3.927 2.16,-0.425 4.363,-0.688 6.566,-0.638 2.196,0.062 4.424,0.472 6.349,1.527 -1.979,-0.947 -4.192,-1.225 -6.349,-1.168 -2.166,0.07 -4.31,0.446 -6.408,0.98 -4.2,1.079 -8.234,2.728 -12.174,4.545 -7.883,3.67 -15.364,8.12 -22.957,12.478 -1.905,1.086 -3.816,2.167 -5.799,3.193 -0.994,0.511 -2.002,1.008 -3.084,1.46 -0.544,0.222 -1.105,0.437 -1.732,0.617 -0.344,0.093 -0.622,0.157 -0.885,0.216 l -0.817,0.181 c -4.36,0.941 -8.797,1.585 -13.335,1.741 -4.522,0.117 -9.212,-0.161 -13.826,-1.934 -2.231,-0.868 -4.431,-2.203 -6.227,-4.08 -3.049,4.23 -4.1,8.602 0.027,16.976 0.926,1.314 2.307,3.759 3.588,4.963 1.319,1.248 2.933,2.327 4.659,3.228 3.479,1.787 7.413,2.865 11.406,3.214 3.998,0.365 8.086,-0.056 11.965,-1.183 3.845,-1.168 7.633,-3.123 11.329,-5.151 7.405,-4.121 14.567,-8.835 21.981,-13.141 3.709,-2.147 7.481,-4.225 11.442,-5.912 1.983,-0.829 4.019,-1.566 6.131,-2.012 2.087,-0.427 4.352,-0.591 6.353,0.235 -2.042,-0.711 -4.243,-0.421 -6.271,0.112 -2.049,0.551 -4.011,1.386 -5.918,2.312 -3.812,1.878 -7.427,4.14 -10.989,6.474 -7.125,4.682 -13.987,9.769 -21.283,14.379 -3.67,2.277 -7.401,4.51 -11.666,6.079 -4.252,1.494 -8.784,2.215 -13.319,2.055 -4.533,-0.152 -9.061,-1.107 -13.305,-2.996 -2.116,-0.963 -4.167,-2.152 -6.051,-3.742 -0.214,-0.184 -0.424,-0.374 -0.633,-0.571 -0.885,3.842 -2.058,7.245 -3.187,9.711 l 0.001,0.002 c -32.149,88.106 -27.943,159.555 12.504,213.334 25.887,22.163 64.289,33.924 110.965,33.139 M -169.079,247.204 c 1.172,-6.217 2.268,-12.992 3.274,-19.866 -0.885,1.097 -1.864,2.391 -2.943,3.991 -3.043,4.507 -2.022,10.824 -0.331,15.875 m -42.331,59.441 c 0.6,0.911 1.774,2.069 5.035,1.615 7.968,-1.113 20.165,-10.879 25.14,-19.408 2.016,-8.449 4.111,-14.285 5.388,-16.811 2.039,-4.035 3.967,-11.093 5.742,-19.646 -0.088,-0.199 -0.177,-0.406 -0.267,-0.612 -6.522,17.403 -31.205,46.348 -39.298,45.7 -0.038,-0.002 -0.073,-0.011 -0.111,-0.017 -2.863,4.22 -3.589,6.201 -1.629,9.179 m 35.042,-100.869 c -1.051,12.616 -6.134,21.659 -11.05,30.405 -0.411,0.729 -0.822,1.464 -1.232,2.2 0.058,-0.06 0.116,-0.119 0.175,-0.179 5.825,-5.939 11.849,-12.081 13.394,-18.255 1.424,-5.691 0.173,-10.594 -1.156,-15.781 -0.043,0.531 -0.085,1.06 -0.131,1.61 m 1.018,-12.159 c 0.224,3.471 1.038,6.674 1.843,9.816 1.361,5.312 2.769,10.803 1.168,17.199 -1.731,6.921 -8.029,13.342 -14.119,19.549 -2.498,2.548 -4.932,5.031 -6.923,7.425 -2.841,6.314 -5.021,13.411 -5.385,22.345 -0.463,11.36 -4.875,18.646 -8.594,24.032 4.503,-2.304 12.316,-9.946 19.525,-18.998 -0.186,-10.834 7.092,-32.131 14.604,-39.86 0.002,-0.001 0.003,-0.002 0.004,-0.004 0.348,-1.894 1.018,-3.716 2.136,-5.373 2.252,-3.337 4.073,-5.401 5.536,-7.06 0.17,-0.191 0.334,-0.377 0.493,-0.559 2.33,-16.732 4.108,-33.282 5.128,-42.789 0.054,-0.499 0.105,-0.978 0.156,-1.443 -12.231,0.152 -14.295,3.035 -15.572,15.72 m 286.481,26.586 c 0.298,-19.546 0.749,-49.084 -3.368,-57.12 -12.238,-23.888 -28.797,-35.031 -42.105,-43.984 -3.816,-2.568 -6.789,-4.564 -9.347,-6.652 0.381,2.471 0.677,4.971 0.801,7.541 -2.428,-3.542 -4.25,-7.32 -5.891,-11.137 -0.395,-0.933 -0.775,-1.872 -1.143,-2.811 0,-0.001 -0.001,-0.001 -0.001,-0.001 v -0.002 c -1.142,-2.919 -2.16,-5.877 -3.064,-8.867 -1.2,-3.955 -2.2,-7.969 -2.982,-12.045 -0.76,-4.083 -1.348,-8.216 -1.381,-12.509 2.293,3.628 4.048,7.411 5.642,11.24 1.573,3.836 2.943,7.731 4.13,11.679 0.167,0.554 0.322,1.11 0.482,1.667 4.124,4.441 11.857,10.939 17.55,14.77 0.293,0.196 0.59,0.397 0.888,0.597 C 69.314,100.103 69.266,90.708 68.717,80.399 68.255,71.727 67.855,64.239 66.642,58.722 65.157,51.977 56.402,43.737 47.134,35.013 42.042,30.222 36.978,25.468 32.641,20.487 c 0.788,1.884 1.611,3.755 2.502,5.6 C 39.564,35.402 45.306,44.12 52.07,52.101 44.31,45.073 37.722,36.682 32.423,27.518 27.157,18.326 23.248,8.357 20.285,-1.76 c -1.506,-5.049 -2.861,-10.132 -4.242,-15.083 -0.709,-2.463 -1.45,-4.9 -2.36,-7.147 -0.901,-2.228 -2.013,-4.334 -3.352,-5.561 -1.318,-1.217 -2.723,-1.536 -4.765,-1.305 -2.63,0.335 -5.267,0.621 -7.91,0.851 -2.292,0.203 -4.589,0.346 -6.888,0.452 -2.023,4.648 -5.706,13.306 -10.44,12.77 0,0 -5.181,-7.969 -6.879,-12.742 -2.51,-0.101 -5.008,-0.229 -7.481,-0.355 -2.594,-0.125 -5.17,-0.253 -7.644,-0.235 -2.461,0.019 -4.864,0.207 -6.719,0.829 -1.848,0.625 -3.037,1.703 -3.984,3.586 -0.48,0.943 -0.789,1.921 -1.212,3.257 l -1.225,3.754 c -1.643,5.001 -3.483,9.941 -5.452,14.828 -3.899,9.782 -8.431,19.345 -13.918,28.381 -2.801,4.475 -5.791,8.864 -9.326,12.818 -3.513,3.915 -7.549,7.616 -12.431,9.613 2.271,-1.305 4.283,-2.96 6.089,-4.805 1.818,-1.831 3.456,-3.83 4.969,-5.917 3.028,-4.173 5.632,-8.646 7.976,-13.246 0.983,-1.916 1.925,-3.854 2.837,-5.806 -5.401,5.145 -11.856,9.959 -18.625,15.021 -8.237,6.159 -19.517,14.593 -19.585,18.004 -0.148,7.406 -5.04,42.751 -9.87,62.55 6.308,-4.709 14.944,-11.144 18.804,-14.826 0.114,-0.401 0.222,-0.802 0.336,-1.202 1.168,-4.12 2.502,-8.189 3.862,-12.243 l 2.102,-6.072 c 0.747,-2.036 1.393,-4.037 2.056,-6.195 0.246,1.065 0.515,2.211 0.562,3.315 0.102,1.116 0.155,2.248 0.119,3.352 -0.012,2.233 -0.236,4.426 -0.511,6.61 -0.58,4.361 -1.563,8.613 -2.76,12.799 -1.202,4.183 -2.672,8.277 -4.395,12.282 -0.869,2 -1.8,3.976 -2.836,5.915 -0.52,0.967 -1.052,1.932 -1.641,2.873 -0.581,0.94 -1.172,1.895 -1.896,2.758 0.42,-3.558 0.968,-7.024 1.649,-10.447 -3.138,2.619 -7.509,5.84 -13.551,10.389 -7.926,5.968 -17.79,13.395 -19.657,16.537 -8.724,14.688 -9.939,26.74 -10.743,34.714 -0.08,0.798 -0.157,1.555 -0.236,2.272 -0.144,1.31 -0.312,2.881 -0.505,4.674 -3.962,36.91 -9.451,81.138 -16.787,95.658 -2.046,4.049 -8.145,23.363 -9.702,49.76 -1.441,24.453 0.646,62.108 18.773,102.629 2.767,6.186 6.129,11.982 10.009,17.398 -27.809,-51.355 -27.959,-116.362 -0.94,-193.03 h -0.002 c 1.308,-4.579 4.034,-10.894 5.021,-17.146 -0.491,-1.377 -0.926,-2.83 -1.09,-3.638 l 0.012,0.002 c -3.867,-9.095 -2.699,-14.88 2.067,-20.788 -4.726,-9.746 1.614,-23.918 7.3,-32.37 -0.293,-1.513 -0.445,-3.156 -0.418,-4.95 0.253,-17.016 34.528,-34.73 48.035,-34.709 11.256,0.017 37.465,12.455 47.108,18.43 0.023,-0.912 0.034,-1.823 0.064,-2.737 0.071,-2.237 0.163,-4.475 0.306,-6.724 0.073,-1.125 0.16,-2.253 0.282,-3.395 0.146,-1.154 0.214,-2.252 0.681,-3.632 1.686,-4.179 3.326,-8.212 4.633,-12.448 1.326,-4.21 2.348,-8.527 2.893,-12.942 -0.088,4.446 -0.665,8.9 -1.561,13.284 -0.867,4.378 -2.137,8.745 -3.352,12.957 -0.171,0.75 -0.186,1.899 -0.187,2.951 0.004,1.076 0.037,2.168 0.087,3.263 0.098,2.19 0.248,4.392 0.417,6.593 0.266,3.413 1.712,9.47 2.566,14.063 3.024,4.085 8,11.707 9.15,13.362 0.087,0.135 0.174,0.273 0.262,0.413 1.37,-1.712 3.787,-4.698 5.722,-6.248 1.668,-1.337 4.136,-3.979 6.882,-6.612 0.326,-0.716 0.736,-1.504 1.241,-2.352 l 2.189,-12.709 0.276,-7.089 0.088,-3.512 0.002,-0.816 c 0.006,-0.184 -0.023,-0.444 -0.047,-0.692 -0.07,-0.525 -0.162,-1.077 -0.278,-1.641 -0.955,-4.534 -2.248,-9.174 -3.222,-13.837 -0.493,-2.336 -0.937,-4.691 -1.211,-7.07 -0.132,-1.191 -0.224,-2.389 -0.213,-3.588 0.018,-1.194 0.121,-2.413 0.544,-3.528 -0.292,1.155 -0.255,2.345 -0.139,3.51 0.123,1.168 0.346,2.323 0.607,3.469 0.532,2.291 1.229,4.545 1.975,6.782 1.488,4.493 3.259,8.833 4.795,13.446 0.19,0.58 0.366,1.184 0.527,1.821 0.073,0.336 0.15,0.66 0.197,1.068 0.048,0.376 0.054,0.635 0.082,0.959 l 0.204,3.597 0.306,7.129 0.149,4.247 c 10.827,-9.98 47.515,-22.145 62.312,-14.412 13.27,6.935 32.374,25.305 36.002,38.716 11.056,8.25 8.77,25.195 4.407,35.029 2.289,2.263 7.78,7.767 6.438,20.905 3.833,14.332 12.769,55.432 12.37,97.191 -0.444,46.809 -11.213,86.377 -32.049,118.059 20.247,-19.969 32.321,-43.493 36.706,-62.62 13.858,-60.448 -5.239,-130.003 -9.208,-143.332 -1.079,-3.623 -1.001,-12.154 -0.757,-28.178 m 27.14,3.612 c -5.445,-6.78 -11.077,-13.793 -12.116,-20.848 -0.947,-6.432 1.373,-11.978 3.616,-17.342 0.691,-1.651 1.367,-3.276 1.928,-4.891 -0.084,-15.367 -2.169,-18.556 -15.596,-20.013 3.258,8.153 3.886,24.163 3.784,44.581 1.162,1.634 2.537,3.668 4.126,6.611 1.31,2.43 1.746,5.09 1.635,7.76 0.002,0 0.003,-0.001 0.004,-0.002 3.578,2.886 11.408,27.687 10.515,38.849 6.288,9.745 13.327,18.153 17.587,20.899 -3.169,-5.729 -6.839,-13.414 -6.176,-24.764 0.522,-8.924 -0.945,-16.201 -3.148,-22.764 -1.745,-2.58 -3.922,-5.292 -6.159,-8.076 m -6.636,-35.306 c -1.824,4.452 -3.417,9.064 -2.684,14.046 0.928,6.297 6.315,13.004 11.525,19.49 0.052,0.066 0.105,0.131 0.158,0.196 -0.336,-0.773 -0.673,-1.545 -1.01,-2.313 -4.028,-9.188 -8.192,-18.688 -7.99,-31.346 0,-0.025 0,-0.048 0.001,-0.073 m 31.791,109.498 c -1.829,2.258 -6.049,5.762 -13.762,3.89 -4.755,-1.15 -10.38,-4.347 -15.929,-8.942 4.349,28.295 6.94,66.212 -1.128,101.398 -10.314,44.996 -59.592,112.628 -153.077,114.528 l -0.695,0.013 c -38.997,0.656 -72.115,-6.624 -98.53,-21.636 -22.79,-12.952 -40.147,-31.67 -50.195,-54.131 -22.355,-49.97 -21.756,-96.481 -18.254,-124.035 -5.815,4.343 -11.915,7.246 -17.002,7.957 -5.844,0.815 -10.829,-1.197 -13.676,-5.527 -5.659,-8.595 -0.822,-15.479 3.065,-21.011 3.618,-5.151 7.719,-10.987 8.125,-20.921 0.683,-16.777 6.678,-27.441 12.48,-37.762 4.655,-8.28 9.05,-16.101 9.94,-26.787 0.13,-1.567 0.249,-3.059 0.363,-4.513 1.515,-19.146 2.376,-30.057 22.754,-31.361 0.942,-8.551 3.012,-21.418 12.032,-36.602 2.358,-3.97 7.734,-8.528 16.778,-15.447 4.472,-13.594 11.155,-57.764 11.342,-67.109 0.154,-7.77 8.151,-14.104 23.459,-25.549 7.704,-5.761 21.957,-16.417 28.22,-24.823 0.868,-2.295 1.616,-4.359 2.284,-6.306 1.462,-4.21 2.964,-8.868 4.723,-14.632 l 1.173,-3.979 c 0.335,-1.175 0.794,-2.782 1.504,-4.285 0.912,-1.984 2.102,-3.689 3.516,-5.043 1.481,-1.454 3.368,-2.632 5.464,-3.415 3.648,-1.35 7.028,-1.45 9.786,-1.532 2.692,-0.04 5.279,0.054 7.781,0.151 l 0.418,0.015 c 2.883,0.123 5.619,0.876 8.265,1.605 2.563,0.705 4.984,1.371 7.234,1.371 0.021,-0.001 0.043,0 0.064,0 2.276,0 4.687,-0.702 7.238,-1.446 2.472,-0.722 5.027,-1.468 7.74,-1.659 2.479,-0.176 5.017,-0.41 7.523,-0.691 0.697,-0.081 1.382,-0.122 2.055,-0.122 1.514,0 2.96,0.206 4.305,0.612 2.129,0.604 4.24,1.862 5.978,3.573 2.802,2.834 4.152,5.952 5.314,8.945 1.042,2.81 1.774,5.541 2.436,8.099 0.711,2.759 1.342,5.521 1.952,8.192 0.533,2.327 1.083,4.733 1.672,7.069 0.27,1.077 0.547,2.151 0.832,3.223 4.283,9.323 15.308,19.697 24.181,28.046 l 0.582,0.548 c 10.387,9.773 20.197,19.005 22.323,28.669 1.384,6.291 1.803,14.146 2.288,23.242 0.538,10.1 1.202,22.596 3.502,36.072 10.13,7.369 22.72,18.048 33.119,35.757 25.047,2.6 25.905,12.814 25.519,37.007 -0.171,10.724 3.429,18.942 7.244,27.642 4.752,10.837 9.665,22.042 8.685,38.808 -0.579,9.924 2.924,16.138 6.018,21.623 3.319,5.889 7.454,13.216 0.972,21.211"
             style="fill:#110f0d;fill-opacity:1;fill-rule:nonzero;stroke:none"
             id="path86" />
        </g>
      </g>
    </g>
  </g>
</svg>
