<?xml version="1.0" encoding="UTF-8" standalone="no"?>
<!-- Created with Inkscape (http://www.inkscape.org/) -->
<svg xmlns:dc="http://purl.org/dc/elements/1.1/" xmlns:cc="http://creativecommons.org/ns#" xmlns:rdf="http://www.w3.org/1999/02/22-rdf-syntax-ns#" xmlns:svg="http://www.w3.org/2000/svg" xmlns="http://www.w3.org/2000/svg" xmlns:sodipodi="http://sodipodi.sourceforge.net/DTD/sodipodi-0.dtd" xmlns:inkscape="http://www.inkscape.org/namespaces/inkscape" viewBox="0 0 395.38305 307.74278" id="svg15097" version="1.1" inkscape:version="0.91pre4 r13712" sodipodi:docname="fork knife and plate.svg">
  <defs id="defs15099"/>
  <sodipodi:namedview id="base" pagecolor="#ffffff" bordercolor="#666666" borderopacity="1.0" inkscape:pageopacity="0.0" inkscape:pageshadow="2" inkscape:zoom="0.35" inkscape:cx="335.54866" inkscape:cy="191.01425" inkscape:document-units="px" inkscape:current-layer="layer1" showgrid="false" fit-margin-top="5" fit-margin-left="5" fit-margin-right="5" fit-margin-bottom="5" inkscape:window-width="1364" inkscape:window-height="747" inkscape:window-x="0" inkscape:window-y="19" inkscape:window-maximized="1"/>
  <metadata id="metadata15102">
    <rdf:RDF>
      <cc:Work rdf:about="">
        <dc:format>image/svg+xml</dc:format>
        <dc:type rdf:resource="http://purl.org/dc/dcmitype/StillImage"/>
        <dc:title/>
      </cc:Work>
    </rdf:RDF>
  </metadata>
  <g inkscape:label="Layer 1" inkscape:groupmode="layer" id="layer1" transform="translate(-39.45134,-415.63366)">
    <path inkscape:connector-curvature="0" style="color:#000000;display:inline;overflow:visible;visibility:visible;opacity:1;fill:#46a340;fill-opacity:1;fill-rule:evenodd;stroke:#000000;stroke-width:2.20530629;stroke-linecap:butt;stroke-linejoin:miter;stroke-miterlimit:4;stroke-dasharray:none;stroke-dashoffset:0;stroke-opacity:1;marker:none;marker-start:none;marker-mid:none;marker-end:none;enable-background:accumulate" d="m 84.200345,465.72353 c -0.73197,-0.049 -1.47515,0.54715 -1.600905,1.95666 -0.25151,2.81046 -2.065042,35.44081 -2.613529,35.46708 -0.529642,0.028 0.09458,0.83082 -1.806177,0.39653 -1.901316,-0.43366 -1.229525,-31.63762 -2.203057,-36.2607 -0.428057,-2.03184 -2.448052,-1.4437 -2.654514,0.2466 -0.509325,4.16701 -1.105522,35.13809 -1.915678,35.82284 -0.865992,0.73148 -1.699687,1.33272 -2.654584,0.042 -0.954686,-1.29181 -2.197242,-31.98497 -2.257703,-34.56403 -0.05605,-2.4594 -1.741582,-2.41358 -2.257773,-0.19126 -0.521935,2.24551 -5.965896,41.27731 -5.965896,50.76497 0,9.2042 8.106602,23.0708 12.438104,38.27222 0.81478,3.01349 1.720775,7.01088 1.860962,10.3856 1.022643,24.60102 -4.269781,59.51491 -3.968179,91.95169 0.149224,16.05851 1.748308,31.30554 5.213328,44.08756 l 10.590872,0.35589 4.46076,-44.79907 c 0,0 -2.914991,-84.59387 -2.504098,-91.44545 0.410542,-6.8433 0.198265,-7.5324 3.160896,-14.99684 2.962211,-7.46438 10.235046,-24.03516 10.235046,-33.71562 0,-9.39729 -4.902478,-48.2105 -5.226989,-51.0113 -0.324371,-2.80093 -2.766677,-3.01041 -2.599798,-0.10929 0.173745,3.02015 -1.800292,32.61122 -2.257773,34.82395 -0.457482,2.21328 -2.389273,2.61885 -2.914501,-0.0561 -0.525438,-2.67329 -0.831734,-33.8261 -0.998893,-35.56285 -0.111393,-1.1547 -0.827951,-1.81395 -1.559921,-1.86089 z" id="rect6688"/>
    <path inkscape:connector-curvature="0" style="color:#000000;display:inline;overflow:visible;visibility:visible;opacity:1;fill:#dff320;fill-opacity:1;fill-rule:nonzero;stroke:#000000;stroke-width:3.50292134;stroke-linecap:butt;stroke-linejoin:miter;stroke-miterlimit:4;stroke-dasharray:none;stroke-dashoffset:0;stroke-opacity:1;marker:none;marker-start:none;marker-mid:none;marker-end:none;enable-background:accumulate" d="m 238.90358,442.84504 c -70.49994,1.7881 -127.15878,59.5966 -127.15878,130.52488 0,72.05411 58.47055,130.53868 130.52487,130.53854 72.05433,0 130.57946,-58.48443 130.5796,-130.53854 0,-72.05412 -58.52527,-130.52488 -130.5796,-130.52488 -1.12569,0 -2.24691,-0.028 -3.36609,0 z" id="rect6692"/>
    <path inkscape:connector-curvature="0" style="color:#000000;display:inline;overflow:visible;visibility:visible;opacity:1;fill:#46a340;fill-opacity:1;fill-rule:evenodd;stroke:#000000;stroke-width:2.20530629;stroke-linecap:butt;stroke-linejoin:miter;stroke-miterlimit:4;stroke-dasharray:none;stroke-dashoffset:0;stroke-opacity:1;marker:none;marker-start:none;marker-mid:none;marker-end:none;enable-background:accumulate" d="m 413.57073,434.56665 c -1.19639,0.1177 -2.78398,0.77492 -4.80278,1.91568 -4.03775,2.28173 -15.85675,44.17065 -18.71878,62.39579 -2.86202,18.225 6.17117,67.77326 6.17117,67.77326 0,7e-5 -3.56373,90.98692 -3.31138,96.56301 0.25221,5.57609 4.13022,39.11761 7.27956,40.39302 3.14927,1.27556 5.17353,0.91413 7.97734,0.19196 2.80346,-0.72251 2.0525,-3.10611 2.0525,-3.10611 0.41825,-0.78479 3.87164,-41.26301 3.95445,-44.44331 0.0827,-3.18044 -1.73787,-85.60026 -2.0525,-88.79086 -0.31456,-3.19089 4.56109,-129.56999 3.81763,-131.57849 -0.37131,-1.00422 -1.17061,-1.43158 -2.36721,-1.3136 z" id="rect6696"/>
    <circle r="98.222794" cy="573.36298" cx="242.29146" style="color:#000000;display:inline;overflow:visible;visibility:visible;opacity:1;fill:none;fill-opacity:1;fill-rule:evenodd;stroke:#000000;stroke-width:3.17335415;stroke-linecap:butt;stroke-linejoin:miter;stroke-miterlimit:4;stroke-dasharray:none;stroke-dashoffset:0;stroke-opacity:1;marker:none;marker-start:none;marker-mid:none;marker-end:none;enable-background:accumulate" id="path28595" inkscape:export-filename="/home/steve/work/graphics/solar_powered/use11577.png" inkscape:export-xdpi="63.497189" inkscape:export-ydpi="63.497189"/>
  </g>
</svg>
