<?xml version="1.0" encoding="UTF-8" standalone="no"?>
<!-- Created with Inkscape (http://www.inkscape.org/) -->

<svg
   version="1.1"
   id="svg1337"
   width="880"
   height="880"
   viewBox="0 0 880 880"
   sodipodi:docname="formula-race-car-vector.svg"
   inkscape:version="1.2 (dc2aedaf03, 2022-05-15)"
   xmlns:inkscape="http://www.inkscape.org/namespaces/inkscape"
   xmlns:sodipodi="http://sodipodi.sourceforge.net/DTD/sodipodi-0.dtd"
   xmlns="http://www.w3.org/2000/svg"
   xmlns:svg="http://www.w3.org/2000/svg">
  <defs
     id="defs1341">
    <clipPath
       clipPathUnits="userSpaceOnUse"
       id="clipPath1355">
      <path
         d="M 0,660 H 660 V 0 H 0 Z"
         id="path1353" />
    </clipPath>
  </defs>
  <sodipodi:namedview
     id="namedview1339"
     pagecolor="#ffffff"
     bordercolor="#000000"
     borderopacity="0.25"
     inkscape:showpageshadow="2"
     inkscape:pageopacity="0.0"
     inkscape:pagecheckerboard="0"
     inkscape:deskcolor="#d1d1d1"
     showgrid="false"
     inkscape:zoom="0.95113636"
     inkscape:cx="441.05137"
     inkscape:cy="440.52569"
     inkscape:window-width="1920"
     inkscape:window-height="1017"
     inkscape:window-x="-8"
     inkscape:window-y="-8"
     inkscape:window-maximized="1"
     inkscape:current-layer="g1345">
    <inkscape:page
       x="0"
       y="0"
       id="page1343"
       width="880"
       height="880" />
  </sodipodi:namedview>
  <g
     id="g1345"
     inkscape:groupmode="layer"
     inkscape:label="Page 1"
     transform="matrix(1.3333333,0,0,-1.3333333,0,880)">
    <path
       d="M 0,0 H 659.46 V 660 H 0 Z"
       style="fill:#d9e0b1;fill-opacity:1;fill-rule:nonzero;stroke:none"
       id="path1347" />
    <g
       id="g1349">
      <g
         id="g1351"
         clip-path="url(#clipPath1355)">
        <g
           id="g1357"
           transform="translate(191.0259,191.1992)">
          <path
             d="m 0,0 c 17.564,-17.565 24.88,-44.621 44.642,-59.67 14.186,-10.803 39.99,-0.265 51.713,-13.702 10.67,-12.229 16.194,-39.673 2.653,-48.618 -21.021,-13.887 -53.091,-10.91 -75.582,0.441 -30.509,15.398 -47.127,49.516 -71.291,73.682 -24.165,24.165 -58.283,40.782 -73.682,71.291 -11.352,22.492 -14.328,54.561 -0.442,75.582 8.947,13.542 36.387,8.017 48.62,-2.652 13.438,-11.723 2.898,-37.528 13.702,-51.713 C -44.618,24.877 -17.564,17.564 0,0"
             style="fill:#ff6633;fill-opacity:1;fill-rule:evenodd;stroke:none"
             id="path1359" />
        </g>
        <g
           id="g1361"
           transform="translate(182.5122,182.6846)">
          <path
             d="m 0,0 c 6.727,-6.73 11.885,-15.364 16.73,-23.495 8.204,-13.778 16.146,-27.352 29.129,-37.24 1.351,-1.026 2.777,-1.941 4.267,-2.749 8.218,-4.444 17.326,-5.089 26.458,-5.451 4.6,-0.183 15.901,-0.043 19.211,-3.837 3.075,-3.525 5.299,-8.839 6.469,-13.322 0.967,-3.705 2.631,-14.684 -1.38,-17.336 -17.614,-11.636 -45.527,-7.935 -63.518,1.146 -3.589,1.81 -6.992,3.955 -10.222,6.344 -13.279,9.837 -24.017,24.037 -34.107,36.994 -7.555,9.699 -15.169,19.401 -23.875,28.107 -8.705,8.707 -18.409,16.32 -28.108,23.874 -15.857,12.351 -34.078,25.983 -43.338,44.328 -9.081,17.995 -12.78,45.907 -1.146,63.521 0.162,0.241 0.35,0.453 0.568,0.642 3.551,3.102 12.678,1.805 16.768,0.738 4.483,-1.17 9.798,-3.395 13.322,-6.469 0.503,-0.438 0.901,-0.935 1.239,-1.507 2.395,-4.041 2.413,-13.064 2.597,-17.705 0.433,-10.908 1.336,-21.706 8.204,-30.723 2.164,-2.844 4.557,-5.504 7.121,-7.992 8.916,-8.643 19.521,-14.829 30.114,-21.141 C -15.364,11.885 -6.729,6.729 0,0"
             style="fill:#ff794c;fill-opacity:1;fill-rule:evenodd;stroke:none"
             id="path1363" />
        </g>
        <g
           id="g1365"
           transform="translate(479.7305,313.1514)">
          <path
             d="m 0,0 -166.753,166.75 -10.17,-10.169 166.751,-166.752 z"
             style="fill:#808080;fill-opacity:1;fill-rule:evenodd;stroke:none"
             id="path1367" />
        </g>
        <g
           id="g1369"
           transform="translate(319.9951,487.6826)">
          <path
             d="m 0,0 71.574,-47.322 -9.06,-9.06 L -9.06,-9.06 Z m 167.516,-167.515 -47.322,71.575 -9.061,-9.061 47.322,-71.574 z"
             style="fill:#808080;fill-opacity:1;fill-rule:evenodd;stroke:none"
             id="path1371" />
        </g>
        <g
           id="g1373"
           transform="translate(527.4609,315.8027)">
          <path
             d="M 0,0 -39.338,39.336 -99.89,-21.216 -60.554,-60.554 Z"
             style="fill:#1a1a1a;fill-opacity:1;fill-rule:evenodd;stroke:none"
             id="path1375" />
        </g>
        <g
           id="g1377"
           transform="translate(518.4004,312.04)">
          <path
             d="M 0,0 C 1.223,0 2.216,0.991 2.216,2.214 2.216,3.438 1.223,4.428 0,4.428 h -13.698 v 13.699 c 0,1.223 -0.991,2.214 -2.214,2.214 H -29.609 V 34.04 c 0,1.222 -0.992,2.213 -2.216,2.213 -1.221,0 -2.214,-0.991 -2.214,-2.213 V 18.127 c 0,-1.223 0.993,-2.215 2.214,-2.215 h 13.699 V 2.214 C -18.126,0.991 -17.135,0 -15.912,0 Z"
             style="fill:#666666;fill-opacity:1;fill-rule:evenodd;stroke:none"
             id="path1379" />
        </g>
        <g
           id="g1381"
           transform="translate(504.4424,298.0811)">
          <path
             d="M 0,0 C 1.223,0 2.213,0.991 2.213,2.215 2.213,3.437 1.223,4.429 0,4.429 h -13.698 v 13.698 c 0,1.223 -0.991,2.215 -2.214,2.215 h -13.7 v 13.697 c 0,1.224 -0.991,2.215 -2.214,2.215 -1.223,0 -2.214,-0.991 -2.214,-2.215 V 18.127 c 0,-1.223 0.991,-2.214 2.214,-2.214 h 13.698 V 2.215 C -18.128,0.991 -17.135,0 -15.912,0 Z"
             style="fill:#666666;fill-opacity:1;fill-rule:evenodd;stroke:none"
             id="path1383" />
        </g>
        <g
           id="g1385"
           transform="translate(490.4814,284.1221)">
          <path
             d="M 0,0 C 1.225,0 2.216,0.991 2.216,2.214 2.216,3.436 1.225,4.429 0,4.429 h -13.697 v 13.697 c 0,1.224 -0.991,2.215 -2.214,2.215 h -13.698 v 13.698 c 0,1.223 -0.991,2.215 -2.214,2.215 -1.223,0 -2.216,-0.992 -2.216,-2.215 V 18.126 c 0,-1.223 0.993,-2.214 2.216,-2.214 h 13.698 V 2.214 c 0,-1.223 0.99,-2.214 2.214,-2.214 z"
             style="fill:#666666;fill-opacity:1;fill-rule:evenodd;stroke:none"
             id="path1387" />
        </g>
        <g
           id="g1389"
           transform="translate(476.5234,270.1621)">
          <path
             d="M 0,0 C 1.223,0 2.216,0.992 2.216,2.215 2.216,3.438 1.223,4.429 0,4.429 h -13.698 v 13.699 c 0,1.223 -0.99,2.214 -2.214,2.214 h -13.697 v 13.699 c 0,1.223 -0.993,2.213 -2.216,2.213 -1.223,0 -2.214,-0.99 -2.214,-2.213 V 18.128 c 0,-1.223 0.991,-2.215 2.214,-2.215 h 13.699 V 2.215 C -18.126,0.992 -17.135,0 -15.912,0 Z"
             style="fill:#666666;fill-opacity:1;fill-rule:evenodd;stroke:none"
             id="path1391" />
        </g>
        <g
           id="g1393"
           transform="translate(354.9688,488.2954)">
          <path
             d="m 0,0 -39.338,39.337 -60.554,-60.552 39.338,-39.338 z"
             style="fill:#1a1a1a;fill-opacity:1;fill-rule:evenodd;stroke:none"
             id="path1395" />
        </g>
        <g
           id="g1397"
           transform="translate(345.9072,484.5332)">
          <path
             d="M 0,0 C 1.224,0 2.214,0.992 2.214,2.215 2.214,3.438 1.224,4.429 0,4.429 h -13.697 v 13.698 c 0,1.223 -0.991,2.214 -2.216,2.214 H -29.611 V 34.04 c 0,1.223 -0.991,2.214 -2.214,2.214 -1.223,0 -2.214,-0.991 -2.214,-2.214 V 18.127 c 0,-1.223 0.991,-2.213 2.214,-2.213 h 13.698 V 2.215 C -18.127,0.992 -17.136,0 -15.913,0 Z"
             style="fill:#666666;fill-opacity:1;fill-rule:evenodd;stroke:none"
             id="path1399" />
        </g>
        <g
           id="g1401"
           transform="translate(331.9492,470.5747)">
          <path
             d="M 0,0 C 1.223,0 2.214,0.992 2.214,2.214 2.214,3.436 1.223,4.429 0,4.429 h -13.7 v 13.697 c 0,1.225 -0.99,2.215 -2.214,2.215 h -13.697 v 13.698 c 0,1.223 -0.992,2.215 -2.214,2.215 -1.223,0 -2.214,-0.992 -2.214,-2.215 -0.002,-5.304 -0.002,-10.608 0,-15.913 0,-1.221 0.991,-2.213 2.214,-2.213 h 13.698 V 2.214 C -18.127,0.992 -17.136,0 -15.914,0 Z"
             style="fill:#666666;fill-opacity:1;fill-rule:evenodd;stroke:none"
             id="path1403" />
        </g>
        <g
           id="g1405"
           transform="translate(317.9893,456.6157)">
          <path
             d="M 0,0 C 1.223,0 2.213,0.992 2.213,2.214 2.213,3.436 1.223,4.428 0,4.428 h -13.698 v 13.698 c 0,1.223 -0.991,2.215 -2.214,2.215 h -13.7 v 13.698 c 0,1.223 -0.991,2.214 -2.214,2.214 -1.222,0 -2.213,-0.991 -2.213,-2.214 V 18.126 c 0,-1.223 0.991,-2.213 2.213,-2.213 h 13.698 V 2.214 C -18.128,0.992 -17.135,0 -15.912,0 Z"
             style="fill:#666666;fill-opacity:1;fill-rule:evenodd;stroke:none"
             id="path1407" />
        </g>
        <g
           id="g1409"
           transform="translate(304.0308,442.6572)">
          <path
             d="M 0,0 C 1.223,0 2.214,0.991 2.214,2.214 2.214,3.436 1.223,4.429 0,4.429 h -13.698 v 13.697 c 0,1.223 -0.993,2.214 -2.216,2.214 h -13.697 v 13.699 c 0,1.222 -0.992,2.214 -2.214,2.214 -1.223,0 -2.216,-0.992 -2.216,-2.214 V 18.126 c 0,-1.223 0.993,-2.213 2.216,-2.213 h 13.697 V 2.214 C -18.128,0.991 -17.137,0 -15.914,0 Z"
             style="fill:#666666;fill-opacity:1;fill-rule:evenodd;stroke:none"
             id="path1411" />
        </g>
        <g
           id="g1413"
           transform="translate(336.9795,170.4004)">
          <path
             d="M 0,0 -166.753,166.751 -176.922,156.58 -10.172,-10.172 Z"
             style="fill:#808080;fill-opacity:1;fill-rule:evenodd;stroke:none"
             id="path1415" />
        </g>
        <g
           id="g1417"
           transform="translate(177.2446,344.9321)">
          <path
             d="m 0,0 71.574,-47.322 -9.061,-9.06 -71.574,47.321 z m 167.515,-167.516 -47.322,71.574 -9.06,-9.06 47.322,-71.573 z"
             style="fill:#808080;fill-opacity:1;fill-rule:evenodd;stroke:none"
             id="path1419" />
        </g>
        <g
           id="g1421"
           transform="translate(384.71,173.0498)">
          <path
             d="m 0,0 -39.338,39.34 -60.553,-60.554 39.337,-39.338 z"
             style="fill:#1a1a1a;fill-opacity:1;fill-rule:evenodd;stroke:none"
             id="path1423" />
        </g>
        <g
           id="g1425"
           transform="translate(375.6494,169.29)">
          <path
             d="M 0,0 C 1.223,0 2.216,0.99 2.216,2.214 2.216,3.435 1.223,4.427 0,4.427 h -13.698 v 13.698 c 0,1.223 -0.991,2.214 -2.214,2.214 h -13.699 v 13.697 c 0,1.226 -0.991,2.217 -2.214,2.217 -1.223,0 -2.214,-0.991 -2.214,-2.217 V 18.125 c 0,-1.221 0.991,-2.214 2.214,-2.214 h 13.697 V 2.214 C -18.128,0.99 -17.135,0 -15.912,0 Z"
             style="fill:#666666;fill-opacity:1;fill-rule:evenodd;stroke:none"
             id="path1427" />
        </g>
        <g
           id="g1429"
           transform="translate(361.6914,155.3291)">
          <path
             d="M 0,0 C 1.223,0 2.214,0.991 2.214,2.216 2.214,3.436 1.223,4.43 0,4.43 h -13.698 c -0.002,4.566 -0.002,9.131 0,13.698 0,1.223 -0.993,2.214 -2.216,2.214 h -13.698 v 13.697 c 0,1.226 -0.99,2.214 -2.214,2.214 -1.222,0 -2.213,-0.988 -2.213,-2.214 V 18.128 c 0,-1.223 0.991,-2.214 2.213,-2.214 h 13.698 V 2.216 C -18.128,0.991 -17.135,0 -15.914,0 Z"
             style="fill:#666666;fill-opacity:1;fill-rule:evenodd;stroke:none"
             id="path1431" />
        </g>
        <g
           id="g1433"
           transform="translate(347.7305,141.3691)">
          <path
             d="M 0,0 C 1.226,0 2.216,0.993 2.216,2.216 2.216,3.439 1.226,4.432 0,4.432 h -13.697 v 13.697 c 0,1.222 -0.992,2.214 -2.214,2.214 h -13.698 c -0.002,4.566 -0.002,9.132 0,13.698 0,1.223 -0.993,2.214 -2.214,2.214 -1.225,0 -2.216,-0.991 -2.216,-2.214 V 18.129 c 0,-1.225 0.991,-2.213 2.216,-2.213 h 13.698 c -0.002,-4.568 -0.002,-9.135 0,-13.7 0,-1.223 0.991,-2.216 2.214,-2.216 z"
             style="fill:#666666;fill-opacity:1;fill-rule:evenodd;stroke:none"
             id="path1435" />
        </g>
        <g
           id="g1437"
           transform="translate(333.7725,127.4111)">
          <path
             d="M 0,0 C 1.223,0 2.214,0.992 2.214,2.214 2.214,3.438 1.223,4.429 0,4.429 h -13.698 v 13.698 c 0,1.223 -0.991,2.214 -2.214,2.214 h -13.699 v 13.7 c 0,1.221 -0.992,2.214 -2.214,2.214 -1.223,0 -2.214,-0.993 -2.214,-2.214 V 18.127 c 0,-1.223 0.991,-2.214 2.214,-2.214 h 13.7 V 2.214 C -18.125,0.992 -17.134,0 -15.912,0 Z"
             style="fill:#666666;fill-opacity:1;fill-rule:evenodd;stroke:none"
             id="path1439" />
        </g>
        <g
           id="g1441"
           transform="translate(212.2153,345.5444)">
          <path
             d="m 0,0 -39.335,39.337 -60.554,-60.552 39.335,-39.337 z"
             style="fill:#1a1a1a;fill-opacity:1;fill-rule:evenodd;stroke:none"
             id="path1443" />
        </g>
        <g
           id="g1445"
           transform="translate(203.1567,341.7822)">
          <path
             d="M 0,0 C 1.221,0 2.214,0.992 2.214,2.214 2.214,3.438 1.221,4.429 0,4.429 h -13.698 v 13.697 c 0,1.224 -0.993,2.215 -2.215,2.215 h -13.698 v 13.698 c 0,1.223 -0.991,2.215 -2.214,2.215 -1.223,0 -2.216,-0.992 -2.216,-2.215 V 18.126 c 0,-1.221 0.993,-2.213 2.216,-2.213 h 13.698 V 2.214 c 0,-1.222 0.99,-2.214 2.214,-2.214 z"
             style="fill:#666666;fill-opacity:1;fill-rule:evenodd;stroke:none"
             id="path1447" />
        </g>
        <g
           id="g1449"
           transform="translate(189.1982,327.8242)">
          <path
             d="M 0,0 C 1.221,0 2.214,0.99 2.214,2.213 2.214,3.437 1.221,4.427 0,4.427 h -13.7 v 13.699 c 0,1.223 -0.99,2.214 -2.213,2.214 h -13.698 c -0.002,4.567 -0.002,9.133 0,13.699 0,1.223 -0.991,2.214 -2.216,2.214 -1.221,0 -2.214,-0.991 -2.214,-2.214 V 18.126 c 0,-1.223 0.993,-2.215 2.214,-2.215 h 13.7 c -0.002,-4.566 -0.002,-9.132 0,-13.698 0,-1.223 0.991,-2.213 2.214,-2.213 z"
             style="fill:#666666;fill-opacity:1;fill-rule:evenodd;stroke:none"
             id="path1451" />
        </g>
        <g
           id="g1453"
           transform="translate(175.2383,313.8643)">
          <path
             d="M 0,0 C 1.223,0 2.214,0.991 2.214,2.214 2.214,3.438 1.223,4.429 0,4.429 h -13.698 c -0.002,4.566 -0.002,9.132 0,13.698 0,1.223 -0.991,2.214 -2.216,2.214 H -29.612 V 34.04 c 0,1.222 -0.991,2.213 -2.213,2.213 -1.223,0 -2.214,-0.991 -2.214,-2.213 V 18.127 c 0,-1.223 0.991,-2.214 2.214,-2.214 h 13.697 V 2.214 C -18.128,0.991 -17.135,0 -15.914,0 Z"
             style="fill:#666666;fill-opacity:1;fill-rule:evenodd;stroke:none"
             id="path1455" />
        </g>
        <g
           id="g1457"
           transform="translate(161.2778,299.9053)">
          <path
             d="M 0,0 C 1.225,0 2.216,0.991 2.216,2.214 2.216,3.436 1.225,4.429 0,4.429 h -13.698 v 13.699 c 0,1.222 -0.991,2.213 -2.214,2.213 h -13.697 v 13.698 c 0,1.223 -0.992,2.215 -2.214,2.215 -1.223,0 -2.214,-0.992 -2.214,-2.215 V 18.128 c 0,-1.225 0.991,-2.215 2.214,-2.215 h 13.697 V 2.214 C -18.126,0.991 -17.134,0 -15.912,0 Z"
             style="fill:#666666;fill-opacity:1;fill-rule:evenodd;stroke:none"
             id="path1459" />
        </g>
        <g
           id="g1461"
           transform="translate(536.2227,409.6426)">
          <path
             d="m 0,0 -49.929,-15.142 -91.485,91.488 18.524,45.385 29.05,-0.141 L -115.536,69.913 -56.364,10.739 -11,26.124 Z"
             style="fill:#751d00;fill-opacity:1;fill-rule:evenodd;stroke:none"
             id="path1463" />
        </g>
        <g
           id="g1465"
           transform="translate(195.1255,166.1074)">
          <path
             d="m 0,0 c 75.739,23.514 156.923,72.961 228.501,144.541 24.429,24.427 46.274,49.975 65.396,76.042 L 191.393,323.087 C 165.327,303.965 139.778,282.119 115.351,257.691 43.773,186.112 -5.679,104.929 -29.188,29.19 Z"
             style="fill:#cc3300;fill-opacity:1;fill-rule:evenodd;stroke:none"
             id="path1467" />
        </g>
        <g
           id="g1469"
           transform="translate(544.9639,403.6543)">
          <path
             d="m 0,0 -55.941,-16.964 -102.504,102.504 20.755,50.852 27.842,-4.864 -24.308,-57.901 66.3,-66.299 50.83,17.237 z"
             style="fill:#a32900;fill-opacity:1;fill-rule:evenodd;stroke:none"
             id="path1471" />
        </g>
        <g
           id="g1473"
           transform="translate(192.731,168.502)">
          <path
             d="m 0,0 c 71.455,27.795 150.037,79.848 221.615,151.427 24.429,24.427 46.577,49.67 66.269,75.168 l -85.69,85.691 C 176.696,292.593 151.454,270.444 127.026,246.017 55.446,174.437 3.393,95.857 -24.401,24.402 Z"
             style="fill:#e03b04;fill-opacity:1;fill-rule:evenodd;stroke:none"
             id="path1475" />
        </g>
        <g
           id="g1477"
           transform="translate(183.1431,178.0918)">
          <path
             d="m 0,0 c 54.299,44.951 122.456,107.427 194.035,179.006 24.426,24.427 47.792,48.455 69.766,71.671 l -18.346,18.346 C 222.238,247.05 198.209,223.685 173.783,199.258 102.205,127.679 39.726,59.523 -5.225,5.224 Z"
             style="fill:#ffece5;fill-opacity:1;fill-rule:evenodd;stroke:none"
             id="path1479" />
        </g>
        <g
           id="g1481"
           transform="translate(401.8408,393.4307)">
          <path
             d="m 0,0 -8.583,8.583 c -10.086,10.086 -22.395,15.138 -36.657,15.05 -14.264,-0.089 -26.509,-5.296 -36.469,-15.507 -23.733,-24.334 -46.378,-51.031 -66.713,-79.373 31.127,-17.661 53.377,-40.914 68.593,-68.595 28.342,20.337 55.039,42.983 79.373,66.715 10.212,9.96 15.417,22.204 15.507,36.468 C 15.14,-22.394 10.086,-10.087 0,0"
             style="fill:#691a00;fill-opacity:1;fill-rule:evenodd;stroke:none"
             id="path1483" />
        </g>
        <g
           id="g1485"
           transform="translate(592.4688,436.1748)">
          <path
             d="m 0,0 c -59.467,44.354 -113.209,95.314 -157.351,157.349 l -38.452,-25.193 -6.631,-6.631 C -153.49,62.042 -96.189,5.533 -31.823,-45.084 l 6.629,6.63 z"
             style="fill:#ed4209;fill-opacity:1;fill-rule:evenodd;stroke:none"
             id="path1487" />
        </g>
        <g
           id="g1489"
           transform="translate(599.0977,442.8037)">
          <path
             d="m 0,0 c -59.465,44.355 -113.206,95.314 -157.35,157.35 l -45.082,-31.823 C -153.49,62.043 -96.187,5.535 -31.823,-45.083 Z"
             style="fill:#ff7445;fill-opacity:1;fill-rule:evenodd;stroke:none"
             id="path1491" />
        </g>
        <g
           id="g1493"
           transform="translate(310.2998,241.877)">
          <path
             d="M 0,0 C 31.219,61.921 -5.079,96.989 -68.595,68.595 -40.827,53.152 -17.674,30.726 0,0"
             style="fill:#8c766e;fill-opacity:1;fill-rule:evenodd;stroke:none"
             id="path1495" />
        </g>
        <g
           id="g1497"
           transform="translate(307.5591,313.3662)">
          <path
             d="m 0,0 c -8.629,6.108 -20.885,8.477 -35.86,6.285 -5.24,-6.858 -8.467,-14.327 -9.596,-22.432 7.003,-5.279 13.641,-11.116 19.888,-17.54 C -22.187,-20.133 -13.804,-8.84 0,0"
             style="fill:#ab948c;fill-opacity:1;fill-rule:evenodd;stroke:none"
             id="path1499" />
        </g>
        <g
           id="g1501"
           transform="translate(310.2998,241.877)">
          <path
             d="M 0,0 C 3.298,6.544 5.835,12.782 7.673,18.681 -5.939,40.987 -24.49,60.188 -49.029,75.614 -55.2,73.982 -61.738,71.66 -68.595,68.595 -58.13,35.851 -38.09,10.308 0,0"
             style="fill:#b09084;fill-opacity:1;fill-rule:evenodd;stroke:none"
             id="path1503" />
        </g>
        <g
           id="g1505"
           transform="translate(289.2241,295.9863)">
          <path
             d="m 0,0 c -6.586,6.193 -13.795,11.995 -21.666,17.38 -7.474,-13.382 -7.954,-28.879 -0.905,-46.658 4.246,-4.365 8.987,-8.327 14.277,-11.835 C -10.349,-25.228 -7.722,-11.462 0,0"
             style="fill:#ccb6ae;fill-opacity:1;fill-rule:evenodd;stroke:none"
             id="path1507" />
        </g>
        <g
           id="g1509"
           transform="translate(264.9536,315.1182)">
          <path
             d="m 0,0 c 3.543,-2.34 6.957,-4.762 10.243,-7.263 0.765,-0.344 2.088,-0.97 3.811,-1.802 4.523,-2.188 9.99,-6.208 15.328,-11.546 5.337,-5.337 9.357,-10.804 11.545,-15.328 0.665,-1.378 1.201,-2.5 1.564,-3.286 2.676,-3.477 5.207,-7.044 7.6,-10.7 0.456,0.32 0.885,0.678 1.29,1.082 3.982,3.983 3.748,10.581 0.149,18.027 -2.753,5.693 -7.569,12.331 -13.796,18.557 C 31.508,-6.031 24.871,-1.215 19.177,1.537 11.73,5.137 5.134,5.372 1.15,1.389 0.718,0.955 0.333,0.492 0,0"
             style="fill:#4d433f;fill-opacity:1;fill-rule:evenodd;stroke:none"
             id="path1511" />
        </g>
        <g
           id="g1513"
           transform="translate(267.5581,313.3672)">
          <path
             d="m 0,0 c 2.619,-1.792 5.166,-3.629 7.638,-5.512 0.765,-0.344 2.088,-0.97 3.812,-1.802 3.479,-1.684 7.52,-4.452 11.628,-8.071 2.281,3.069 4.946,5.962 8.006,8.678 C 26.102,-2.311 21.045,1.125 16.573,3.288 11.82,5.585 7.413,6.513 3.809,5.846 2.387,3.943 1.113,1.996 0,0"
             style="fill:#7a726f;fill-opacity:1;fill-rule:evenodd;stroke:none"
             id="path1515" />
        </g>
        <g
           id="g1517"
           transform="translate(374.6709,340.8086)">
          <path
             d="M 0,0 C -1.75,17.77 -16.264,32.283 -34.033,34.034 -47.08,35.32 -75.318,20.339 -74.034,7.294 -71.603,-17.399 -51.434,-37.567 -26.741,-40 -13.694,-41.285 1.286,-13.045 0,0"
             style="fill:#361b00;fill-opacity:1;fill-rule:evenodd;stroke:none"
             id="path1519" />
        </g>
        <g
           id="g1521"
           transform="translate(389.4854,355.6235)">
          <path
             d="m 0,0 c -16.467,3.053 -30.98,17.567 -34.035,34.034 -2.24,12.089 9.223,36.812 21.312,34.57 C 10.159,64.362 30.328,44.193 34.57,21.311 36.813,9.222 12.089,-2.242 0,0"
             style="fill:#5e2f00;fill-opacity:1;fill-rule:evenodd;stroke:none"
             id="path1523" />
        </g>
        <g
           id="g1525"
           transform="translate(383.0762,349.2148)">
          <path
             d="m 0,0 c -16.465,3.053 -30.979,17.568 -34.033,34.033 -2.242,12.09 9.221,36.814 21.311,34.571 C 10.159,64.362 30.328,44.194 34.572,21.312 36.813,9.222 12.088,-2.242 0,0"
             style="fill:#361b00;fill-opacity:1;fill-rule:evenodd;stroke:none"
             id="path1527" />
        </g>
      </g>
    </g>
  </g>
</svg>
