<?xml version="1.0" encoding="UTF-8" standalone="no"?>
<!-- Created with Inkscape (http://www.inkscape.org/) -->

<svg
   version="1.1"
   id="svg370"
   width="800"
   height="800"
   viewBox="0 0 800 800"
   sodipodi:docname="code-lock-publicdomain.svg"
   inkscape:version="1.2 (dc2aedaf03, 2022-05-15)"
   xmlns:inkscape="http://www.inkscape.org/namespaces/inkscape"
   xmlns:sodipodi="http://sodipodi.sourceforge.net/DTD/sodipodi-0.dtd"
   xmlns="http://www.w3.org/2000/svg"
   xmlns:svg="http://www.w3.org/2000/svg">
  <defs
     id="defs374">
    <clipPath
       clipPathUnits="userSpaceOnUse"
       id="clipPath386">
      <path
         d="M 0,600 H 600 V 0 H 0 Z"
         id="path384" />
    </clipPath>
  </defs>
  <sodipodi:namedview
     id="namedview372"
     pagecolor="#ffffff"
     bordercolor="#000000"
     borderopacity="0.25"
     inkscape:showpageshadow="2"
     inkscape:pageopacity="0.0"
     inkscape:pagecheckerboard="0"
     inkscape:deskcolor="#d1d1d1"
     showgrid="false"
     inkscape:zoom="1.04625"
     inkscape:cx="400"
     inkscape:cy="400.4779"
     inkscape:window-width="1920"
     inkscape:window-height="1017"
     inkscape:window-x="-8"
     inkscape:window-y="-8"
     inkscape:window-maximized="1"
     inkscape:current-layer="g378">
    <inkscape:page
       x="0"
       y="0"
       id="page376"
       width="800"
       height="800" />
  </sodipodi:namedview>
  <g
     id="g378"
     inkscape:groupmode="layer"
     inkscape:label="Page 1"
     transform="matrix(1.3333333,0,0,-1.3333333,0,800)">
    <g
       id="g380">
      <g
         id="g382"
         clip-path="url(#clipPath386)">
        <g
           id="g388"
           transform="translate(203.5322,282.8965)">
          <path
             d="m 0,0 v 169.577 c 0,49.394 27.381,81.207 62.428,95.295 13.238,5.32 27.421,7.981 41.443,7.981 14.02,0 28.201,-2.661 41.439,-7.981 35.048,-14.088 62.43,-45.901 62.43,-95.295 V 0 h -55.062 v 169.577 c 0,23.32 -12.194,38.046 -27.801,44.319 -6.46,2.596 -13.654,3.895 -21.006,3.895 -7.354,0 -14.549,-1.299 -21.009,-3.895 -15.608,-6.273 -27.8,-20.999 -27.8,-44.319 V 0 Z"
             style="fill:#e8e8e7;fill-opacity:1;fill-rule:evenodd;stroke:none"
             id="path390" />
        </g>
        <g
           id="g392"
           transform="translate(250.2949,325.1436)">
          <path
             d="m 0,0 v 126.455 c 0,75.552 114.216,75.552 114.216,0 V 0"
             style="fill:none;stroke:#b2b1b0;stroke-width:7.959;stroke-linecap:butt;stroke-linejoin:miter;stroke-miterlimit:22.926;stroke-dasharray:none;stroke-opacity:1"
             id="path394" />
        </g>
        <g
           id="g396"
           transform="translate(224.1563,302.2158)">
          <path
             d="m 0,0 h 7.691 v 151.587 c 0,30.617 15.527,57.467 44.459,69.097 9.853,3.959 20.493,5.84 31.097,5.84 10.602,0 21.242,-1.881 31.093,-5.84 28.935,-11.63 44.46,-38.48 44.46,-69.097 V 0 h 7.69 v 151.587 c 0,34.912 -16.516,62.902 -49.386,76.114 -10.719,4.307 -22.31,6.513 -33.857,6.513 -11.549,0 -23.142,-2.206 -33.859,-6.513 C 16.52,214.489 0,186.499 0,151.587 Z"
             style="fill:#1c1a19;fill-opacity:1;fill-rule:evenodd;stroke:none"
             id="path398" />
        </g>
        <path
           d="M 180.905,112.031 H 433.897 V 362.495 H 180.905 Z"
           style="fill:#d2b569;fill-opacity:1;fill-rule:evenodd;stroke:none"
           id="path400" />
        <path
           d="M 218.242,112.031 H 396.561 V 362.495 H 218.242 Z"
           style="fill:#c8a752;fill-opacity:1;fill-rule:evenodd;stroke:none"
           id="path402" />
        <path
           d="m 180.906,232.539 h 96.424 v -26.224 h -96.424 z m 0,-42.733 h 96.424 v -26.223 h -96.424 z m 0,128.202 h 96.424 v -26.224 h -96.424 z m 0,-42.734 H 277.33 V 249.05 h -96.424 z"
           style="fill:#4b3b1c;fill-opacity:1;fill-rule:evenodd;stroke:none"
           id="path404" />
        <path
           d="m 170.979,209.209 h 103.455 v 20.436 H 170.979 Z m 0,-42.732 h 103.455 v 20.434 H 170.979 Z m 0,128.203 h 103.455 v 20.435 H 170.979 Z m 0,-42.736 h 103.455 v 20.435 H 170.979 Z"
           style="fill:#fdf5d8;fill-opacity:1;fill-rule:evenodd;stroke:none"
           id="path406" />
        <path
           d="m 251.115,166.477 h -56.817 v 20.434 h 56.817 z m 0,42.732 h -56.817 v 20.436 h 56.817 z m 0,85.471 h -56.817 v 20.435 h 56.817 z m -56.817,-42.736 h 56.817 v 20.435 h -56.817 z"
           style="fill:#f9df9e;fill-opacity:1;fill-rule:evenodd;stroke:none"
           id="path408" />
        <path
           d="m 190.502,362.493 h 75.756 v 13.788 h -75.756 z"
           style="fill:#ba9740;fill-opacity:1;fill-rule:evenodd;stroke:none"
           id="path410" />
        <path
           d="m 206.381,362.493 h 16.317 v 13.788 h -16.317 z"
           style="fill:#d2b569;fill-opacity:1;fill-rule:evenodd;stroke:none"
           id="path412" />
        <path
           d="m 233.77,362.493 h 26.37 v 13.788 h -26.37 z"
           style="fill:#a5832f;fill-opacity:1;fill-rule:evenodd;stroke:none"
           id="path414" />
        <path
           d="m 251.115,229.645 h 23.319 v -20.436 h -23.319 z m 0,42.734 h 23.319 v -20.435 h -23.319 z m 0,42.735 h 23.319 v -20.435 h -23.319 z m 0,-128.204 h 23.319 v -20.434 h -23.319 z"
           style="fill:#e0c06f;fill-opacity:1;fill-rule:evenodd;stroke:none"
           id="path416" />
      </g>
    </g>
  </g>
</svg>
