<?xml version="1.0" encoding="UTF-8" standalone="no"?>
<!-- Created with Inkscape (http://www.inkscape.org/) -->

<svg
   version="1.1"
   id="svg7510"
   width="1066.6667"
   height="1066.6667"
   viewBox="0 0 1066.6667 1066.6667"
   sodipodi:docname="pear-tree-pdv.svg"
   inkscape:version="1.2 (dc2aedaf03, 2022-05-15)"
   xmlns:inkscape="http://www.inkscape.org/namespaces/inkscape"
   xmlns:sodipodi="http://sodipodi.sourceforge.net/DTD/sodipodi-0.dtd"
   xmlns="http://www.w3.org/2000/svg"
   xmlns:svg="http://www.w3.org/2000/svg">
  <defs
     id="defs7514">
    <clipPath
       clipPathUnits="userSpaceOnUse"
       id="clipPath7526">
      <path
         d="M 0,800 H 800 V 0 H 0 Z"
         id="path7524" />
    </clipPath>
  </defs>
  <sodipodi:namedview
     id="namedview7512"
     pagecolor="#ffffff"
     bordercolor="#000000"
     borderopacity="0.25"
     inkscape:showpageshadow="2"
     inkscape:pageopacity="0.0"
     inkscape:pagecheckerboard="0"
     inkscape:deskcolor="#d1d1d1"
     showgrid="false"
     inkscape:zoom="0.7846874"
     inkscape:cx="533.3334"
     inkscape:cy="533.97059"
     inkscape:window-width="1920"
     inkscape:window-height="1017"
     inkscape:window-x="-8"
     inkscape:window-y="-8"
     inkscape:window-maximized="1"
     inkscape:current-layer="g7518">
    <inkscape:page
       x="0"
       y="0"
       id="page7516"
       width="1066.6667"
       height="1066.6667" />
  </sodipodi:namedview>
  <g
     id="g7518"
     inkscape:groupmode="layer"
     inkscape:label="Page 1"
     transform="matrix(1.3333333,0,0,-1.3333333,0,1066.6667)">
    <g
       id="g7520">
      <g
         id="g7522"
         clip-path="url(#clipPath7526)">
        <g
           id="g7528"
           transform="translate(363.7539,120.0449)">
          <path
             d="M 0,0 C 28.087,56.431 33.161,159.709 14.616,311.069 H 84.564 C 71.721,166.937 81.609,55.445 119.452,-15.91 79.635,-10.606 39.817,-5.304 0,0"
             style="fill:#663300;fill-opacity:1;fill-rule:evenodd;stroke:none"
             id="path7530" />
        </g>
        <g
           id="g7532"
           transform="translate(437.373,127.7109)">
          <path
             d="M 0,0 C -4.841,23.54 -2.15,40.144 8.039,49.842 2.461,35.105 2.738,20.373 8.632,5.64 7.12,30.334 10.933,49.274 24.058,58.145 15.01,43.035 14.258,27.925 18.66,12.813 18.784,34.314 22.201,44.508 39.187,52.807 25.332,40.103 28.758,27.631 28.83,11.127 28.846,7.59 23.331,0.607 23.465,-2.963 15.643,-1.976 7.822,-0.99 0,0"
             style="fill:#94ab13;fill-opacity:1;fill-rule:evenodd;stroke:none"
             id="path7534" />
        </g>
        <g
           id="g7536"
           transform="translate(382.7354,120.0449)">
          <path
             d="M 0,0 C 14.138,56.431 16.693,159.709 7.355,311.069 H 42.569 C 36.104,166.937 41.082,55.445 60.131,-15.91 40.087,-10.606 20.043,-5.304 0,0"
             style="fill:#874c10;fill-opacity:1;fill-rule:evenodd;stroke:none"
             id="path7538" />
        </g>
        <g
           id="g7540"
           transform="translate(221.6475,686.6616)">
          <path
             d="m 0,0 c 10.781,-4.031 17.935,-9.288 21.783,-15.677 1.252,4.989 4.304,9.78 8.915,14.376 6.243,-15.097 3.836,-25.529 -5.893,-32.075 l -0.006,0.007 C 8.173,-29.524 0.595,-17.677 0,0"
             style="fill:#82970a;fill-opacity:1;fill-rule:evenodd;stroke:none"
             id="path7542" />
        </g>
        <g
           id="g7544"
           transform="translate(379.3652,138.5107)">
          <path
             d="M 0,0 C 4.351,12.348 7.704,47.433 -22.355,66.482 5.23,60.714 13.952,34.303 14.132,-1.452 17.259,20.642 17.383,31.462 28.075,39.485 21.873,26.868 22.283,8.019 26.591,-12.132 30.361,-0.489 34.336,10.671 44.094,8.335 34.76,1.92 36.069,-11.259 39.546,-25.813 28.629,-18.099 10.916,-7.712 0,0"
             style="fill:#a7bf1c;fill-opacity:1;fill-rule:evenodd;stroke:none"
             id="path7546" />
        </g>
        <g
           id="g7548"
           transform="translate(237.5708,605.4839)">
          <path
             d="m 0,0 c -43.941,0 -79.562,-28.116 -79.562,-62.8 0,-26.17 20.284,-48.598 49.117,-58.032 -4.86,-9.222 -7.586,-19.55 -7.586,-30.457 0,-34.047 26.533,-62.463 61.838,-69.123 -1.64,-5.241 -2.509,-10.701 -2.509,-16.311 0,-39.648 43.297,-71.788 96.706,-71.788 45.513,0 83.676,23.343 93.967,54.777 19.256,-8.406 41.823,-13.246 65.955,-13.246 70.597,0 127.824,41.398 127.824,92.467 0,14.669 -4.732,28.538 -13.135,40.861 9.697,10.589 15.508,24.058 15.508,38.724 0,34.078 -31.344,61.704 -70.007,61.704 -33.734,0 -61.892,-21.029 -68.527,-49.022 -64.212,-2.992 -115.507,-40.279 -119.256,-86.805 -10.11,2.662 -20.99,4.115 -32.329,4.115 -0.686,0 -1.372,-0.008 -2.053,-0.018 0.953,4.421 1.46,8.989 1.46,13.665 0,28.111 -18.09,52.386 -44.272,63.742 4.131,7.595 6.421,15.959 6.421,24.747 C 79.56,-28.116 43.94,0 0,0 m 219.456,130.199 c 37.517,0 67.93,-30.474 67.93,-68.066 0,-37.591 -30.413,-68.067 -67.93,-68.067 -37.515,0 -67.928,30.476 -67.928,68.067 0,37.592 30.413,68.066 67.928,68.066"
             style="fill:#82970a;fill-opacity:1;fill-rule:evenodd;stroke:none"
             id="path7550" />
        </g>
        <g
           id="g7552"
           transform="translate(297.1304,311.5664)">
          <path
             d="m 0,0 c 0.906,9.607 6.372,16.993 12.981,16.993 7.008,0 12.731,-8.302 13.095,-18.75 0.118,-3.417 0.891,-6.457 2.384,-9.313 C 18.095,-8.561 8.497,-4.791 0,0"
             style="fill:#788c05;fill-opacity:1;fill-rule:evenodd;stroke:none"
             id="path7554" />
        </g>
        <g
           id="g7556"
           transform="translate(607.8467,565.3745)">
          <path
             d="m 0,0 c -9.631,4.398 -20.566,6.886 -32.16,6.886 -33.734,0 -61.892,-21.029 -68.526,-49.023 -64.212,-2.992 -115.507,-40.279 -119.256,-86.804 -10.111,2.662 -20.991,4.115 -32.329,4.115 -0.687,0 -1.373,-0.009 -2.054,-0.019 0.953,4.421 1.46,8.99 1.46,13.665 0,28.112 -18.09,52.386 -44.272,63.742 4.131,7.595 6.421,15.959 6.421,24.748 0,34.683 -35.62,62.799 -79.56,62.799 -17.456,0 -33.595,-4.44 -46.712,-11.963 2.803,-16.954 14.156,-30.66 28.51,-39.993 -7.212,-11.606 -11.367,-24.743 -11.367,-38.757 0,-6.087 0.79,-12.138 2.344,-18.023 5.778,-21.898 21.368,-39.416 40.2,-51.331 17.543,-11.1 37.961,-17.544 58.629,-19.784 -0.217,-2.217 -0.327,-4.447 -0.327,-6.682 0,-8.66 1.632,-17.189 4.793,-25.25 13.244,-33.774 49.13,-52.47 84.202,-52.47 35.073,0 70.959,18.696 84.201,52.47 3.162,8.061 4.793,16.59 4.793,25.25 0,1.224 -0.033,2.446 -0.098,3.667 17.933,1.706 35.985,6.615 51.491,15.429 16.249,9.234 30.726,23.605 34.376,42.581 0.564,2.941 0.85,5.93 0.85,8.926 0,6.995 -1.551,13.674 -4.341,19.881 C -19.181,-42.565 -4.371,-23.132 0,0 m -82.896,102.744 c 0,-0.167 0.006,-0.334 0.006,-0.501 0,-37.592 -30.413,-68.067 -67.929,-68.067 -37.516,0 -67.929,30.475 -67.929,68.067 0,30.604 20.16,56.49 47.897,65.055 19.464,-15.668 33.183,-37.879 36.643,-63.874 7.88,1.4 15.883,2.089 23.888,2.089 9.189,0 18.406,-0.915 27.424,-2.769"
             style="fill:#788c05;fill-opacity:1;fill-rule:evenodd;stroke:none"
             id="path7558" />
        </g>
        <g
           id="g7560"
           transform="translate(317.2344,449.3276)">
          <path
             d="m 0,0 c -57.426,1.281 -103.446,36.039 -103.446,78.736 0,15.644 6.178,30.224 16.833,42.481 -20.79,9.201 -34.644,25.657 -34.644,44.431 0,27.798 30.366,50.518 68.659,52.117 -0.015,0.666 -0.027,1.334 -0.027,2.002 0,49.822 43.233,90.211 96.563,90.211 53.33,0 96.563,-40.389 96.563,-90.211 0,-0.33 -0.006,-0.661 -0.01,-0.99 10.706,3.106 22.263,4.803 34.317,4.803 55.433,0 100.373,-35.837 100.373,-80.046 0,-27.571 -17.482,-51.886 -44.087,-66.282 5.367,-7.214 8.371,-15.255 8.371,-23.734 0,-30.76 -39.43,-55.762 -88.42,-56.348 1.174,-4.594 1.798,-9.361 1.798,-14.254 0,-36.7 -34.797,-66.449 -77.721,-66.449 -42.923,0 -77.72,29.749 -77.72,66.449 0,5.906 0.906,11.633 2.598,17.084"
             style="fill:#a7bf1c;fill-opacity:1;fill-rule:evenodd;stroke:none"
             id="path7562" />
        </g>
        <g
           id="g7564"
           transform="translate(336.292,709.9019)">
          <path
             d="m 0,0 c 27.031,0 48.945,-16.603 48.945,-37.081 0,-20.478 -21.914,-37.08 -48.945,-37.08 -27.033,0 -48.946,16.602 -48.946,37.08 C -48.946,-16.603 -27.033,0 0,0 m 155.738,-74.754 c 33.422,0 60.514,-21.781 60.514,-48.65 0,-26.869 -27.092,-48.649 -60.514,-48.649 -33.422,0 -60.515,21.78 -60.515,48.649 0,26.869 27.093,48.65 60.515,48.65 m -133.49,-86.027 c 32.766,0 59.329,-18.063 59.329,-40.344 0,-22.281 -26.563,-40.345 -59.329,-40.345 -32.767,0 -59.329,18.064 -59.329,40.345 0,22.281 26.562,40.344 59.329,40.344"
             style="fill:#cfe35d;fill-opacity:1;fill-rule:evenodd;stroke:none"
             id="path7566" />
        </g>
        <g
           id="g7568"
           transform="translate(168.4946,639.6211)">
          <path
             d="M 0,0 C 11.217,2.575 20.083,2.128 26.815,-1.083 25.112,3.771 25.019,9.45 26.336,15.827 39.863,6.667 43.602,-3.365 39.088,-14.19 l -0.007,0.004 C 23.088,-20.138 10.235,-14.424 0,0"
             style="fill:#a7bf1c;fill-opacity:1;fill-rule:evenodd;stroke:none"
             id="path7570" />
        </g>
        <g
           id="g7572"
           transform="translate(136.1206,525.2661)">
          <path
             d="M 0,0 C 6.713,9.35 13.66,14.876 20.835,16.918 16.347,19.432 12.523,23.632 9.296,29.286 25.5,31.358 34.936,26.305 38.707,15.199 L 38.698,15.196 C 30.635,0.157 17.215,-4.055 0,0"
             style="fill:#82970a;fill-opacity:1;fill-rule:evenodd;stroke:none"
             id="path7574" />
        </g>
        <g
           id="g7576"
           transform="translate(225.2827,358.418)">
          <path
             d="M 0,0 C -0.236,11.508 2.008,20.097 6.525,26.034 1.427,25.354 -4.153,26.422 -10.126,29.01 1.596,40.387 12.18,42.002 21.857,35.377 L 21.853,35.369 C 24.42,18.5 16.208,7.081 0,0"
             style="fill:#82970a;fill-opacity:1;fill-rule:evenodd;stroke:none"
             id="path7578" />
        </g>
        <g
           id="g7580"
           transform="translate(539.0742,702.0503)">
          <path
             d="m 0,0 c -6.673,1.106 -11.86,0.522 -15.694,-1.605 0.825,2.909 0.673,6.246 -0.33,9.938 -7.605,-5.862 -9.435,-11.884 -6.397,-18.071 l 0.005,10e-4 C -12.816,-12.65 -5.484,-8.833 0,0"
             style="fill:#82970a;fill-opacity:1;fill-rule:evenodd;stroke:none"
             id="path7582" />
        </g>
        <g
           id="g7584"
           transform="translate(395.5566,274.9385)">
          <path
             d="M 0,0 C 5.783,9.95 7.983,18.552 6.908,25.934 11.04,22.867 16.437,21.098 22.917,20.466 18.176,36.099 9.701,42.642 -1.975,41.537 V 41.528 C -12.395,28.017 -10.745,14.048 0,0"
             style="fill:#82970a;fill-opacity:1;fill-rule:evenodd;stroke:none"
             id="path7586" />
        </g>
        <g
           id="g7588"
           transform="translate(531.5205,314.8516)">
          <path
             d="M 0,0 C 1.868,7.913 1.593,14.183 -0.646,18.952 2.776,17.725 6.788,17.637 11.301,18.538 4.89,28.137 -2.182,30.823 -9.851,27.683 l 0.002,-0.005 C -14.126,16.404 -10.146,7.297 0,0"
             style="fill:#82970a;fill-opacity:1;fill-rule:evenodd;stroke:none"
             id="path7590" />
        </g>
        <g
           id="g7592"
           transform="translate(671.6172,486.8306)">
          <path
             d="m 0,0 c -3.705,10.896 -8.743,18.204 -15.016,22.244 5.028,1.101 9.908,4.009 14.639,8.479 -14.901,6.695 -25.4,4.6 -32.238,-4.927 l 0.008,-0.005 C -29.264,9.058 -17.649,1.126 0,0"
             style="fill:#82970a;fill-opacity:1;fill-rule:evenodd;stroke:none"
             id="path7594" />
        </g>
        <g
           id="g7596"
           transform="translate(259.6689,422.6294)">
          <path
             d="m 0,0 c -4.261,10.692 -5.174,19.523 -3.031,26.668 -4.534,-2.427 -10.135,-3.388 -16.636,-3.06 6.982,14.767 16.324,19.996 27.711,17.191 L 8.043,40.791 C 16.37,25.896 12.69,12.321 0,0"
             style="fill:#a7bf1c;fill-opacity:1;fill-rule:evenodd;stroke:none"
             id="path7598" />
        </g>
        <g
           id="g7600"
           transform="translate(466.2686,368.8203)">
          <path
             d="M 0,0 C 4.261,10.692 5.174,19.523 3.03,26.667 7.566,24.241 13.166,23.28 19.667,23.606 12.685,38.375 3.342,43.605 -8.045,40.8 l 0.002,-0.009 C -16.369,25.895 -12.689,12.321 0,0"
             style="fill:#a7bf1c;fill-opacity:1;fill-rule:evenodd;stroke:none"
             id="path7602" />
        </g>
        <g
           id="g7604"
           transform="translate(419.1836,114.8184)">
          <path
             d="m 0,0 c 57.379,64.51 101.682,61.039 137.671,14.36 3.456,-4.481 4.402,-9.897 2.672,-15.284 -1.728,-5.388 -5.651,-9.241 -11.069,-10.875 C 83.849,-25.485 40.89,-20.547 0,0"
             style="fill:#ab7641;fill-opacity:1;fill-rule:evenodd;stroke:none"
             id="path7606" />
        </g>
        <g
           id="g7608"
           transform="translate(449.8066,133.9277)">
          <path
             d="M 0,0 C 29.212,32.84 52.05,32.549 70.736,10.688 73.3,7.687 74.075,3.895 72.896,0.133 71.715,-3.634 68.911,-6.306 65.096,-7.304 42.286,-13.266 20.648,-10.377 0,0"
             style="fill:#bf8b56;fill-opacity:1;fill-rule:evenodd;stroke:none"
             id="path7610" />
        </g>
        <g
           id="g7612"
           transform="translate(263.6895,102.0684)">
          <path
             d="M 0,0 C 48.466,91.48 113.206,79.08 187.766,3.96 133.931,-31.827 73.731,-37.914 8.243,-19.314 c -4.057,1.151 -7.075,3.81 -8.73,7.689 C -2.142,-7.746 -1.975,-3.727 0,0"
             style="fill:#996633;fill-opacity:1;fill-rule:evenodd;stroke:none"
             id="path7614" />
        </g>
        <g
           id="g7616"
           transform="translate(293.5093,130.5586)">
          <path
             d="m 0,0 c 22.917,39.052 52.288,36.908 85.856,7.952 2.932,-2.528 4.275,-6.068 3.758,-9.906 -0.519,-3.839 -2.75,-6.898 -6.249,-8.56 C 59.853,-21.686 34.274,-23.216 6.913,-16.425 3.396,-15.552 0.746,-13.285 -0.66,-9.942 -2.065,-6.604 -1.835,-3.123 0,0"
             style="fill:#b07e4c;fill-opacity:1;fill-rule:evenodd;stroke:none"
             id="path7618" />
        </g>
        <g
           id="g7620"
           transform="translate(368.7246,74.3398)">
          <path
             d="m 0,0 c 57.38,64.508 101.684,61.037 137.671,14.358 3.456,-4.481 4.402,-9.894 2.674,-15.282 -1.73,-5.389 -5.653,-9.243 -11.071,-10.874 C 83.85,-25.484 40.891,-20.546 0,0"
             style="fill:#8c5b2a;fill-opacity:1;fill-rule:evenodd;stroke:none"
             id="path7622" />
        </g>
        <g
           id="g7624"
           transform="translate(399.3486,93.4473)">
          <path
             d="M 0,0 C 29.212,32.84 52.051,32.551 70.736,10.688 73.3,7.689 74.076,3.894 72.895,0.133 71.715,-3.632 68.912,-6.304 65.095,-7.302 42.286,-13.266 20.647,-10.374 0,0"
             style="fill:#a87745;fill-opacity:1;fill-rule:evenodd;stroke:none"
             id="path7626" />
        </g>
        <g
           id="g7628"
           transform="translate(272.6743,589.9111)">
          <path
             d="M 0,0 C -1.298,7.346 -0.624,13.108 6.407,13.762 8.072,11.907 8.419,10.343 7.41,9.083 0.138,11.398 0.677,5.322 1.503,-1.059 1.003,-0.705 0.5,-0.353 0,0"
             style="fill:#996633;fill-opacity:1;fill-rule:evenodd;stroke:none"
             id="path7630" />
        </g>
        <g
           id="g7632"
           transform="translate(289.8994,563.4097)">
          <path
             d="m 0,0 c 1.636,-2.216 2.584,-4.846 2.584,-7.668 0,-7.878 -7.385,-14.264 -16.494,-14.264 -9.108,0 -16.493,6.386 -16.493,14.264 0,2.822 0.948,5.452 2.583,7.668 2.217,3 3.32,6.165 3.45,9.893 0.29,8.346 4.863,14.979 10.46,14.979 5.598,0 10.17,-6.633 10.461,-14.979 C -3.319,6.165 -2.215,3 0,0"
             style="fill:#9bb316;fill-opacity:1;fill-rule:evenodd;stroke:none"
             id="path7634" />
        </g>
        <g
           id="g7636"
           transform="translate(286.8584,566.5981)">
          <path
             d="m 0,0 c 1.635,-2.214 2.584,-4.845 2.584,-7.666 0,-7.879 -7.384,-14.265 -16.494,-14.265 -9.108,0 -16.491,6.386 -16.491,14.265 0,2.821 0.946,5.452 2.583,7.666 2.214,3 3.318,6.166 3.448,9.895 0.29,8.346 4.862,14.977 10.46,14.977 5.598,0 10.171,-6.631 10.461,-14.977 C -3.319,6.166 -2.215,3 0,0"
             style="fill:#f5ac00;fill-opacity:1;fill-rule:evenodd;stroke:none"
             id="path7638" />
        </g>
        <g
           id="g7640"
           transform="translate(278.9458,565.4585)">
          <path
             d="m 0,0 c -2.809,3.857 -4.232,8.063 -4.351,12.854 -0.062,2.475 -0.63,5.169 -1.909,7.301 -0.573,0.956 -1.622,2.28 -2.789,2.529 -0.123,0.027 -0.247,0.04 -0.372,0.04 -0.126,0 -0.25,-0.013 -0.373,-0.04 -1.172,-0.249 -2.248,-1.573 -2.84,-2.529 -1.321,-2.132 -1.945,-4.826 -2.057,-7.301 -0.214,-4.791 -1.724,-8.997 -4.61,-12.854 -0.992,-1.325 -1.576,-2.863 -1.593,-4.523 -0.057,-5.682 6.008,-8.968 11.108,-8.968 5.102,0 11.232,3.286 11.289,8.968 C 1.52,-2.863 0.967,-1.325 0,0"
             style="fill:#ffbb00;fill-opacity:1;fill-rule:evenodd;stroke:none"
             id="path7642" />
        </g>
        <g
           id="g7644"
           transform="translate(286.8584,566.5981)">
          <path
             d="m 0,0 c 1.635,-2.214 2.584,-4.845 2.584,-7.666 0,-7.879 -7.384,-14.265 -16.494,-14.265 -0.292,0 -0.583,0.006 -0.874,0.021 7.848,1.465 13.887,7.317 14.146,14.316 0.107,2.904 -0.795,5.609 -2.439,7.886 -2.229,3.086 -3.275,6.342 -3.27,10.177 0.008,6.558 -2.666,12.087 -6.565,14.333 5.133,-0.734 9.19,-7.063 9.463,-14.907 C -3.319,6.166 -2.215,3 0,0"
             style="fill:#e39f00;fill-opacity:1;fill-rule:evenodd;stroke:none"
             id="path7646" />
        </g>
        <g
           id="g7648"
           transform="translate(266.0771,554.1392)">
          <path
             d="M 0,0 C 2.978,0 5.405,2.234 5.405,4.974 5.405,7.715 2.978,9.949 0,9.949 -2.977,9.949 -5.405,7.715 -5.405,4.974 -5.405,2.234 -2.977,0 0,0"
             style="fill:#ffd769;fill-opacity:1;fill-rule:evenodd;stroke:none"
             id="path7650" />
        </g>
        <g
           id="g7652"
           transform="translate(401.3555,647.0884)">
          <path
             d="M 0,0 C -1.296,7.347 -0.623,13.108 6.407,13.763 8.072,11.907 8.42,10.343 7.41,9.083 0.14,11.399 0.678,5.324 1.505,-1.059 1.004,-0.706 0.502,-0.352 0,0"
             style="fill:#996633;fill-opacity:1;fill-rule:evenodd;stroke:none"
             id="path7654" />
        </g>
        <g
           id="g7656"
           transform="translate(418.5811,620.5869)">
          <path
             d="m 0,0 c 1.636,-2.214 2.584,-4.845 2.584,-7.667 0,-7.879 -7.385,-14.264 -16.494,-14.264 -9.109,0 -16.491,6.385 -16.491,14.264 0,2.822 0.948,5.453 2.583,7.667 2.214,3 3.318,6.165 3.449,9.894 0.29,8.347 4.862,14.978 10.459,14.978 5.599,0 10.171,-6.631 10.461,-14.978 C -3.319,6.165 -2.214,3 0,0"
             style="fill:#9bb316;fill-opacity:1;fill-rule:evenodd;stroke:none"
             id="path7658" />
        </g>
        <g
           id="g7660"
           transform="translate(415.541,623.7754)">
          <path
             d="m 0,0 c 1.635,-2.214 2.583,-4.845 2.583,-7.667 0,-7.877 -7.384,-14.264 -16.494,-14.264 -9.107,0 -16.492,6.387 -16.492,14.264 0,2.822 0.949,5.453 2.584,7.667 2.215,3.002 3.319,6.167 3.449,9.895 0.291,8.346 4.862,14.979 10.459,14.979 5.598,0 10.172,-6.633 10.461,-14.979 C -3.319,6.167 -2.216,3.002 0,0"
             style="fill:#f5ac00;fill-opacity:1;fill-rule:evenodd;stroke:none"
             id="path7662" />
        </g>
        <g
           id="g7664"
           transform="translate(407.6289,622.6372)">
          <path
             d="m 0,0 c -2.809,3.857 -4.232,8.063 -4.352,12.854 -0.06,2.474 -0.63,5.167 -1.91,7.299 -0.572,0.957 -1.621,2.282 -2.788,2.531 -0.124,0.025 -0.247,0.04 -0.372,0.04 -0.127,0 -0.249,-0.015 -0.373,-0.04 -1.173,-0.249 -2.247,-1.574 -2.84,-2.531 -1.321,-2.132 -1.943,-4.825 -2.055,-7.299 C -14.906,8.063 -16.415,3.857 -19.301,0 c -0.993,-1.327 -1.576,-2.863 -1.594,-4.523 -0.056,-5.683 6.007,-8.97 11.109,-8.97 5.101,0 11.231,3.287 11.288,8.97 C 1.52,-2.863 0.966,-1.327 0,0"
             style="fill:#ffbb00;fill-opacity:1;fill-rule:evenodd;stroke:none"
             id="path7666" />
        </g>
        <g
           id="g7668"
           transform="translate(415.541,623.7754)">
          <path
             d="m 0,0 c 1.635,-2.214 2.583,-4.845 2.583,-7.667 0,-7.877 -7.384,-14.264 -16.494,-14.264 -0.292,0 -0.583,0.007 -0.874,0.02 7.848,1.467 13.889,7.319 14.146,14.317 0.109,2.904 -0.795,5.61 -2.438,7.886 -2.229,3.087 -3.275,6.343 -3.271,10.177 0.008,6.56 -2.664,12.089 -6.565,14.333 C -7.778,24.068 -3.722,17.739 -3.45,9.895 -3.319,6.167 -2.216,3.002 0,0"
             style="fill:#e39f00;fill-opacity:1;fill-rule:evenodd;stroke:none"
             id="path7670" />
        </g>
        <g
           id="g7672"
           transform="translate(394.7598,611.3164)">
          <path
             d="M 0,0 C 2.978,0 5.404,2.234 5.404,4.975 5.404,7.715 2.978,9.95 0,9.95 -2.977,9.95 -5.404,7.715 -5.404,4.975 -5.404,2.234 -2.977,0 0,0"
             style="fill:#ffd769;fill-opacity:1;fill-rule:evenodd;stroke:none"
             id="path7674" />
        </g>
        <g
           id="g7676"
           transform="translate(460.5166,520.6216)">
          <path
             d="m 0,0 c -1.623,9.195 -0.781,16.408 8.02,17.228 2.084,-2.324 2.52,-4.282 1.256,-5.86 C 0.173,14.268 0.849,6.663 1.883,-1.325 1.255,-0.884 0.628,-0.442 0,0"
             style="fill:#996633;fill-opacity:1;fill-rule:evenodd;stroke:none"
             id="path7678" />
        </g>
        <g
           id="g7680"
           transform="translate(482.0801,487.4478)">
          <path
             d="m 0,0 c 2.047,-2.773 3.233,-6.066 3.233,-9.599 0,-9.862 -9.244,-17.855 -20.646,-17.855 -11.401,0 -20.645,7.993 -20.645,17.855 0,3.533 1.187,6.826 3.234,9.599 2.774,3.755 4.154,7.718 4.318,12.384 0.363,10.448 6.086,18.751 13.093,18.751 7.008,0 12.731,-8.303 13.095,-18.751 C -4.156,7.718 -2.773,3.755 0,0"
             style="fill:#9bb316;fill-opacity:1;fill-rule:evenodd;stroke:none"
             id="path7682" />
        </g>
        <g
           id="g7684"
           transform="translate(478.2734,491.439)">
          <path
             d="m 0,0 c 2.047,-2.771 3.233,-6.064 3.233,-9.597 0,-9.862 -9.243,-17.855 -20.646,-17.855 -11.401,0 -20.645,7.993 -20.645,17.855 0,3.533 1.187,6.826 3.234,9.597 2.773,3.756 4.156,7.719 4.318,12.384 0.364,10.449 6.087,18.751 13.093,18.751 7.009,0 12.731,-8.302 13.095,-18.751 C -4.155,7.719 -2.774,3.756 0,0"
             style="fill:#f5ac00;fill-opacity:1;fill-rule:evenodd;stroke:none"
             id="path7686" />
        </g>
        <g
           id="g7688"
           transform="translate(468.3691,490.0122)">
          <path
             d="m 0,0 c -3.517,4.829 -5.3,10.094 -5.447,16.091 -0.077,3.098 -0.789,6.47 -2.389,9.138 -0.72,1.198 -2.032,2.855 -3.493,3.167 -0.153,0.033 -0.309,0.049 -0.466,0.049 -0.156,0 -0.312,-0.016 -0.466,-0.049 -1.467,-0.312 -2.813,-1.969 -3.554,-3.167 -1.656,-2.668 -2.435,-6.04 -2.574,-9.138 C -18.658,10.094 -20.547,4.829 -24.162,0 c -1.241,-1.658 -1.973,-3.584 -1.993,-5.66 -0.072,-7.114 7.519,-11.227 13.905,-11.227 6.384,0 14.06,4.113 14.129,11.227 C 1.901,-3.584 1.209,-1.658 0,0"
             style="fill:#ffbb00;fill-opacity:1;fill-rule:evenodd;stroke:none"
             id="path7690" />
        </g>
        <g
           id="g7692"
           transform="translate(478.2734,491.439)">
          <path
             d="m 0,0 c 2.047,-2.771 3.233,-6.064 3.233,-9.597 0,-9.862 -9.243,-17.855 -20.646,-17.855 -0.366,0 -0.73,0.008 -1.093,0.024 9.822,1.835 17.383,9.162 17.707,17.922 0.134,3.634 -0.995,7.021 -3.053,9.871 -2.79,3.864 -4.1,7.94 -4.094,12.739 0.011,8.21 -3.335,15.13 -8.217,17.942 C -9.737,30.13 -4.66,22.205 -4.318,12.384 -4.155,7.719 -2.774,3.756 0,0"
             style="fill:#e39f00;fill-opacity:1;fill-rule:evenodd;stroke:none"
             id="path7694" />
        </g>
        <g
           id="g7696"
           transform="translate(452.2607,475.8433)">
          <path
             d="m 0,0 c 3.726,0 6.765,2.797 6.765,6.228 0,3.428 -3.039,6.226 -6.765,6.226 -3.727,0 -6.766,-2.798 -6.766,-6.226 C -6.766,2.797 -3.727,0 0,0"
             style="fill:#ffd769;fill-opacity:1;fill-rule:evenodd;stroke:none"
             id="path7698" />
        </g>
        <g
           id="g7700"
           transform="translate(377.374,434.8911)">
          <path
             d="M 0,0 C -1.297,7.347 -0.625,13.109 6.407,13.763 8.072,11.907 8.42,10.343 7.41,9.083 0.138,11.398 0.678,5.323 1.504,-1.058 1.002,-0.704 0.501,-0.353 0,0"
             style="fill:#996633;fill-opacity:1;fill-rule:evenodd;stroke:none"
             id="path7702" />
        </g>
        <g
           id="g7704"
           transform="translate(394.5996,408.3901)">
          <path
             d="m 0,0 c 1.636,-2.215 2.582,-4.846 2.582,-7.669 0,-7.877 -7.384,-14.263 -16.492,-14.263 -9.108,0 -16.492,6.386 -16.492,14.263 0,2.823 0.947,5.454 2.584,7.669 2.215,3 3.318,6.165 3.448,9.894 0.291,8.346 4.863,14.979 10.46,14.979 5.597,0 10.17,-6.633 10.461,-14.979 C -3.319,6.165 -2.216,3 0,0"
             style="fill:#9bb316;fill-opacity:1;fill-rule:evenodd;stroke:none"
             id="path7706" />
        </g>
        <g
           id="g7708"
           transform="translate(391.5586,411.5796)">
          <path
             d="m 0,0 c 1.636,-2.214 2.584,-4.846 2.584,-7.668 0,-7.878 -7.385,-14.264 -16.494,-14.264 -9.109,0 -16.492,6.386 -16.492,14.264 0,2.822 0.948,5.454 2.584,7.668 2.214,3 3.318,6.164 3.449,9.893 0.291,8.346 4.862,14.979 10.459,14.979 5.599,0 10.17,-6.633 10.461,-14.979 C -3.318,6.164 -2.215,3 0,0"
             style="fill:#f5ac00;fill-opacity:1;fill-rule:evenodd;stroke:none"
             id="path7710" />
        </g>
        <g
           id="g7712"
           transform="translate(383.6475,410.4399)">
          <path
             d="m 0,0 c -2.81,3.857 -4.234,8.063 -4.353,12.854 -0.061,2.473 -0.63,5.167 -1.909,7.299 -0.573,0.957 -1.622,2.282 -2.789,2.531 -0.123,0.026 -0.246,0.04 -0.371,0.04 -0.127,0 -0.251,-0.014 -0.373,-0.04 -1.173,-0.249 -2.247,-1.574 -2.841,-2.531 -1.32,-2.132 -1.944,-4.826 -2.055,-7.299 C -14.906,8.063 -16.415,3.857 -19.303,0 c -0.992,-1.326 -1.574,-2.863 -1.592,-4.522 -0.057,-5.684 6.007,-8.97 11.108,-8.97 5.101,0 11.231,3.286 11.289,8.97 C 1.518,-2.863 0.966,-1.326 0,0"
             style="fill:#ffbb00;fill-opacity:1;fill-rule:evenodd;stroke:none"
             id="path7714" />
        </g>
        <g
           id="g7716"
           transform="translate(391.5586,411.5796)">
          <path
             d="m 0,0 c 1.636,-2.214 2.584,-4.846 2.584,-7.668 0,-7.878 -7.385,-14.264 -16.494,-14.264 -0.292,0 -0.583,0.007 -0.874,0.019 7.848,1.466 13.887,7.32 14.146,14.319 0.107,2.902 -0.795,5.608 -2.438,7.886 -2.229,3.085 -3.276,6.342 -3.271,10.176 0.008,6.559 -2.664,12.088 -6.565,14.333 5.135,-0.733 9.19,-7.064 9.463,-14.908 C -3.318,6.164 -2.215,3 0,0"
             style="fill:#e39f00;fill-opacity:1;fill-rule:evenodd;stroke:none"
             id="path7718" />
        </g>
        <g
           id="g7720"
           transform="translate(370.7783,399.1206)">
          <path
             d="M 0,0 C 2.976,0 5.404,2.234 5.404,4.974 5.404,7.713 2.976,9.949 0,9.949 -2.978,9.949 -5.405,7.713 -5.405,4.974 -5.405,2.234 -2.978,0 0,0"
             style="fill:#ffd769;fill-opacity:1;fill-rule:evenodd;stroke:none"
             id="path7722" />
        </g>
        <g
           id="g7724"
           transform="translate(351.0371,534.0854)">
          <path
             d="M 0,0 C -1.173,6.635 -0.563,11.839 5.787,12.428 7.289,10.753 7.604,9.34 6.693,8.202 0.124,10.293 0.611,4.807 1.357,-0.956 0.905,-0.639 0.452,-0.319 0,0"
             style="fill:#996633;fill-opacity:1;fill-rule:evenodd;stroke:none"
             id="path7726" />
        </g>
        <g
           id="g7728"
           transform="translate(366.5938,510.1509)">
          <path
             d="m 0,0 c 1.478,-2 2.332,-4.376 2.332,-6.925 0,-7.114 -6.668,-12.882 -14.895,-12.882 -8.225,0 -14.894,5.768 -14.894,12.882 0,2.549 0.856,4.925 2.333,6.925 2.001,2.709 2.997,5.568 3.114,8.936 0.262,7.538 4.393,13.527 9.447,13.527 5.055,0 9.186,-5.989 9.447,-13.527 C -2.998,5.568 -2.001,2.709 0,0"
             style="fill:#bfd446;fill-opacity:1;fill-rule:evenodd;stroke:none"
             id="path7730" />
        </g>
        <g
           id="g7732"
           transform="translate(363.8477,513.0317)">
          <path
             d="m 0,0 c 1.475,-2.001 2.332,-4.377 2.332,-6.925 0,-7.115 -6.668,-12.883 -14.895,-12.883 -8.225,0 -14.894,5.768 -14.894,12.883 0,2.548 0.855,4.924 2.333,6.925 2.001,2.708 2.997,5.567 3.115,8.935 0.261,7.538 4.391,13.527 9.446,13.527 5.056,0 9.185,-5.989 9.448,-13.527 C -2.998,5.567 -2.001,2.708 0,0"
             style="fill:#f5ac00;fill-opacity:1;fill-rule:evenodd;stroke:none"
             id="path7734" />
        </g>
        <g
           id="g7736"
           transform="translate(356.7012,512.0024)">
          <path
             d="m 0,0 c -2.536,3.483 -3.822,7.282 -3.93,11.609 -0.054,2.235 -0.569,4.666 -1.723,6.593 -0.519,0.863 -1.465,2.06 -2.52,2.283 -0.11,0.025 -0.222,0.038 -0.335,0.038 -0.114,0 -0.226,-0.013 -0.337,-0.038 -1.059,-0.223 -2.03,-1.42 -2.565,-2.283 -1.193,-1.927 -1.756,-4.358 -1.857,-6.593 C -13.462,7.282 -14.823,3.483 -17.432,0 c -0.895,-1.198 -1.423,-2.587 -1.437,-4.083 -0.052,-5.134 5.426,-8.101 10.03,-8.101 4.609,0 10.145,2.967 10.195,8.101 C 1.373,-2.587 0.873,-1.198 0,0"
             style="fill:#ffbb00;fill-opacity:1;fill-rule:evenodd;stroke:none"
             id="path7738" />
        </g>
        <g
           id="g7740"
           transform="translate(363.8477,513.0317)">
          <path
             d="m 0,0 c 1.475,-2.001 2.332,-4.377 2.332,-6.925 0,-7.115 -6.668,-12.883 -14.895,-12.883 -0.264,0 -0.527,0.007 -0.789,0.018 7.086,1.325 12.541,6.61 12.776,12.932 0.096,2.621 -0.718,5.065 -2.203,7.121 -2.013,2.787 -2.958,5.728 -2.953,9.191 0.006,5.922 -2.407,10.917 -5.93,12.944 C -7.025,21.736 -3.361,16.02 -3.115,8.935 -2.998,5.567 -2.001,2.708 0,0"
             style="fill:#e39f00;fill-opacity:1;fill-rule:evenodd;stroke:none"
             id="path7742" />
        </g>
        <g
           id="g7744"
           transform="translate(345.0791,501.7788)">
          <path
             d="M 0,0 C 2.689,0 4.883,2.018 4.883,4.493 4.883,6.967 2.689,8.984 0,8.984 -2.687,8.984 -4.88,6.967 -4.88,4.493 -4.88,2.018 -2.687,0 0,0"
             style="fill:#ffd769;fill-opacity:1;fill-rule:evenodd;stroke:none"
             id="path7746" />
        </g>
        <g
           id="g7748"
           transform="translate(392.9268,734.875)">
          <path
             d="M 0,0 C -0.907,5.141 -0.437,9.173 4.483,9.63 5.648,8.333 5.892,7.238 5.186,6.356 0.097,7.975 0.475,3.725 1.053,-0.741 0.701,-0.494 0.35,-0.246 0,0"
             style="fill:#996633;fill-opacity:1;fill-rule:evenodd;stroke:none"
             id="path7750" />
        </g>
        <g
           id="g7752"
           transform="translate(404.9814,716.3306)">
          <path
             d="m 0,0 c 1.145,-1.55 1.807,-3.391 1.807,-5.366 0,-5.512 -5.167,-9.981 -11.542,-9.981 -6.372,0 -11.54,4.469 -11.54,9.981 0,1.975 0.663,3.816 1.807,5.366 1.551,2.099 2.323,4.314 2.415,6.922 0.203,5.842 3.402,10.482 7.318,10.482 3.919,0 7.118,-4.64 7.321,-10.482 C -2.322,4.314 -1.551,2.099 0,0"
             style="fill:#9bb316;fill-opacity:1;fill-rule:evenodd;stroke:none"
             id="path7754" />
        </g>
        <g
           id="g7756"
           transform="translate(402.8525,718.5625)">
          <path
             d="m 0,0 c 1.145,-1.551 1.809,-3.391 1.809,-5.366 0,-5.512 -5.167,-9.981 -11.542,-9.981 -6.374,0 -11.54,4.469 -11.54,9.981 0,1.975 0.662,3.815 1.807,5.366 1.55,2.099 2.323,4.314 2.413,6.922 0.203,5.842 3.404,10.481 7.32,10.481 3.918,0 7.116,-4.639 7.319,-10.481 C -2.322,4.314 -1.549,2.099 0,0"
             style="fill:#f5ac00;fill-opacity:1;fill-rule:evenodd;stroke:none"
             id="path7758" />
        </g>
        <g
           id="g7760"
           transform="translate(397.3164,717.7646)">
          <path
             d="m 0,0 c -1.966,2.699 -2.962,5.642 -3.045,8.995 -0.043,1.732 -0.441,3.616 -1.336,5.108 -0.4,0.668 -1.135,1.596 -1.952,1.77 -0.086,0.019 -0.173,0.028 -0.259,0.028 -0.09,0 -0.175,-0.009 -0.261,-0.028 -0.821,-0.174 -1.573,-1.102 -1.988,-1.77 -0.925,-1.492 -1.361,-3.376 -1.439,-5.108 -0.151,-3.353 -1.205,-6.296 -3.226,-8.995 -0.694,-0.929 -1.103,-2.004 -1.115,-3.164 -0.039,-3.978 4.203,-6.277 7.773,-6.277 3.57,0 7.86,2.299 7.899,6.277 C 1.064,-2.004 0.676,-0.929 0,0"
             style="fill:#ffbb00;fill-opacity:1;fill-rule:evenodd;stroke:none"
             id="path7762" />
        </g>
        <g
           id="g7764"
           transform="translate(402.8525,718.5625)">
          <path
             d="m 0,0 c 1.145,-1.551 1.809,-3.391 1.809,-5.366 0,-5.512 -5.167,-9.981 -11.542,-9.981 -0.204,0 -0.409,0.004 -0.612,0.014 5.492,1.025 9.717,5.121 9.9,10.018 0.074,2.031 -0.558,3.925 -1.707,5.518 -1.56,2.16 -2.292,4.438 -2.289,7.122 0.006,4.589 -1.865,8.458 -4.593,10.029 3.592,-0.512 6.43,-4.942 6.62,-10.432 C -2.322,4.314 -1.549,2.099 0,0"
             style="fill:#e39f00;fill-opacity:1;fill-rule:evenodd;stroke:none"
             id="path7766" />
        </g>
        <g
           id="g7768"
           transform="translate(388.3115,709.8433)">
          <path
             d="M 0,0 C 2.083,0 3.782,1.563 3.782,3.481 3.782,5.397 2.083,6.962 0,6.962 -2.083,6.962 -3.782,5.397 -3.782,3.481 -3.782,1.563 -2.083,0 0,0"
             style="fill:#ffd769;fill-opacity:1;fill-rule:evenodd;stroke:none"
             id="path7770" />
        </g>
        <g
           id="g7772"
           transform="translate(527.3809,405.3716)">
          <path
             d="M 0,0 C -1.386,7.853 -0.666,14.015 6.85,14.712 8.631,12.729 9.001,11.058 7.924,9.709 0.149,12.185 0.725,5.69 1.609,-1.132 1.073,-0.754 0.537,-0.378 0,0"
             style="fill:#996633;fill-opacity:1;fill-rule:evenodd;stroke:none"
             id="path7774" />
        </g>
        <g
           id="g7776"
           transform="translate(545.7969,377.0381)">
          <path
             d="m 0,0 c 1.748,-2.367 2.764,-5.18 2.764,-8.197 0,-8.422 -7.897,-15.248 -17.632,-15.248 -9.739,0 -17.634,6.826 -17.634,15.248 0,3.017 1.014,5.83 2.76,8.197 2.371,3.207 3.551,6.592 3.688,10.577 0.313,8.923 5.2,16.016 11.186,16.016 5.981,0 10.871,-7.093 11.182,-16.016 C -3.548,6.592 -2.368,3.207 0,0"
             style="fill:#788c05;fill-opacity:1;fill-rule:evenodd;stroke:none"
             id="path7778" />
        </g>
        <g
           id="g7780"
           transform="translate(542.5479,380.4473)">
          <path
             d="m 0,0 c 1.748,-2.366 2.762,-5.179 2.762,-8.197 0,-8.421 -7.894,-15.249 -17.634,-15.249 -9.737,0 -17.632,6.828 -17.632,15.249 0,3.018 1.015,5.831 2.763,8.197 2.368,3.208 3.549,6.593 3.687,10.579 0.31,8.922 5.198,16.013 11.182,16.013 5.986,0 10.873,-7.091 11.184,-16.013 C -3.55,6.593 -2.371,3.208 0,0"
             style="fill:#f5ac00;fill-opacity:1;fill-rule:evenodd;stroke:none"
             id="path7782" />
        </g>
        <g
           id="g7784"
           transform="translate(534.0879,379.2305)">
          <path
             d="m 0,0 c -3.004,4.123 -4.524,8.619 -4.652,13.742 -0.067,2.645 -0.674,5.525 -2.04,7.805 -0.615,1.023 -1.735,2.439 -2.984,2.703 -0.131,0.028 -0.262,0.043 -0.397,0.043 -0.134,0 -0.267,-0.015 -0.398,-0.043 -1.254,-0.264 -2.403,-1.68 -3.037,-2.703 -1.411,-2.28 -2.079,-5.16 -2.197,-7.805 -0.23,-5.123 -1.843,-9.619 -4.928,-13.742 -1.063,-1.419 -1.687,-3.062 -1.704,-4.835 -0.061,-6.076 6.421,-9.59 11.875,-9.59 5.453,0 12.009,3.514 12.069,9.59 C 1.623,-3.062 1.033,-1.419 0,0"
             style="fill:#ffbb00;fill-opacity:1;fill-rule:evenodd;stroke:none"
             id="path7786" />
        </g>
        <g
           id="g7788"
           transform="translate(542.5479,380.4473)">
          <path
             d="m 0,0 c 1.748,-2.366 2.762,-5.179 2.762,-8.197 0,-8.421 -7.894,-15.249 -17.634,-15.249 -0.313,0 -0.624,0.006 -0.934,0.021 8.39,1.567 14.846,7.824 15.122,15.306 0.115,3.104 -0.85,5.997 -2.608,8.432 -2.381,3.298 -3.499,6.781 -3.494,10.879 0.008,7.012 -2.851,12.925 -7.02,15.325 5.489,-0.785 9.824,-7.552 10.118,-15.938 C -3.55,6.593 -2.371,3.208 0,0"
             style="fill:#e39f00;fill-opacity:1;fill-rule:evenodd;stroke:none"
             id="path7790" />
        </g>
        <g
           id="g7792"
           transform="translate(520.3311,367.1289)">
          <path
             d="m 0,0 c 3.183,0 5.778,2.389 5.778,5.318 0,2.928 -2.595,5.319 -5.778,5.319 -3.183,0 -5.778,-2.391 -5.778,-5.319 C -5.778,2.389 -3.183,0 0,0"
             style="fill:#ffd769;fill-opacity:1;fill-rule:evenodd;stroke:none"
             id="path7794" />
        </g>
        <g
           id="g7796"
           transform="translate(305.9604,330.5986)">
          <path
             d="M 0,0 C -1.624,9.196 -0.782,16.409 8.02,17.228 10.105,14.905 10.54,12.947 9.275,11.369 0.173,14.269 0.849,6.663 1.883,-1.324 1.256,-0.883 0.628,-0.443 0,0"
             style="fill:#996633;fill-opacity:1;fill-rule:evenodd;stroke:none"
             id="path7798" />
        </g>
        <g
           id="g7800"
           transform="translate(323.7178,301.417)">
          <path
             d="m 0,0 c 2.046,-2.772 3.232,-6.064 3.232,-9.598 0,-9.863 -9.244,-17.855 -20.645,-17.855 -11.403,0 -20.645,7.992 -20.645,17.855 0,3.534 1.187,6.826 3.234,9.598 2.773,3.756 4.154,7.719 4.317,12.385 0.364,10.447 6.087,18.75 13.094,18.75 7.007,0 12.73,-8.303 13.095,-18.75 C -4.155,7.719 -2.774,3.756 0,0"
             style="fill:#f5ac00;fill-opacity:1;fill-rule:evenodd;stroke:none"
             id="path7802" />
        </g>
        <g
           id="g7804"
           transform="translate(313.813,299.9902)">
          <path
             d="m 0,0 c -3.517,4.829 -5.299,10.094 -5.448,16.092 -0.077,3.095 -0.789,6.469 -2.39,9.137 -0.718,1.197 -2.029,2.855 -3.492,3.167 -0.153,0.032 -0.307,0.049 -0.464,0.049 -0.157,0 -0.313,-0.017 -0.467,-0.049 -1.467,-0.312 -2.814,-1.97 -3.555,-3.167 -1.654,-2.668 -2.435,-6.042 -2.574,-9.137 C -18.659,10.094 -20.548,4.829 -24.161,0 c -1.243,-1.66 -1.973,-3.584 -1.993,-5.66 -0.073,-7.116 7.518,-11.228 13.903,-11.228 6.387,0 14.059,4.112 14.131,11.228 C 1.9,-3.584 1.21,-1.66 0,0"
             style="fill:#ffbb00;fill-opacity:1;fill-rule:evenodd;stroke:none"
             id="path7806" />
        </g>
        <g
           id="g7808"
           transform="translate(323.7178,301.417)">
          <path
             d="m 0,0 c 2.046,-2.772 3.232,-6.064 3.232,-9.598 0,-9.863 -9.244,-17.855 -20.645,-17.855 -0.367,0 -0.731,0.01 -1.093,0.025 9.821,1.832 17.383,9.162 17.706,17.922 0.135,3.634 -0.995,7.021 -3.053,9.872 -2.789,3.863 -4.099,7.939 -4.094,12.739 0.01,8.209 -3.334,15.129 -8.218,17.941 C -9.737,30.128 -4.66,22.204 -4.318,12.385 -4.155,7.719 -2.774,3.756 0,0"
             style="fill:#e39f00;fill-opacity:1;fill-rule:evenodd;stroke:none"
             id="path7810" />
        </g>
        <g
           id="g7812"
           transform="translate(297.7031,285.8203)">
          <path
             d="m 0,0 c 3.728,0 6.766,2.797 6.766,6.227 0,3.43 -3.038,6.228 -6.766,6.228 -3.727,0 -6.765,-2.798 -6.765,-6.228 C -6.765,2.797 -3.727,0 0,0"
             style="fill:#ffd769;fill-opacity:1;fill-rule:evenodd;stroke:none"
             id="path7814" />
        </g>
        <g
           id="g7816"
           transform="translate(598.5752,497.9253)">
          <path
             d="M 0,0 C -1.386,7.854 -0.666,14.015 6.852,14.713 8.631,12.729 9.001,11.058 7.925,9.709 0.151,12.185 0.726,5.691 1.61,-1.132 1.072,-0.754 0.539,-0.378 0,0"
             style="fill:#996633;fill-opacity:1;fill-rule:evenodd;stroke:none"
             id="path7818" />
        </g>
        <g
           id="g7820"
           transform="translate(616.9932,469.5923)">
          <path
             d="m 0,0 c 1.746,-2.367 2.762,-5.18 2.762,-8.197 0,-8.422 -7.896,-15.25 -17.632,-15.25 -9.739,0 -17.632,6.828 -17.632,15.25 0,3.017 1.013,5.83 2.761,8.197 2.368,3.208 3.548,6.592 3.685,10.577 0.312,8.923 5.202,16.014 11.186,16.014 5.981,0 10.871,-7.091 11.182,-16.014 C -3.55,6.592 -2.368,3.208 0,0"
             style="fill:#788c05;fill-opacity:1;fill-rule:evenodd;stroke:none"
             id="path7822" />
        </g>
        <g
           id="g7824"
           transform="translate(613.7422,473.0015)">
          <path
             d="m 0,0 c 1.748,-2.366 2.762,-5.181 2.762,-8.197 0,-8.421 -7.894,-15.248 -17.633,-15.248 -9.738,0 -17.632,6.827 -17.632,15.248 0,3.016 1.014,5.831 2.762,8.197 2.368,3.208 3.55,6.593 3.687,10.579 0.309,8.922 5.198,16.013 11.183,16.013 5.985,0 10.872,-7.091 11.183,-16.013 C -3.55,6.593 -2.368,3.208 0,0"
             style="fill:#f5ac00;fill-opacity:1;fill-rule:evenodd;stroke:none"
             id="path7826" />
        </g>
        <g
           id="g7828"
           transform="translate(605.2822,471.7837)">
          <path
             d="m 0,0 c -3.004,4.124 -4.524,8.62 -4.652,13.742 -0.067,2.646 -0.674,5.526 -2.042,7.805 -0.613,1.023 -1.733,2.438 -2.981,2.705 -0.133,0.027 -0.263,0.042 -0.398,0.042 -0.133,0 -0.265,-0.015 -0.398,-0.042 -1.253,-0.267 -2.401,-1.682 -3.037,-2.705 -1.411,-2.279 -2.077,-5.159 -2.197,-7.805 C -15.935,8.62 -17.548,4.124 -20.633,0 c -1.062,-1.418 -1.687,-3.061 -1.705,-4.834 -0.061,-6.076 6.424,-9.589 11.877,-9.589 5.454,0 12.008,3.513 12.068,9.589 C 1.626,-3.061 1.033,-1.418 0,0"
             style="fill:#ffbb00;fill-opacity:1;fill-rule:evenodd;stroke:none"
             id="path7830" />
        </g>
        <g
           id="g7832"
           transform="translate(613.7422,473.0015)">
          <path
             d="m 0,0 c 1.748,-2.366 2.762,-5.181 2.762,-8.197 0,-8.421 -7.894,-15.248 -17.633,-15.248 -0.314,0 -0.625,0.006 -0.934,0.02 8.389,1.568 14.846,7.823 15.121,15.306 0.118,3.103 -0.847,5.997 -2.608,8.43 -2.381,3.302 -3.499,6.783 -3.494,10.881 0.008,7.012 -2.848,12.922 -7.018,15.325 5.487,-0.786 9.822,-7.552 10.116,-15.938 C -3.55,6.593 -2.368,3.208 0,0"
             style="fill:#e39f00;fill-opacity:1;fill-rule:evenodd;stroke:none"
             id="path7834" />
        </g>
        <g
           id="g7836"
           transform="translate(591.5244,459.6812)">
          <path
             d="m 0,0 c 3.183,0 5.777,2.391 5.777,5.318 0,2.93 -2.594,5.32 -5.777,5.32 -3.183,0 -5.778,-2.39 -5.778,-5.32 C -5.778,2.391 -3.183,0 0,0"
             style="fill:#ffd769;fill-opacity:1;fill-rule:evenodd;stroke:none"
             id="path7838" />
        </g>
      </g>
    </g>
  </g>
</svg>
