<?xml version="1.0" encoding="UTF-8" standalone="no"?>
<!-- Created with Inkscape (http://www.inkscape.org/) -->

<svg
   version="1.1"
   id="svg137438"
   width="800"
   height="800"
   viewBox="0 0 800 800"
   sodipodi:docname="rope-fitness-pdv.svg"
   inkscape:version="1.2 (dc2aedaf03, 2022-05-15)"
   xmlns:inkscape="http://www.inkscape.org/namespaces/inkscape"
   xmlns:sodipodi="http://sodipodi.sourceforge.net/DTD/sodipodi-0.dtd"
   xmlns="http://www.w3.org/2000/svg"
   xmlns:svg="http://www.w3.org/2000/svg">
  <defs
     id="defs137442">
    <clipPath
       clipPathUnits="userSpaceOnUse"
       id="clipPath137454">
      <path
         d="M 0,600 H 600 V 0 H 0 Z"
         id="path137452" />
    </clipPath>
  </defs>
  <sodipodi:namedview
     id="namedview137440"
     pagecolor="#ffffff"
     bordercolor="#000000"
     borderopacity="0.25"
     inkscape:showpageshadow="2"
     inkscape:pageopacity="0.0"
     inkscape:pagecheckerboard="0"
     inkscape:deskcolor="#d1d1d1"
     showgrid="false"
     inkscape:zoom="1.04625"
     inkscape:cx="400"
     inkscape:cy="400.4779"
     inkscape:window-width="1920"
     inkscape:window-height="1017"
     inkscape:window-x="-8"
     inkscape:window-y="-8"
     inkscape:window-maximized="1"
     inkscape:current-layer="g137446">
    <inkscape:page
       x="0"
       y="0"
       id="page137444"
       width="800"
       height="800" />
  </sodipodi:namedview>
  <g
     id="g137446"
     inkscape:groupmode="layer"
     inkscape:label="Page 1"
     transform="matrix(1.3333333,0,0,-1.3333333,0,800)">
    <g
       id="g137448">
      <g
         id="g137450"
         clip-path="url(#clipPath137454)">
        <g
           id="g137456"
           transform="translate(345.8115,479.4941)">
          <path
             d="m 0,0 c -42.055,6.719 -88.972,-28.746 -97.903,-67.952 26.158,-6.157 57.275,7.063 75.302,25.84 C -11.558,-30.611 -3.586,-16.135 0,0 m 66.011,-35.294 c -2.251,2.841 -4.661,5.547 -7.22,8.107 C 45.226,-13.625 27.53,-4.192 7.751,-0.943 3.93,-18.78 -4.822,-34.794 -17.01,-47.49 c -19.956,-20.784 -53.819,-34.8 -82.692,-28.013 -4.459,-22.883 -0.851,-43.293 15.745,-60.169 5.96,-6.06 12.586,-10.617 19.83,-13.651 32.63,-13.659 76.379,3.863 99.355,26.841 23.102,23.1 34.213,55.281 30.783,87.188 M 9.07,6.724 C 30.078,3.261 48.915,-6.644 63.484,-20.894 55.724,10.49 34.012,36.761 4.783,50.424 9.536,36.435 10.987,21.369 9.07,6.724 m -114.396,-72.332 c 13.392,46.925 57.869,77.327 106.68,73.3 2.08,15.847 -0.118,32.067 -6.449,46.76 -11.096,3.889 -23.028,6.005 -35.453,6.005 -40.52,0 -95.809,-30.477 -97.915,-74.103 -1.062,-22.009 12.674,-43.755 33.137,-51.962 m -77.854,84.963 c 0,53.317 43.222,96.538 96.535,96.538 37.451,0 71.343,-21.591 87.293,-55.264 C 40.047,45.496 68.218,9.756 73.49,-32.248 86.398,-49.291 94.058,-70.529 94.058,-93.557 L 93.851,-215.598 H 86.073 V -87.27 c -0.944,14.266 -5.074,27.66 -11.685,39.476 -0.336,-30.087 -12.158,-58.683 -33.66,-80.187 -25.257,-25.256 -72.256,-43.405 -107.83,-28.511 -8.207,3.435 -15.684,8.57 -22.383,15.384 -18.573,18.883 -22.896,42.29 -17.695,67.888 -24.038,9.114 -40.269,34.267 -39.03,59.937 2.317,48.028 60.953,81.517 105.662,81.517 10.581,0 20.829,-1.432 30.562,-4.109 -15.921,27.204 -44.979,43.99 -76.659,43.99 -49.02,0 -88.757,-39.736 -88.757,-88.76 v -148.068 h -7.778 z"
             style="fill:#ff8c00;fill-opacity:1;fill-rule:evenodd;stroke:none"
             id="path137458" />
        </g>
        <g
           id="g137460"
           transform="translate(346.5957,479.1299)">
          <path
             d="m 0,0 c -3.588,-16.15 -11.573,-30.982 -23.028,-42.912 -8.691,-9.053 -19.829,-16.353 -31.388,-21.176 -14.148,-5.904 -30.409,-8.693 -45.515,-5.137 l -1.626,0.383 0.371,1.628 c 4.864,21.344 20.247,40.3 37.893,52.688 16.215,11.381 36.316,18.694 56.316,17.204 1.876,-0.138 3.745,-0.356 5.601,-0.653 L 0.388,1.743 Z m 6.382,1.081 c 19.705,-3.237 37.843,-12.601 51.956,-26.715 2.606,-2.605 5.06,-5.362 7.351,-8.251 l 0.301,-0.38 0.052,-0.484 c 3.512,-32.664 -8.02,-65.314 -31.266,-88.56 -11.543,-11.541 -26.978,-20.653 -42.311,-26.098 -17.059,-6.061 -36.565,-8.495 -54.075,-2.875 -1.627,0.522 -3.232,1.112 -4.807,1.771 -7.731,3.238 -14.517,8.06 -20.381,14.024 -7.339,7.464 -12.714,16.145 -15.583,26.241 -3.291,11.587 -2.9,23.701 -0.615,35.429 l 0.334,1.715 1.702,-0.399 c 15.949,-3.749 33.101,-0.913 48.063,5.289 12.193,5.055 23.874,12.715 33.032,22.252 12.19,12.697 20.642,28.515 24.33,45.733 l 0.336,1.569 z m -0.62,6.225 c 1.881,14.385 0.456,29.2 -4.213,42.941 L 0.28,53.984 3.853,52.312 C 33.564,38.423 55.598,11.727 63.476,-20.125 l 1.419,-5.743 -4.228,4.138 C 46.021,-7.407 27.377,2.095 7.156,5.427 L 5.55,5.692 Z m -113.356,-74.111 c -5.589,2.241 -10.729,5.478 -15.233,9.469 -5.434,4.819 -9.907,10.709 -13.147,17.206 -4.147,8.32 -6.26,17.621 -5.81,26.928 0.247,5.124 1.214,10.162 2.841,15.023 12.166,36.4 60.176,60.683 96.754,60.683 12.267,0 24.429,-2.041 36.008,-6.101 l 0.698,-0.243 0.292,-0.678 C 1.24,40.559 3.494,23.942 1.381,7.839 L 1.172,6.248 -0.426,6.38 c -24.116,1.989 -48.07,-4.545 -67.677,-18.767 -18.1,-13.132 -31.112,-31.819 -37.247,-53.319 l -0.512,-1.793 z m -75.546,-59.861 h 4.413 V 19.72 c 0,49.951 40.492,90.442 90.442,90.442 32.205,0 61.85,-17.043 78.109,-44.824 l 2.089,-3.57 -3.987,1.098 c -9.811,2.7 -19.941,4.05 -30.115,4.05 -18.336,0 -37.663,-5.629 -53.86,-14.041 -25.106,-13.035 -48.682,-36.023 -50.122,-65.875 -0.412,-8.52 1.161,-17.037 4.392,-24.921 3.215,-7.845 8.056,-15.028 14.147,-20.931 5.568,-5.394 12.148,-9.678 19.405,-12.432 l 1.338,-0.505 -0.285,-1.401 c -2.574,-12.675 -2.973,-25.806 0.605,-38.334 3.076,-10.772 8.805,-20.073 16.641,-28.041 6.283,-6.39 13.55,-11.543 21.833,-15.011 2.066,-0.865 4.177,-1.617 6.322,-2.262 33.42,-10.019 75.799,6.54 99.668,30.41 21.091,21.09 32.837,49.224 33.168,79.018 l 0.071,6.308 3.08,-5.505 c 6.915,-12.359 10.961,-26.056 11.895,-40.188 l 0.004,-0.055 v -126.701 h 4.416 l 0.205,120.361 c 0.037,21.845 -7.042,42.882 -20.227,60.29 l -0.272,0.359 -0.056,0.447 C 64.991,9.242 37.272,44.493 -1.597,59.422 l -0.63,0.242 -0.288,0.608 c -15.708,33.164 -49.059,54.303 -85.77,54.303 -52.387,0 -94.855,-42.469 -94.855,-94.855 z"
             style="fill:#ffa333;fill-opacity:1;fill-rule:evenodd;stroke:none"
             id="path137462" />
        </g>
        <g
           id="g137464"
           transform="translate(182.5527,295.2998)">
          <path
             d="m 0,0 c 4.325,-9.773 7.015,-23.466 7.015,-38.626 0,-29.7 -10.319,-53.776 -23.047,-53.776 -12.729,0 -23.048,24.076 -23.048,53.776 0,15.16 2.69,28.853 7.015,38.626 1.263,2.856 1.587,5.646 1.007,8.715 -0.487,2.589 -0.751,5.351 -0.751,8.219 0,0.103 0,0.21 0.002,0.313 0.03,4.143 -1.397,7.716 -4.267,10.703 -1.18,1.226 -1.906,2.89 -1.906,4.717 v 15.998 c 0,3.749 3.066,6.816 6.815,6.816 h 30.266 c 3.748,0 6.815,-3.067 6.815,-6.816 V 32.667 C 5.916,30.84 5.189,29.176 4.01,27.95 1.139,24.964 -0.287,21.39 -0.259,17.247 c 0.001,-0.103 0.001,-0.21 0.001,-0.313 0,-2.868 -0.263,-5.63 -0.751,-8.219 C -1.586,5.646 -1.265,2.856 0,0"
             style="fill:#cc3300;fill-opacity:1;fill-rule:evenodd;stroke:none"
             id="path137466" />
        </g>
        <g
           id="g137468"
           transform="translate(156.4219,287.1045)">
          <path
             d="M 0,0 C 8.13,0.752 16.411,-16.899 18.498,-39.429 20.586,-61.955 15.686,-80.828 7.554,-81.581 -0.576,-82.335 -8.858,-64.682 -10.945,-42.152 -13.03,-19.625 -8.131,-0.754 0,0"
             style="fill:#db420f;fill-opacity:1;fill-rule:evenodd;stroke:none"
             id="path137470" />
        </g>
        <g
           id="g137472"
           transform="translate(154.8818,266.8389)">
          <path
             d="M 0,0 C 5.54,0.513 11.183,-11.517 12.605,-26.867 14.026,-42.217 10.688,-55.079 5.146,-55.592 -0.392,-56.105 -6.037,-44.077 -7.459,-28.724 -8.881,-13.374 -5.541,-0.512 0,0"
             style="fill:#e84b17;fill-opacity:1;fill-rule:evenodd;stroke:none"
             id="path137474" />
        </g>
        <g
           id="g137476"
           transform="translate(155.5449,326.3633)">
          <path
             d="m 0,0 h 21.949 c 1.925,0 3.499,-1.575 3.499,-3.499 0,-1.925 -1.574,-3.498 -3.499,-3.498 H 0 c -1.923,0 -3.498,1.573 -3.498,3.498 C -3.498,-1.575 -1.923,0 0,0"
             style="fill:#ad2b00;fill-opacity:1;fill-rule:evenodd;stroke:none"
             id="path137478" />
        </g>
        <g
           id="g137480"
           transform="translate(451.8066,208.415)">
          <path
             d="m 0,0 c 4.324,-9.775 7.013,-23.468 7.013,-38.626 0,-29.7 -10.318,-53.776 -23.046,-53.776 -12.729,0 -23.047,24.076 -23.047,53.776 0,15.158 2.689,28.851 7.015,38.626 1.262,2.857 1.586,5.646 1.007,8.714 -0.487,2.59 -0.751,5.351 -0.751,8.22 v 0.312 c 0.03,4.143 -1.396,7.716 -4.266,10.704 -1.18,1.226 -1.906,2.89 -1.906,4.716 v 15.999 c 0,3.749 3.067,6.817 6.815,6.817 h 30.265 c 3.748,0 6.815,-3.068 6.815,-6.817 V 32.666 c 0,-1.826 -0.725,-3.49 -1.905,-4.716 -2.87,-2.988 -4.297,-6.561 -4.268,-10.704 v -0.312 c 0,-2.869 -0.263,-5.63 -0.751,-8.22 C -1.588,5.646 -1.264,2.857 0,0"
             style="fill:#cc3300;fill-opacity:1;fill-rule:evenodd;stroke:none"
             id="path137482" />
        </g>
        <g
           id="g137484"
           transform="translate(425.6738,200.2178)">
          <path
             d="M 0,0 C 8.132,0.754 16.414,-16.898 18.499,-39.427 20.585,-61.954 15.686,-80.826 7.555,-81.579 -0.576,-82.333 -8.857,-64.68 -10.943,-42.152 -13.028,-19.625 -8.13,-0.752 0,0"
             style="fill:#db420f;fill-opacity:1;fill-rule:evenodd;stroke:none"
             id="path137486" />
        </g>
        <g
           id="g137488"
           transform="translate(424.1338,179.9541)">
          <path
             d="M 0,0 C 5.541,0.513 11.185,-11.517 12.606,-26.867 14.028,-42.219 10.688,-55.08 5.148,-55.592 -0.392,-56.105 -6.037,-44.077 -7.457,-28.726 -8.879,-13.374 -5.54,-0.514 0,0"
             style="fill:#e84b17;fill-opacity:1;fill-rule:evenodd;stroke:none"
             id="path137490" />
        </g>
        <g
           id="g137492"
           transform="translate(424.7979,239.4775)">
          <path
             d="m 0,0 h 21.949 c 1.925,0 3.498,-1.574 3.498,-3.498 0,-1.925 -1.573,-3.499 -3.498,-3.499 H 0 c -1.923,0 -3.497,1.574 -3.497,3.499 C -3.497,-1.574 -1.923,0 0,0"
             style="fill:#ad2b00;fill-opacity:1;fill-rule:evenodd;stroke:none"
             id="path137494" />
        </g>
        <g
           id="g137496"
           transform="translate(301.1465,53.3037)">
          <path
             d="M 0,0 C 70.834,0 128.606,12.292 128.606,27.363 128.606,42.434 70.834,54.726 0,54.726 -70.832,54.726 -128.604,42.434 -128.604,27.362 -128.604,12.291 -70.832,0 0,0"
             style="fill:#e6e6e6;fill-opacity:1;fill-rule:evenodd;stroke:none"
             id="path137498" />
        </g>
      </g>
    </g>
  </g>
</svg>
