<?xml version="1.0"?>
<svg xmlns:rdf="http://www.w3.org/1999/02/22-rdf-syntax-ns#" xmlns="http://www.w3.org/2000/svg" xmlns:cc="http://web.resource.org/cc/" xmlns:xlink="http://www.w3.org/1999/xlink" xmlns:dc="http://purl.org/dc/elements/1.1/" xmlns:svg="http://www.w3.org/2000/svg" xml:space="preserve" viewBox="-0.952 -0.328 512 511">
		<path d="m510.34 255.24c0-140.62-114.63-255.24-255.17-255.24-140.47 0-255.17 114.62-255.17 255.24 0 140.47 114.7 255.17 255.17 255.17 140.54 0 255.17-114.7 255.17-255.17z" fill="#ED171F"/>
		<path d="m451.37 255.31c0-108.14-88.128-196.34-196.27-196.34-108.07 0-196.27 88.2-196.27 196.34 0 108.07 88.2 196.27 196.27 196.27 108.14 0 196.27-88.2 196.27-196.27z" fill="#FEB82F"/>
		<path d="m124.7 198.79c0 1.728 1.368 3.096 3.096 3.096h12.96c-0.288 1.44-0.432 2.88-0.432 4.392 0 11.232 9.072 20.304 20.304 20.304s20.304-9.072 20.304-20.304c0-1.512-0.144-2.952-0.504-4.392l77.112-0.072c-0.36 1.44-0.504 2.952-0.504 4.464 0 11.232 9.144 20.304 20.376 20.304 11.16 0 20.304-9.072 20.304-20.304 0-1.512-0.144-2.952-0.504-4.464h10.08c-0.288 1.44-0.432 2.952-0.432 4.464 0 11.232 9.072 20.304 20.304 20.304s20.304-9.072 20.304-20.304c0-1.512-0.144-2.952-0.504-4.464h13.03c3.744 0 6.768-3.024 6.768-6.768v-91.08c0-3.744-3.024-6.768-6.768-6.768h-156.38c-3.744 0-6.768 3.096-6.768 6.768v51.48h-7.128v-23.04c0-2.952-2.376-5.4-5.4-5.4h-35.568c-5.616 0-10.656 3.528-12.672 8.784l-11.376 30.384v32.62z"/>
		<path d="m197.21 316.37c2.16-3.312 4.896-6.12 8.208-8.208l21.312-12.168c5.328-3.168 9.432-7.992 11.664-13.752 1.08-3.096 1.584-6.336 1.584-9.576 0-3.312-0.504-6.552-1.584-9.648-2.88-7.56-9-13.536-16.704-16.2-4.032-1.08-8.208-1.656-12.384-1.656-4.752 0-9.504 0.72-14.04 2.088-10.728 3.672-17.856 13.68-17.856 24.912v1.008l15.768-0.072c-0.288-4.968 2.88-9.576 7.632-11.16 5.328-1.512 10.944-1.512 16.272 0 3.096 1.152 5.544 3.528 6.552 6.624 0.504 1.296 0.792 2.664 0.792 4.104 0 1.368-0.288 2.736-0.792 4.032-0.792 2.304-2.448 4.248-4.536 5.616l-21.312 12.168c-12.672 7.488-20.376 21.096-20.376 35.856v1.8l62.496-0.072v-15.696h-42.69z"/>
		<polygon points="353.38 373.75 157.1 373.75 157.1 405.14 117.79 365.9 157.1 326.59 157.1 358.06 353.38 358.06 353.38 326.59 392.62 365.9 353.38 405.14"/>
		<path d="m260.93 437.4v-28.512c-0.144-3.528 2.664-6.48 6.264-6.48 3.456 0 6.264 2.88 6.264 6.336v28.654h11.448v-31.824c0-8.136-6.624-14.76-14.832-14.76-4.824 0-9.36 2.304-12.168 6.264-2.88-3.888-7.56-6.264-12.456-6.264-3.096 0-5.976 0.936-8.496 2.592v-1.872h-11.52v45.86h11.52v-28.512c-0.144-3.528 2.736-6.48 6.192-6.48s6.264 2.88 6.264 6.336v28.654h11.54z"/>
		<path d="m304.78 333.14c-9.648 0-18.936-4.032-25.416-11.232-7.92-9.144-12.312-20.88-12.168-33.048-0.144-12.024 4.248-23.832 12.168-32.904 6.48-7.2 15.768-11.232 25.416-11.16 9.648-0.072 18.864 4.032 25.416 11.16 7.848 9.072 12.168 20.664 12.168 32.688v0.504c0 12.024-4.32 23.616-12.168 32.688-6.56 7.19-15.78 11.29-25.42 11.29z"/>
		<polygon points="146.09 140.47 138.02 162.14 178.27 162.14 178.27 140.47" fill="#FEB82F"/>
		<path d="m304.78 317.38c-5.184 0-10.08-2.088-13.608-5.904-5.4-6.264-8.352-14.328-8.28-22.608-0.072-8.28 2.88-16.272 8.28-22.608 3.528-3.744 8.424-5.832 13.608-5.832s10.08 2.088 13.608 5.904c5.328 6.264 8.208 14.112 8.208 22.32v0.432c0 8.208-2.88 16.128-8.208 22.392-3.53 3.74-8.43 5.9-13.61 5.9z" fill="#FEB82F"/>
<metadata><rdf:RDF><cc:Work><dc:format>image/svg+xml</dc:format><dc:type rdf:resource="http://purl.org/dc/dcmitype/StillImage"/><cc:license rdf:resource="http://creativecommons.org/licenses/publicdomain/"/><dc:publisher><cc:Agent rdf:about="http://openclipart.org/"><dc:title>Openclipart</dc:title></cc:Agent></dc:publisher><dc:title>20m truck sign</dc:title><dc:date>2007-02-28T16:24:02</dc:date><dc:description> Swedish Road Signs Collection on Wikicommons - URL http://commons.wikimedia.org/wiki/Category:Road_signs_of_Sweden information about why this image is in the public domain can be found there.</dc:description><dc:source>http://openclipart.org/detail/3354/20m-truck-sign-by-ryanlerch</dc:source><dc:creator><cc:Agent><dc:title>ryanlerch</dc:title></cc:Agent></dc:creator><dc:subject><rdf:Bag><rdf:li>clip art</rdf:li><rdf:li>clipart</rdf:li><rdf:li>distance</rdf:li><rdf:li>externalsource</rdf:li><rdf:li>image</rdf:li><rdf:li>media</rdf:li><rdf:li>public domain</rdf:li><rdf:li>roadsign</rdf:li><rdf:li>sign</rdf:li><rdf:li>svg</rdf:li><rdf:li>sweden</rdf:li><rdf:li>truck</rdf:li></rdf:Bag></dc:subject></cc:Work><cc:License rdf:about="http://creativecommons.org/licenses/publicdomain/"><cc:permits rdf:resource="http://creativecommons.org/ns#Reproduction"/><cc:permits rdf:resource="http://creativecommons.org/ns#Distribution"/><cc:permits rdf:resource="http://creativecommons.org/ns#DerivativeWorks"/></cc:License></rdf:RDF></metadata></svg>
