<?xml version="1.0" encoding="UTF-8" standalone="no"?>
<!-- Created with Inkscape (http://www.inkscape.org/) -->

<svg
   width="297mm"
   height="420mm"
   viewBox="0 0 297 420"
   version="1.1"
   id="svg5"
   inkscape:version="1.1.2 (0a00cf5339, 2022-02-04)"
   sodipodi:docname="smartphone-icon.svg"
   xmlns:inkscape="http://www.inkscape.org/namespaces/inkscape"
   xmlns:sodipodi="http://sodipodi.sourceforge.net/DTD/sodipodi-0.dtd"
   xmlns="http://www.w3.org/2000/svg"
   xmlns:svg="http://www.w3.org/2000/svg">
  <sodipodi:namedview
     id="namedview7"
     pagecolor="#ffffff"
     bordercolor="#666666"
     borderopacity="1.0"
     inkscape:pageshadow="2"
     inkscape:pageopacity="0.0"
     inkscape:pagecheckerboard="0"
     inkscape:document-units="mm"
     showgrid="true"
     showguides="true"
     inkscape:guide-bbox="true"
     inkscape:zoom="0.35355339"
     inkscape:cx="663.26616"
     inkscape:cy="1108.7434"
     inkscape:window-width="2230"
     inkscape:window-height="1081"
     inkscape:window-x="273"
     inkscape:window-y="115"
     inkscape:window-maximized="0"
     inkscape:current-layer="layer1">
    <sodipodi:guide
       position="10,245.96274"
       orientation="-1,0"
       id="guide9"
       inkscape:label=""
       inkscape:locked="false"
       inkscape:color="rgb(0,0,255)" />
    <sodipodi:guide
       position="287,257.03106"
       orientation="-1,0"
       id="guide11"
       inkscape:label=""
       inkscape:locked="false"
       inkscape:color="rgb(0,0,255)" />
    <sodipodi:guide
       position="-121.75156,410"
       orientation="0,1"
       id="guide134"
       inkscape:label=""
       inkscape:locked="false"
       inkscape:color="rgb(0,0,255)" />
    <sodipodi:guide
       position="-116.21739,10"
       orientation="0,1"
       id="guide136"
       inkscape:label=""
       inkscape:locked="false"
       inkscape:color="rgb(0,0,255)" />
    <inkscape:grid
       type="xygrid"
       id="grid30153"
       units="mm"
       spacingx="5"
       spacingy="5"
       empspacing="4" />
  </sodipodi:namedview>
  <defs
     id="defs2" />
  <g
     inkscape:label="Ebene 1"
     inkscape:groupmode="layer"
     id="layer1">
    <rect
       style="fill:#333333;fill-rule:evenodd;stroke:#000000;stroke-width:7;stroke-miterlimit:4;stroke-dasharray:none"
       id="rect184"
       width="200"
       height="400"
       x="48.5"
       y="10"
       ry="22.174017" />
    <path
       id="rect1357"
       style="fill:#000000;stroke:#000000;stroke-width:7;stroke-miterlimit:4;stroke-dasharray:none"
       d="m 70.673751,10.000001 c -12.284418,0 -22.173855,9.889437 -22.173855,22.17384 V 45.821589 H 248.5001 V 32.173841 c 0,-12.284403 -9.88997,-22.17384 -22.17436,-22.17384 z" />
    <path
       id="path1469"
       style="fill:#000000;stroke:#000000;stroke-width:7;stroke-miterlimit:4;stroke-dasharray:none"
       d="m 70.673755,410 c -12.28442,0 -22.17386,-9.88944 -22.17386,-22.17384 V 374.17841 H 248.5001 v 13.64775 c 0,12.2844 -9.88997,22.17384 -22.17436,22.17384 z" />
    <rect
       style="fill:#000000;stroke:none;stroke-width:5.57491;stroke-miterlimit:4;stroke-dasharray:none"
       id="rect1504"
       width="56.842106"
       height="37.714287"
       x="58.5"
       y="200.14285" />
    <path
       d="m 86.178728,229.12374 v -15.4157 l -3.26842,1.13142 -1.421053,-3.25286 5.257894,-2.26286 h 4.547368 v 19.8 z"
       id="path8213"
       style="font-size:28.3533px;line-height:1.25;font-family:'Russo One';-inkscape-font-specification:'Russo One';fill:#ffffff;stroke-width:0.25006" />
    <rect
       style="fill:#000000;stroke:none;stroke-width:5.57491;stroke-miterlimit:4;stroke-dasharray:none"
       id="rect11747"
       width="56.842106"
       height="37.714287"
       x="120.07895"
       y="200.14285" />
    <path
       d="m 156.17368,215.5466 q 0,0.90515 -0.25579,1.64057 -0.25579,0.73543 -0.71052,1.35772 -0.45473,0.62228 -1.08,1.15972 -0.62526,0.53742 -1.36422,1.07485 l -6.11052,4.38428 h 9.52105 v 3.96 h -15.34736 v -5.37428 l 10.23158,-7.35429 v -1.41429 q 0,-1.69713 -1.70527,-1.69713 h -7.9579 v -3.96001 h 9.09474 q 2.98422,0 4.32,1.35772 1.36421,1.32943 1.36421,4.29942 z"
       id="path8216"
       style="font-size:28.3533px;line-height:1.25;font-family:'Russo One';-inkscape-font-specification:'Russo One';fill:#ffffff;stroke-width:0.25006" />
    <rect
       style="fill:#000000;stroke:none;stroke-width:5.57491;stroke-miterlimit:4;stroke-dasharray:none"
       id="rect11755"
       width="56.842106"
       height="37.714287"
       x="181.65788"
       y="200.14285" />
    <path
       d="m 218.03683,224.03232 q 0,2.77199 -1.30737,4.07314 -1.30736,1.30114 -4.09263,1.30114 -1.70526,0 -3.58105,-0.0849 -1.84737,-0.0849 -3.3821,-0.19801 -1.81896,-0.11314 -3.55264,-0.28285 v -3.81857 q 1.67685,0.11314 3.35369,0.22628 1.44947,0.0849 3.04105,0.14143 1.62,0.0566 2.98421,0.0566 0.65369,0 1.02316,-0.36772 0.3979,-0.396 0.3979,-1.04657 v -1.13143 q 0,-1.69715 -1.70527,-1.69715 h -5.96842 v -3.95999 h 5.4 q 1.70526,0 1.70526,-1.69715 v -0.56572 q 0,-1.69713 -1.70526,-1.69713 h -8.2421 v -3.96001 h 9.66315 q 2.78526,0 4.09263,1.27286 1.30737,1.24458 1.30737,3.81858 0,1.69714 -0.79579,2.77199 -0.76737,1.04657 -2.04632,1.47086 0.62527,0.16971 1.25053,0.53743 0.62526,0.36771 1.08001,0.99 0.48315,0.62228 0.76736,1.52743 0.31263,0.87685 0.31263,2.03657 z"
       id="path8219"
       style="font-size:28.3533px;line-height:1.25;font-family:'Russo One';-inkscape-font-specification:'Russo One';fill:#ffffff;stroke-width:0.25006" />
    <rect
       style="fill:#000000;stroke:none;stroke-width:5.57491;stroke-miterlimit:4;stroke-dasharray:none"
       id="rect11763"
       width="56.842106"
       height="37.714287"
       x="58.5"
       y="242.57143" />
    <path
       d="M 88.626316,267.59233 H 78.110527 v -3.96 l 6.821052,-11.88 h 5.68421 l -6.821052,11.88 h 4.831579 v -4.24286 h 5.115789 v 4.24286 h 1.989473 v 3.96 h -1.989473 v 3.96 h -5.115789 z"
       id="path8222"
       style="font-size:28.3533px;line-height:1.25;font-family:'Russo One';-inkscape-font-specification:'Russo One';fill:#ffffff;stroke-width:0.25006" />
    <rect
       style="fill:#000000;stroke:none;stroke-width:5.57491;stroke-miterlimit:4;stroke-dasharray:none"
       id="rect11771"
       width="56.842106"
       height="37.714287"
       x="181.65788"
       y="242.57143" />
    <path
       d="m 207.09472,259.38947 q 0.82422,-0.16971 1.67685,-0.28285 0.73894,-0.11314 1.56316,-0.198 0.85263,-0.0849 1.59157,-0.0849 h 1.98947 q 1.93264,0 3.0979,1.15971 1.16526,1.15972 1.16526,3.08314 v 3.67715 q 0,2.574 -1.30736,3.84685 -1.30737,1.24458 -4.09264,1.24458 h -5.39999 q -2.78527,0 -4.09264,-1.24458 -1.30736,-1.27285 -1.30736,-3.84685 v -9.9 q 0,-2.772 1.30736,-4.07314 1.30737,-1.30115 4.09264,-1.30115 1.39263,0 3.01263,0.0849 1.64842,0.0849 3.06947,0.198 1.64842,0.11315 3.29684,0.28286 v 3.81857 q -1.56316,-0.0849 -3.0979,-0.198 -0.65368,-0.0283 -1.3642,-0.0566 -0.68211,-0.0566 -1.36421,-0.0849 -0.68211,-0.0566 -1.30737,-0.0566 -0.59684,-0.0282 -1.10842,-0.0282 -0.65369,0 -1.05158,0.39601 -0.36948,0.36771 -0.36948,1.01828 z m 3.41053,3.39429 q -0.59684,0 -1.2221,0.0566 -0.59684,0.0282 -1.08001,0.0849 -0.56841,0.0849 -1.10842,0.14142 v 3.11144 q 0,1.69713 1.70527,1.69713 h 2.55789 q 1.70527,0 1.70527,-1.69713 v -2.4043 q 0,-0.42427 -0.28422,-0.70714 -0.28421,-0.28285 -0.71052,-0.28285 z"
       id="path8228"
       style="font-size:28.3533px;line-height:1.25;font-family:'Russo One';-inkscape-font-specification:'Russo One';fill:#ffffff;stroke-width:0.25006" />
    <rect
       style="fill:#000000;stroke:none;stroke-width:5.57491;stroke-miterlimit:4;stroke-dasharray:none"
       id="rect11779"
       width="56.842106"
       height="37.714287"
       x="120.07895"
       y="242.57143" />
    <path
       d="m 146.51052,255.71233 v 3.67714 h 4.54737 q 2.78526,0 4.09263,1.27286 1.30738,1.24457 1.30738,3.81857 v 1.98 q 0,2.772 -1.30738,4.07314 -1.30737,1.30115 -4.09263,1.30115 -1.70526,0 -3.58105,-0.0849 -1.84737,-0.0849 -3.3821,-0.198 -1.81895,-0.11314 -3.55263,-0.28286 v -3.81857 q 1.67683,0.11315 3.35368,0.22629 1.44948,0.0849 3.04105,0.14143 1.62,0.0566 2.98421,0.0566 0.65368,0 1.02316,-0.36771 0.39789,-0.396 0.39789,-1.04657 v -1.41429 q 0,-1.69713 -1.70526,-1.69713 h -8.2421 v -11.59715 h 13.6421 v 3.96 z"
       id="path8225"
       style="font-size:28.3533px;line-height:1.25;font-family:'Russo One';-inkscape-font-specification:'Russo One';fill:#ffffff;stroke-width:0.25006" />
    <rect
       style="fill:#000000;stroke:none;stroke-width:5.57491;stroke-miterlimit:4;stroke-dasharray:none"
       id="rect11787"
       width="56.842106"
       height="37.714287"
       x="58.5"
       y="285" />
    <path
       d="m 79.247369,294.18089 h 15.347368 v 3.95999 l -6.536842,15.84 h -5.68421 l 6.821052,-15.84 h -9.947368 z"
       id="path8231"
       style="font-size:28.3533px;line-height:1.25;font-family:'Russo One';-inkscape-font-specification:'Russo One';fill:#ffffff;stroke-width:0.25006" />
    <rect
       style="fill:#000000;stroke:none;stroke-width:5.57491;stroke-miterlimit:4;stroke-dasharray:none"
       id="rect11795"
       width="56.842106"
       height="37.714287"
       x="120.07895"
       y="285" />
    <path
       d="m 146.65263,306.06089 q -1.70525,0 -1.70525,1.69713 v 1.13144 q 0,0.65057 0.36947,1.04657 0.39789,0.36771 1.05158,0.36771 h 4.26316 q 0.65368,0 1.02315,-0.36771 0.3979,-0.396 0.3979,-1.04657 v -1.13144 q 0,-1.69713 -1.70527,-1.69713 z m 0.56843,-8.20286 q -1.70527,0 -1.70527,1.69714 v 0.84858 q 0,1.69713 1.70527,1.69713 h 2.5579 q 1.70525,0 1.70525,-1.69713 v -0.84858 q 0,-1.69714 -1.70525,-1.69714 z m 9.94736,11.03143 q 0,2.772 -1.30737,4.07314 -1.30736,1.30114 -4.09262,1.30114 h -6.53684 q -2.78527,0 -4.09264,-1.30114 -1.30737,-1.30114 -1.30737,-4.07314 v -0.28286 q 0,-1.15971 0.28421,-2.03657 0.31264,-0.90515 0.76737,-1.52743 0.48316,-0.62229 1.08,-0.99 0.62526,-0.36771 1.27895,-0.53743 -1.27895,-0.42428 -2.07473,-1.47085 -0.76737,-1.07487 -0.76737,-2.77201 v -0.28285 q 0,-2.574 1.30736,-3.81857 1.30737,-1.27286 4.09263,-1.27286 h 5.4 q 2.78526,0 4.09264,1.27286 1.30737,1.24457 1.30737,3.81857 v 0.28285 q 0,1.69714 -0.79579,2.77201 -0.76737,1.04657 -2.04632,1.47085 0.62526,0.16972 1.25052,0.53743 0.62527,0.36771 1.08001,0.99 0.48316,0.62228 0.76737,1.52743 0.31262,0.87686 0.31262,2.03657 z"
       id="path8234"
       style="font-size:28.3533px;line-height:1.25;font-family:'Russo One';-inkscape-font-specification:'Russo One';fill:#ffffff;stroke-width:0.25006" />
    <rect
       style="fill:#000000;stroke:none;stroke-width:5.57491;stroke-miterlimit:4;stroke-dasharray:none"
       id="rect11803"
       width="56.842106"
       height="37.714287"
       x="181.65788"
       y="285" />
    <path
       d="m 213.06315,306.34374 q -0.82422,0.16972 -1.67685,0.28286 -0.73894,0.11315 -1.59157,0.198 -0.82422,0.0849 -1.56316,0.0849 h -1.98947 q -1.93264,0 -3.0979,-1.15972 -1.16526,-1.15972 -1.16526,-3.08314 v -3.67714 q 0,-2.574 1.30736,-3.81857 1.30738,-1.27286 4.09264,-1.27286 h 5.4 q 2.78526,0 4.09263,1.27286 1.30736,1.24457 1.30736,3.81857 v 9.9 q 0,2.772 -1.30736,4.07314 -1.30737,1.30114 -4.09263,1.30114 -1.39264,0 -3.04106,-0.0849 -1.61999,-0.0849 -3.04105,-0.198 -1.64842,-0.11314 -3.29684,-0.28285 v -3.81858 q 1.56316,0.11314 3.0979,0.22629 1.30737,0.0849 2.7,0.14143 1.42105,0.0566 2.4442,0.0566 0.65369,0 1.02316,-0.36771 0.3979,-0.396 0.3979,-1.04657 z m 0,-6.78857 q 0,-1.69714 -1.70527,-1.69714 h -2.55789 q -1.70526,0 -1.70526,1.69714 v 2.40429 q 0,0.42429 0.28421,0.70714 0.28421,0.28285 0.71052,0.28285 h 1.56316 q 0.56842,0 1.19368,-0.0283 0.62527,-0.0566 1.10843,-0.11314 0.56842,-0.0566 1.10842,-0.14143 z"
       id="path8237"
       style="font-size:28.3533px;line-height:1.25;font-family:'Russo One';-inkscape-font-specification:'Russo One';fill:#ffffff;stroke-width:0.25006" />
    <rect
       style="fill:#000000;stroke:none;stroke-width:5.57491;stroke-miterlimit:4;stroke-dasharray:none"
       id="rect27530"
       width="56.842106"
       height="37.714287"
       x="119.90587"
       y="326.8147" />
    <path
       d="m 151.59534,341.36987 q 0,-1.69715 -1.70526,-1.69715 h -3.12631 q -1.70527,0 -1.70527,1.69715 v 9.05142 q 0,1.69714 1.70527,1.69714 h 3.12631 q 1.70526,0 1.70526,-1.69714 z m 5.11579,9.05142 q 0,2.97 -1.36421,4.32772 -1.33579,1.32942 -4.32,1.32942 h -5.39999 q -2.98422,0 -4.34843,-1.32942 -1.33578,-1.35772 -1.33578,-4.32772 v -9.05142 q 0,-2.97001 1.33578,-4.29943 1.36421,-1.35771 4.34843,-1.35771 h 5.39999 q 2.98421,0 4.32,1.35771 1.36421,1.32942 1.36421,4.29943 z"
       id="path8240"
       style="font-size:28.3533px;line-height:1.25;font-family:'Russo One';-inkscape-font-specification:'Russo One';fill:#ffffff;stroke-width:0.25006" />
    <rect
       style="fill:#000000;stroke:none;stroke-width:5.57491;stroke-miterlimit:4;stroke-dasharray:none"
       id="rect27538"
       width="56.842106"
       height="37.714287"
       x="58.499996"
       y="327.42856" />
    <rect
       style="fill:#000000;stroke:none;stroke-width:5.57491;stroke-miterlimit:4;stroke-dasharray:none"
       id="rect27546"
       width="56.842106"
       height="37.714287"
       x="181.6579"
       y="327.42856" />
    <path
       style="fill:#ff0000;stroke:none;stroke-width:0.225054px;stroke-linecap:butt;stroke-linejoin:miter;stroke-opacity:1"
       d="m 65.605261,352.65 9e-6,-4.24286 c 0,0 0,-8.48571 21.31578,-8.48571 21.31579,0 21.31579,8.48571 21.31579,8.48571 V 352.65 H 95.447376 v -2.12143 c 0,0 2.131569,-4.24286 -8.526326,-4.24286 -10.657895,0 -8.526297,4.24286 -8.526297,4.24286 V 352.65 Z"
       id="path30188"
       sodipodi:nodetypes="cczcccczccc" />
    <path
       style="fill:#00ff00;stroke:none;stroke-width:0.225054px;stroke-linecap:butt;stroke-linejoin:miter;stroke-opacity:1"
       d="m 194.77378,361.70529 -2.58105,-3.37687 c 0,0 -5.16214,-6.75374 11.80298,-19.5976 16.96512,-12.84388 22.12725,-6.09014 22.12725,-6.09014 l 2.58107,3.37687 -10.17907,7.70632 -1.29053,-1.68844 c 0,0 -0.88456,-4.66124 -9.36712,1.76069 -8.48257,6.42193 -4.20497,8.5144 -4.20497,8.5144 l 1.29053,1.68844 z"
       id="path32243"
       sodipodi:nodetypes="cczcccczccc" />
    <path
       id="path32955"
       style="fill:#000000;stroke:#1a1a1a;stroke-width:2;stroke-miterlimit:4;stroke-dasharray:none"
       d="m 128.49993,380.00006 a 10,10 0 0 0 -9.9999,9.9999 10,10 0 0 0 9.9999,9.9999 h 40.00014 a 10,10 0 0 0 9.9999,-9.9999 10,10 0 0 0 -9.9999,-9.9999 z" />
  </g>
</svg>
