<?xml version="1.0" encoding="utf-8"?>
<svg version="1.1" id="Layer_1" xmlns="http://www.w3.org/2000/svg" xmlns:xlink="http://www.w3.org/1999/xlink" x="0px" y="0px"
	 viewBox="0 0 4952.286 5000" enable-background="new 0 0 4952.286 5000" xml:space="preserve">
<g>
	<g>
		<path fill="#FDD3AE" d="M3747.921,897.82l65.291,13.606c0,0,36.136-9.637,84.321-43.367
			c48.179-33.727,50.591-205.966,50.591-205.966L3747.921,897.82z"/>
		<path fill="#FDD3AE" d="M4315.221,2679.627l103.283-146.506c0,0,74.99-3.075,137.938-22.661
			c66.997-20.85,103.696-52.967,103.696-52.967l35.229,57.891l-52.048,36.564h186.741l61.11,15.346v50.929h61.116v40.745
			l-47.536,20.658l10.187,40.454c0,0,20.368,33.955-162.974,64.513c-183.341,30.558-483.784,61.575-483.784,61.575
			L4315.221,2679.627z"/>
		<path fill="#887364" d="M913.38,2250.362c-203.366-124.201-363.074-326.245-413.844-559.065
			c-53.86-247.001,18.24-511.949,164.674-718.027c146.43-206.078,361.555-356.674,594.01-456.054
			c306.055-130.847,652.989-177.202,976.494-98.865c323.498,78.337,619.459,287.956,773.415,583.064
			c92.102,176.548,132.194,376.43,223.177,553.56c43.03,83.774,97.665,163.077,121.963,254.067
			c4.557,17.037,7.981,35.177,3.225,52.16c-5.831,20.818-22.824,36.314-39.167,50.463
			c-63.609,55.063-129.163,107.883-196.498,158.328c7.581-82.284,13.681-171.273-29.961-241.439
			c-18.899-30.383-45.817-54.753-69.641-81.446c-53.153-59.557-91.57-132.166-110.913-209.613
			c-12.575-50.338-17.256-102.729-34.68-151.599c-17.424-48.87-51.079-95.843-100.545-111.473
			c-46.954-14.837-99.583,1.965-137.975,32.805c-38.385,30.836-64.753,73.997-87.439,117.701
			c-103.346,199.144-146.425,427.909-269.738,615.341C1985.457,2487.854,1341.361,2511.741,913.38,2250.362z"/>
		<path fill="#575A76" d="M3040.247,3319.873c0,0,464.26,68.891,540.763,473.035c76.503,404.144-392.32,956.047-392.32,956.047
			l-160.511-16.412c0,0,330.954-341.06,141.944-692.441c-189.01-351.377-1099.15-573.99-1099.15-573.99
			s-74.747,280.353-469.735,413.578c-537.42,181.267-1321.103-488.552-1321.103-488.552l72.794-144.781
			c0,0,553.132,288.925,841.753,189.898c288.621-99.027,141.031-496.959,172.623-725.696
			c35.024-253.591,147.744-350.365,147.744-350.365L3040.247,3319.873z"/>
		<path fill="#535459" d="M3791.957,2456.488c152.331,116.188,333.967,193.644,523.264,223.139
			c15.943,52.698,27.174,120.895-17.387,153.228c-16.975,12.318-38.573,15.937-59.354,18.821
			c-266.794,37.021-542.363,9.081-796.295-80.734c-82.44-29.155-163.799-65.447-230.827-121.601
			c-67.028-56.15-118.919-134.416-128.656-221.312c-12.949-115.495,55.597-234.171,159.799-285.64
			c91.509-45.208,251.489-45.242,329.942,31.695c37.436,36.714,48.848,100.483,79.959,144.146
			C3690.468,2371.672,3740.009,2416.867,3791.957,2456.488z"/>
		<path fill="#333438" d="M4400.835,126.517c-105.283,79.959-219.059,148.728-338.803,204.769
			c174.985-14.593,353.359,13.284,515.539,80.572c-213.871,84.443-432.943,170.011-662.732,178.151
			c-45.173,1.6-93.515-0.791-130.332-27.014c-128.494-91.515,117.219-261.457,187.479-308.358
			c64.354-42.954,135.245-76.181,209.466-98.055c35.53-10.471,71.834-18.336,108.526-23.402
			C4311.946,130.148,4385.43,138.217,4400.835,126.517z"/>
		<path fill="#FDD3AE" d="M3069.152,1279.228c24.312-32.415,218.797-171.836,251.208-288.506
			c32.417-116.667,429.487-181.823,429.487-181.823l-81.04,762.241h-551.031L3069.152,1279.228z"/>
		<path fill="#FDD3AE" d="M3161.723,262.346c0,0-145.262,542.388-141.638,611.651c3.619,69.265,11.031,157.777,28.949,208.234
			c17.918,50.457,172.311,134.059,307.055,107.564c134.744-26.493,312.086-141.338,312.086-141.338s307.948-406.435,322.285-557.203
			c14.343-150.768-86.233-419.744-313.886-473.522C3448.928-36.044,3222.289,28.868,3161.723,262.346z"/>
		<path fill="#333438" d="M3226.914,1328.054c-29.649-41.548-44.092-147.5-44.092-147.5s-284.349-134.581-867.13,388.423
			c-625.384,561.228-800.645,791.217-800.645,791.217s230.796,705.359,768.096,886.007
			c537.307,180.648,859.636,134.209,859.636,134.209s204.56-113.107,373.364-610.226
			c236.671-696.984,184.079-1347.43,184.079-1347.43S3417.893,1595.66,3226.914,1328.054z"/>
		<path fill="#CCA78D" d="M3182.822,1180.554c12.362-2.606,102.37,25.355,150.718,14.309
			c48.354-11.047,408.113-203.194,396.208-196.932c-11.906,6.262-77.515,153.89-178.28,242.936
			c-100.758,89.046-272.251,148.178-276.956,143.447c-4.706-4.731-46.21-28.633-63.641-87.796
			C3193.44,1237.351,3182.822,1180.554,3182.822,1180.554L3182.822,1180.554z"/>
		<path fill="#535459" d="M2812.951,1302.808c-140.025-157.825-503.177-64.041-652.895,407.447
			c-121.188,381.673-71.64,687.869,292.018,713.092c363.665,25.224,648.215-476.697,648.215-476.697l-163.962-133.422
			c0,0-278.462,433.327-344.028,312.139c-65.566-121.188,127.194-411.537,185.142-517.57
			C2854.118,1467.485,2865.886,1321.517,2812.951,1302.808L2812.951,1302.808z"/>
		<path fill="#887364" d="M2899.391,1376.276c100.82,97.78,164.88,228.802,200.391,364.684
			c35.511,135.881,44.092,277.303,46.561,417.728c0.106,6.043,0.394,12.621,4.312,17.221c3.15,3.69,8.018,5.34,12.68,6.687
			c56.022,16.208,117.301,11.777,171.555-9.618c19.886-7.84,38.829-17.849,57.729-27.836c18.749-9.909,37.492-19.818,56.241-29.727
			c24.005-12.69,48.785-26.011,65.347-47.532c38.961-50.629,18.336-123.854-9.4-181.401
			c-93.683-194.379-248.482-353.871-344.997-546.86c-77.708-155.387-118.551-333.538-235.002-462.467
			c-31.236-34.576-68.515-65.413-112.876-79.659c-55.734-17.896-117.913-7.5-170.129,18.946
			c-132.045,66.865-197.86,251.305-83.171,367.409c34.411,34.829,84.627,42.795,128.838,59.36
			C2766.278,1272.741,2838.906,1317.617,2899.391,1376.276z"/>
		<path fill="#776558" d="M3158.229,2137.979c8.968-14.818,22.305-26.483,36.298-36.689c19.287-14.068,40.242-25.849,62.285-35.014
			c13.718-5.703,29.292-10.4,43.167-5.065c4.518,1.738,8.637,4.484,13.268,5.903c14.218,4.347,28.742-4.541,41.18-12.699
			c40.335-26.471,82.965-49.451,127.25-68.603c6.9-2.984,15.374-5.731,21.443-1.297c2.45,1.787,4.1,4.541,6.662,6.166
			c6.125,3.885,14.675-0.09,21.255,2.95c2.65,1.225,4.7,3.49,6.231,5.974c8.137,13.187,2.413,30.355-4.681,44.132
			c-22.43,43.567-57.379,80.603-99.577,105.52c-26.792,15.818-56.198,26.737-85.933,35.874
			c-43.417,13.337-88.39,23.105-133.806,22.699c-17.318-0.154-47.604-0.703-60.185-15.168
			C3140.949,2178.706,3150.049,2151.507,3158.229,2137.979z"/>
		<path fill="#FDD3AE" d="M2936.326,1813.229l56.223-242.089l232.802-160.228l98.577,62.919v37.751l44.042,16.777l18.874,83.709
			l33.555,61.007c0,0,0,56.625-5.25,58.044c-5.25,1.416-51.373-45.46-145.756-5.612c-94.377,39.848-138.95,178.073-138.95,178.073
			l-30.155,43.069L2936.326,1813.229z"/>
		<path fill="#BEA290" d="M1628.867,991.078c-45.273,14.093-92.558-18.711-129.881-47.958
			c-37.317-29.249-71.087-64.21-113.96-84.458c-80.874-38.202-204.009-41.873-286.662,50.891
			c-30.714,34.471-57.604,159.227,0,295.54c15.971,37.789,140.259,152.78,140.259,152.78s99.867-145.043,129.385-165.218
			c-54.476-19.943-112.529-90.665-131.891-145.353c-17.533-49.52,12.334-81.524,46.486-93.808
			c32.205-11.583,89.177,23.431,116.313,44.289c27.136,20.855,76.337,44.689,104.233,64.519
			c75.278,53.507,181.804,39.857,260.751-8.069c143.443-87.077,103.37-257.388,18.23-337.747
			c-28.386-26.793-137.1-78.796-137.1-78.796l-118.382,89.668C1526.647,727.359,1889.83,909.86,1628.867,991.078z"/>
		<path fill="#BEA290" d="M998.733,1204.944c16.511-22.349,833.775-542.851,833.775-542.851l42.935,24.399l-856.868,565.081
			L998.733,1204.944z"/>
		<polygon fill="#BEA290" points="1027.504,1267.447 1882.043,692.117 1909.841,708.932 1050.321,1308.123 		"/>
		<path opacity="0.27" fill="#FFFFFF" d="M2389.033,1421.421c-61.041,83.187-100.158,182.311-112.376,284.762
			c-3.537,29.665-2.368,65.1,22.118,82.215c24.942,17.433,61.31,4.478,81.059-18.68c19.749-23.155,27.968-53.626,39.186-81.915
			c22.88-57.663,60.397-109.452,108.064-149.165c52.667-43.876,180.573-148.978,75.247-215.103
			C2525.389,1275.234,2430.256,1365.239,2389.033,1421.421z"/>
		<path fill="#CCA78D" d="M3256.387,542.83c-8.419,6.637-126.276,162.38-126.276,162.38v39.989l168.367,54.719l48.411-42.039
			l-151.131-42.145l91.002-157.849L3256.387,542.83z"/>
		<path fill="#333438" d="M3122.312,207.957c0,0,161.23-83.059,366.427,0c205.203,83.056,552.088,317.57,547.2,332.229
			c-4.881,14.656-87.815,259.732-87.815,259.732s-282.118-109.333-596.186-181.611c-266.375-61.304-304.843-10.437-304.843-10.437
			L3122.312,207.957z"/>
		<path fill="#FDD3AE" d="M3129.987,450.215c13.774,8.903,30.523,11.846,46.861,13.293c19.573,1.731,39.648,1.537,58.416-4.297
			c18.761-5.831,36.205-17.868,45.323-35.273c9.118-17.406,8.481-40.392-4.199-55.401c-5.762-6.818-13.524-11.659-21.524-15.624
			c-34.604-17.155-98.021-24.733-129.932,3.309C3096.582,381.134,3097.95,429.522,3129.987,450.215z"/>
		<path fill="#FDD3AE" d="M3439.848,487.264c10.136,15.055,25.88,25.349,41.861,33.939c19.149,10.29,39.648,18.843,61.272,21.09
			c21.618,2.244,44.598-2.393,61.46-16.121c16.855-13.725,26.23-37.374,19.874-58.16c-2.894-9.447-8.668-17.752-15.074-25.271
			c-27.717-32.527-88.902-67.866-133.569-53.26C3435.985,402.461,3416.299,452.259,3439.848,487.264z"/>
		<polygon fill="#CCA78D" points="3101.794,918.885 3353.939,992.263 3275.517,920.426 3206.246,913.06 3202.264,897.82 		"/>
		<path fill="#333438" d="M3202.408,416.238c0,19.965-16.18,36.152-36.148,36.152c-19.968,0-36.149-16.187-36.149-36.152
			c0-19.965,16.18-36.151,36.149-36.151C3186.228,380.087,3202.408,396.274,3202.408,416.238z"/>
		<path fill="#333438" d="M3529.656,464.461c0,19.965-16.187,36.151-36.149,36.151c-19.968,0-36.155-16.187-36.155-36.151
			c0-19.968,16.187-36.151,36.155-36.151C3513.469,428.31,3529.656,444.494,3529.656,464.461z"/>
		<polygon fill="#CCA78D" points="3814.718,752.002 3789.688,799.918 3824.268,825.883 3903.889,783.435 		"/>
		<path fill="#333438" d="M292.777,3401.679c0,0-258.697,285.688-289.7,274.491c-30.998-11.199,181.792-530.607,206.95-524.026
			c25.159,6.584,161.705,103.708,161.705,103.708L292.777,3401.679z"/>
		<path fill="#333438" d="M3210.302,4722.422c0,0,310.892,242.533,301.174,274.032c-9.718,31.495-538.613-156.49-533.226-181.933
			c5.387-25.44,108.571-154.224,108.571-154.224L3210.302,4722.422z"/>
	</g>
</g>
</svg>
