<?xml version="1.0" encoding="UTF-8" standalone="no"?>
<!-- Created with Inkscape (http://www.inkscape.org/) -->

<svg
   version="1.1"
   id="svg140994"
   width="800"
   height="800"
   viewBox="0 0 800 800"
   sodipodi:docname="watermelon-slice-clip-art-pdv.svg"
   inkscape:version="1.2 (dc2aedaf03, 2022-05-15)"
   xmlns:inkscape="http://www.inkscape.org/namespaces/inkscape"
   xmlns:sodipodi="http://sodipodi.sourceforge.net/DTD/sodipodi-0.dtd"
   xmlns="http://www.w3.org/2000/svg"
   xmlns:svg="http://www.w3.org/2000/svg">
  <defs
     id="defs140998">
    <clipPath
       clipPathUnits="userSpaceOnUse"
       id="clipPath141010">
      <path
         d="M 0,600 H 600 V 0 H 0 Z"
         id="path141008" />
    </clipPath>
  </defs>
  <sodipodi:namedview
     id="namedview140996"
     pagecolor="#ffffff"
     bordercolor="#000000"
     borderopacity="0.25"
     inkscape:showpageshadow="2"
     inkscape:pageopacity="0.0"
     inkscape:pagecheckerboard="0"
     inkscape:deskcolor="#d1d1d1"
     showgrid="false"
     inkscape:zoom="1.04625"
     inkscape:cx="400"
     inkscape:cy="400.4779"
     inkscape:window-width="1920"
     inkscape:window-height="1017"
     inkscape:window-x="-8"
     inkscape:window-y="-8"
     inkscape:window-maximized="1"
     inkscape:current-layer="g141002">
    <inkscape:page
       x="0"
       y="0"
       id="page141000"
       width="800"
       height="800" />
  </sodipodi:namedview>
  <g
     id="g141002"
     inkscape:groupmode="layer"
     inkscape:label="Page 1"
     transform="matrix(1.3333333,0,0,-1.3333333,0,800)">
    <g
       id="g141004">
      <g
         id="g141006"
         clip-path="url(#clipPath141010)">
        <g
           id="g141012"
           transform="translate(311.5596,114.0264)">
          <path
             d="m 0,0 c 137.857,0 250.295,67.831 250.295,150.998 0,83.166 -112.438,150.997 -250.295,150.997 -137.859,0 -250.297,-67.831 -250.297,-150.997 C -250.297,67.831 -137.859,0 0,0"
             style="fill:#dce0d3;fill-opacity:1;fill-rule:evenodd;stroke:none"
             id="path141014" />
        </g>
        <g
           id="g141016"
           transform="translate(561.5547,272.3896)">
          <path
             d="m 0,0 c 0.194,-2.44 0.3,-4.895 0.3,-7.365 0,-83.394 -112.062,-150.998 -250.296,-150.998 -0.466,0 -0.929,0.008 -1.394,0.011 l -139.045,114.025 161.123,172.394 z"
             style="fill:#c4c9bb;fill-opacity:1;fill-rule:evenodd;stroke:none"
             id="path141018" />
        </g>
        <g
           id="g141020"
           transform="translate(133.4985,228.9463)">
          <path
             d="M 0,0 2.486,90.986 15.95,106.266 25.444,28.75 Z"
             style="fill:#6b961c;fill-opacity:1;fill-rule:evenodd;stroke:none"
             id="path141022" />
        </g>
        <g
           id="g141024"
           transform="translate(149.4487,253.8262)">
          <path
             d="M 0,0 -15.95,-24.88 C 96.482,-85.478 247.112,-86.156 371.587,-26.525 365.712,-17.684 359.837,-8.843 353.963,0 Z"
             style="fill:#58800e;fill-opacity:1;fill-rule:evenodd;stroke:none"
             id="path141026" />
        </g>
        <g
           id="g141028"
           transform="translate(138.4897,236.7314)">
          <path
             d="M 0,0 1.937,88.242 10.959,98.481 40.042,23.569 Z"
             style="fill:#e2fab4;fill-opacity:1;fill-rule:evenodd;stroke:none"
             id="path141030" />
        </g>
        <g
           id="g141032"
           transform="translate(149.4487,253.8262)">
          <path
             d="M 0,0 -10.959,-17.095 C 99.314,-74.232 244.719,-74.849 366.309,-18.584 L 353.963,0 Z"
             style="fill:#ceed96;fill-opacity:1;fill-rule:evenodd;stroke:none"
             id="path141034" />
        </g>
        <g
           id="g141036"
           transform="translate(149.4487,253.8262)">
          <path
             d="m 0,0 -5.833,-9.098 c 107.927,-54.743 248.7,-55.898 367.917,-3.127 L 353.963,0 Z"
             style="fill:#f0fadf;fill-opacity:1;fill-rule:evenodd;stroke:none"
             id="path141038" />
        </g>
        <g
           id="g141040"
           transform="translate(143.6157,244.7285)">
          <path
             d="m 0,0 1.321,85.363 4.512,5.12 36.735,-76.067 z"
             style="fill:#fbfff5;fill-opacity:1;fill-rule:evenodd;stroke:none"
             id="path141042" />
        </g>
        <g
           id="g141044"
           transform="translate(149.4487,253.8262)">
          <path
             d="M 0,0 176.981,294.788 353.963,0 C 235.975,-46.922 117.988,-44.221 0,0"
             style="fill:#ff6633;fill-opacity:1;fill-rule:evenodd;stroke:none"
             id="path141046" />
        </g>
        <g
           id="g141048"
           transform="translate(149.4487,253.8262)">
          <path
             d="M 0,0 V 81.386 L 176.981,294.788 Z"
             style="fill:#ff8359;fill-opacity:1;fill-rule:evenodd;stroke:none"
             id="path141050" />
        </g>
        <g
           id="g141052"
           transform="translate(149.4487,253.8262)">
          <path
             d="M 0,0 81.271,137.993 176.981,294.788 83.719,136.682 Z"
             style="fill:#ffbea8;fill-opacity:1;fill-rule:evenodd;stroke:none"
             id="path141054" />
        </g>
        <g
           id="g141056"
           transform="translate(332.3389,344.063)">
          <path
             d="M 0,0 C 6.89,0 12.509,12.127 12.509,26.995 12.509,41.862 6.89,53.989 0,53.989 -6.89,53.989 -12.51,41.862 -12.51,26.995 -12.51,12.127 -6.89,0 0,0"
             style="fill:#e84d19;fill-opacity:1;fill-rule:evenodd;stroke:none"
             id="path141058" />
        </g>
        <g
           id="g141060"
           transform="translate(332.3389,346.9316)">
          <path
             d="m 0,0 c 6.068,0 11.018,9.521 11.018,21.196 0,11.675 -4.95,21.197 -11.018,21.197 -6.069,0 -11.02,-9.522 -11.02,-21.197 C -11.02,9.521 -6.069,0 0,0"
             style="fill:#663300;fill-opacity:1;fill-rule:evenodd;stroke:none"
             id="path141062" />
        </g>
        <g
           id="g141064"
           transform="translate(333.2256,349.5327)">
          <path
             d="m 0,0 c -0.291,-0.071 -0.588,-0.108 -0.887,-0.108 -3.884,0 -7.141,6.066 -8.027,14.239 C -6.658,7.691 -3.313,2.506 0,0 m -0.887,37.298 c 3.883,0 7.141,-6.064 8.027,-14.237 -2.254,6.44 -5.602,11.623 -8.913,14.129 0.291,0.071 0.587,0.108 0.886,0.108"
             style="fill:#a1662c;fill-opacity:1;fill-rule:evenodd;stroke:none"
             id="path141066" />
        </g>
        <g
           id="g141068"
           transform="translate(276.0952,416.2192)">
          <path
             d="m 0,0 c 4.662,0 6.147,-8.156 3.313,-18.215 -2.833,-10.062 -8.908,-18.219 -13.57,-18.219 -4.662,0 -6.147,8.157 -3.314,18.219 C -10.739,-8.156 -4.663,0 0,0"
             style="fill:#e84d19;fill-opacity:1;fill-rule:evenodd;stroke:none"
             id="path141070" />
        </g>
        <g
           id="g141072"
           transform="translate(274.4375,410.3306)">
          <path
             d="M 0,0 C 4.105,0 5.633,-6.404 3.408,-14.305 1.184,-22.206 -3.949,-28.61 -8.055,-28.61 c -4.107,0 -5.634,6.404 -3.409,14.305 C -9.24,-6.404 -4.108,0 0,0"
             style="fill:#663300;fill-opacity:1;fill-rule:evenodd;stroke:none"
             id="path141074" />
        </g>
        <g
           id="g141076"
           transform="translate(267.4741,383.4771)">
          <path
             d="m 0,0 c -0.21,-0.048 -0.417,-0.073 -0.618,-0.073 -2.622,0 -3.668,4.093 -2.712,9.61 C -3.031,5.19 -1.759,1.691 0,0 m 6.489,25.169 c 2.621,0 3.667,-4.091 2.711,-9.606 -0.297,4.345 -1.571,7.843 -3.328,9.535 0.208,0.047 0.414,0.071 0.617,0.071"
             style="fill:#a1662c;fill-opacity:1;fill-rule:evenodd;stroke:none"
             id="path141078" />
        </g>
        <g
           id="g141080"
           transform="translate(310.376,474.5718)">
          <path
             d="M 0,0 C 4.663,0 7.366,-9.593 6.038,-21.428 4.71,-33.263 -0.147,-42.855 -4.809,-42.855 c -4.662,0 -7.365,9.592 -6.038,21.427 C -9.519,-9.593 -4.663,0 0,0"
             style="fill:#e84d19;fill-opacity:1;fill-rule:evenodd;stroke:none"
             id="path141082" />
        </g>
        <g
           id="g141084"
           transform="translate(309.5986,467.6445)">
          <path
             d="m 0,0 c 4.106,0 6.591,-7.533 5.549,-16.826 -1.043,-9.293 -5.218,-16.826 -9.324,-16.826 -4.108,0 -6.592,7.533 -5.55,16.826 C -8.281,-7.533 -4.107,0 0,0"
             style="fill:#663300;fill-opacity:1;fill-rule:evenodd;stroke:none"
             id="path141086" />
        </g>
        <g
           id="g141088"
           transform="translate(306.6514,436.0562)">
          <path
             d="m 0,0 c -0.202,-0.055 -0.404,-0.084 -0.607,-0.084 -2.622,0 -4.279,4.814 -4.148,11.303 C -3.807,6.106 -2.012,1.99 0,0 m 2.726,29.609 c 2.621,0 4.279,-4.814 4.149,-11.302 -0.95,5.113 -2.745,9.226 -4.757,11.216 0.202,0.056 0.405,0.086 0.608,0.086"
             style="fill:#a1662c;fill-opacity:1;fill-rule:evenodd;stroke:none"
             id="path141090" />
        </g>
        <g
           id="g141092"
           transform="translate(371.3984,425.269)">
          <path
             d="m 0,0 c 4.663,0 10.907,-8.156 13.947,-18.218 3.041,-10.059 1.726,-18.215 -2.936,-18.215 -4.663,0 -10.908,8.156 -13.947,18.215 C -5.977,-8.156 -4.662,0 0,0"
             style="fill:#e84d19;fill-opacity:1;fill-rule:evenodd;stroke:none"
             id="path141094" />
        </g>
        <g
           id="g141096"
           transform="translate(373.1777,419.3794)">
          <path
             d="m 0,0 c 4.107,0 9.372,-6.404 11.76,-14.304 2.386,-7.901 0.993,-14.305 -3.114,-14.305 -4.107,0 -9.372,6.404 -11.758,14.305 C -5.5,-6.404 -4.106,0 0,0"
             style="fill:#663300;fill-opacity:1;fill-rule:evenodd;stroke:none"
             id="path141098" />
        </g>
        <g
           id="g141100"
           transform="translate(381.8916,392.5259)">
          <path
             d="m 0,0 c -0.182,-0.047 -0.374,-0.072 -0.577,-0.072 -2.62,0 -6.056,4.092 -8.32,9.609 C -6.062,5.19 -2.746,1.691 0,0 m -8.205,25.17 c 2.621,0 6.057,-4.092 8.32,-9.607 -2.835,4.345 -6.149,7.844 -8.896,9.535 0.182,0.048 0.375,0.072 0.576,0.072"
             style="fill:#a1662c;fill-opacity:1;fill-rule:evenodd;stroke:none"
             id="path141102" />
        </g>
        <g
           id="g141104"
           transform="translate(392.1426,351.6479)">
          <path
             d="M 0,0 C 5.849,0.604 14.06,-10.775 18.341,-25.412 22.623,-40.051 21.355,-52.407 15.507,-53.009 9.659,-53.613 1.447,-42.234 -2.834,-27.597 -7.116,-12.958 -5.848,-0.602 0,0"
             style="fill:#e84d19;fill-opacity:1;fill-rule:evenodd;stroke:none"
             id="path141106" />
        </g>
        <g
           id="g141108"
           transform="translate(394.6504,343.0791)">
          <path
             d="M 0,0 C 5.15,0.531 12.051,-8.356 15.413,-19.851 18.775,-31.345 17.326,-41.094 12.175,-41.625 7.024,-42.156 0.123,-33.268 -3.238,-21.774 -6.601,-10.279 -5.151,-0.532 0,0"
             style="fill:#663300;fill-opacity:1;fill-rule:evenodd;stroke:none"
             id="path141110" />
        </g>
        <g
           id="g141112"
           transform="translate(406.8291,304.0854)">
          <path
             d="M 0,0 C -0.227,-0.094 -0.467,-0.157 -0.72,-0.183 -4.007,-0.522 -8.507,5.15 -11.604,13.098 -7.845,6.971 -3.524,2.172 0,0 m -11.464,36.546 c 3.288,0.338 7.787,-5.332 10.883,-13.279 -3.758,6.127 -8.078,10.923 -11.602,13.096 0.227,0.095 0.466,0.157 0.719,0.183"
             style="fill:#a1662c;fill-opacity:1;fill-rule:evenodd;stroke:none"
             id="path141114" />
        </g>
        <g
           id="g141116"
           transform="translate(283.1162,331.1606)">
          <path
             d="M 0,0 C 8.059,-1.011 11.924,-15.928 8.635,-33.317 5.347,-50.705 -3.852,-63.982 -11.91,-62.97 c -8.06,1.011 -11.924,15.928 -8.637,33.317 C -17.257,-12.264 -8.059,1.012 0,0"
             style="fill:#e84d19;fill-opacity:1;fill-rule:evenodd;stroke:none"
             id="path141118" />
        </g>
        <g
           id="g141120"
           transform="translate(281.1909,320.9814)">
          <path
             d="m 0,0 c 7.098,-0.891 10.758,-12.683 8.175,-26.336 -2.581,-13.655 -10.43,-24.001 -17.527,-23.11 -7.099,0.89 -10.76,12.682 -8.177,26.338 C -14.946,-9.456 -7.098,0.892 0,0"
             style="fill:#663300;fill-opacity:1;fill-rule:evenodd;stroke:none"
             id="path141122" />
        </g>
        <g
           id="g141124"
           transform="translate(273.4458,274.4385)">
          <path
             d="M 0,0 C -0.355,-0.039 -0.707,-0.039 -1.057,0.006 -5.587,0.574 -8.049,8.126 -7.278,17.789 -6.068,9.947 -3.31,3.409 0,0 m 7.196,43.635 c 4.53,-0.569 6.991,-8.12 6.22,-17.781 -1.209,7.841 -3.968,14.376 -7.278,17.786 0.354,0.038 0.709,0.038 1.058,-0.005"
             style="fill:#a1662c;fill-opacity:1;fill-rule:evenodd;stroke:none"
             id="path141126" />
        </g>
        <g
           id="g141128"
           transform="translate(338.1533,436.7046)">
          <path
             d="M 0,0 C -0.21,-8.442 0.202,-16.828 3.674,-24.936 3.847,-16.814 2.276,-8.455 0,0 m 71.012,-73.814 c -4.861,6.682 -6.986,15.589 -8.572,24.938 4.417,-7.043 7.831,-14.9 8.572,-24.938 m 50.197,-73.314 c -9.631,13.263 -17.713,27.967 -24.487,43.89 11.575,-12.832 19.85,-27.401 24.487,-43.89 M 33.67,-163.585 c -6.863,14.549 -9.259,30.17 -9.183,46.381 6.461,-15.307 10.067,-30.742 9.183,-46.381 m -163.447,21.445 c 11.472,12.246 19.749,25.992 23.874,41.894 -10.436,-13.46 -18.335,-27.436 -23.874,-41.894 m 88.151,67.827 c 3.455,12.614 5.932,25.126 6.122,37.406 -4.992,-12.099 -6.438,-24.641 -6.122,-37.406 M 1.225,48.876 C 1.166,36.532 4.344,26.475 10.407,18.454 10.324,28.769 7.021,38.895 1.225,48.876"
             style="fill:#e84d19;fill-opacity:1;fill-rule:evenodd;stroke:none"
             id="path141130" />
        </g>
        <g
           id="g141132"
           transform="translate(195.5562,365.4951)">
          <path
             d="m 0,0 c 3.37,-2.112 0.557,-13.834 -6.282,-26.181 -6.84,-12.347 -15.114,-20.644 -18.484,-18.532 -3.369,2.111 -0.555,13.834 6.283,26.181 C -11.644,-6.185 -3.368,2.112 0,0"
             style="fill:#e84d19;fill-opacity:1;fill-rule:evenodd;stroke:none"
             id="path141134" />
        </g>
        <g
           id="g141136"
           transform="translate(191.5542,358.2671)">
          <path
             d="m 0,0 c 2.966,-1.86 1.019,-11.228 -4.352,-20.924 -5.37,-9.695 -12.128,-16.047 -15.096,-14.186 -2.967,1.861 -1.02,11.229 4.35,20.923 C -9.727,-4.491 -2.968,1.86 0,0"
             style="fill:#663300;fill-opacity:1;fill-rule:evenodd;stroke:none"
             id="path141138" />
        </g>
        <g
           id="g141140"
           transform="translate(173.7314,325.0405)">
          <path
             d="M 0,0 C -0.173,0.03 -0.335,0.09 -0.482,0.182 -2.375,1.37 -1.181,7.389 2.137,14.428 0.282,8.405 -0.465,3.089 0,0 m 16.678,31.162 c 1.894,-1.188 0.7,-7.206 -2.616,-14.245 1.854,6.023 2.6,11.339 2.134,14.428 0.175,-0.031 0.335,-0.092 0.482,-0.183"
             style="fill:#a1662c;fill-opacity:1;fill-rule:evenodd;stroke:none"
             id="path141142" />
        </g>
        <g
           id="g141144"
           transform="translate(235.2402,428.7002)">
          <path
             d="m 0,0 c 1.494,-1.472 -1.621,-9.638 -6.956,-18.238 -5.337,-8.601 -10.874,-14.381 -12.368,-12.91 -1.492,1.471 1.622,9.636 6.959,18.238 C -7.03,-4.309 -1.494,1.471 0,0"
             style="fill:#e84d19;fill-opacity:1;fill-rule:evenodd;stroke:none"
             id="path141146" />
        </g>
        <g
           id="g141148"
           transform="translate(232.1177,423.6646)">
          <path
             d="m 0,0 c 1.315,-1.296 -1.015,-7.821 -5.205,-14.575 -4.19,-6.755 -8.653,-11.18 -9.969,-9.884 -1.317,1.297 1.015,7.823 5.205,14.577 C -5.779,-3.128 -1.316,1.296 0,0"
             style="fill:#663300;fill-opacity:1;fill-rule:evenodd;stroke:none"
             id="path141150" />
        </g>
        <g
           id="g141152"
           transform="translate(218.0654,400.5181)">
          <path
             d="M 0,0 C -0.088,0.022 -0.165,0.064 -0.229,0.126 -1.07,0.954 0.397,5.148 3.132,10.051 1.314,5.856 0.182,2.151 0,0 m 13.159,21.708 c 0.84,-0.827 -0.627,-5.019 -3.36,-9.923 1.817,4.195 2.95,7.899 3.13,10.05 0.088,-0.021 0.165,-0.063 0.23,-0.127"
             style="fill:#a1662c;fill-opacity:1;fill-rule:evenodd;stroke:none"
             id="path141154" />
        </g>
      </g>
    </g>
  </g>
</svg>
